<svg id="图层_1" data-name="图层 1" xmlns="http://www.w3.org/2000/svg" viewBox="0 0 38 25"><defs><style>.cls-1{fill:#e7211a;}.cls-2{fill:#fff;}</style></defs><title>数据可视化2</title><rect class="cls-1" x="0.67" width="36.66" height="25"/><rect class="cls-2" x="9.84" width="18.33" height="25"/><path class="cls-1" d="M19.5,5,18.25,7.33c-.15.26-.4.23-.65.09L16.69,7l.67,3.59c.15.65-.31.65-.53.37L15.25,9.14,15,10a.31.31,0,0,1-.35.21l-2-.42.52,1.91c.11.42.2.6-.11.71l-.71.33,3.44,2.8a.44.44,0,0,1,.15.47l-.3,1c1.19-.14,2.25-.35,3.43-.47.11,0,.28.16.28.28l-.16,3.62h.58l-.09-3.61c0-.13.16-.31.26-.29,1.19.12,2.25.33,3.43.46l-.3-1a.46.46,0,0,1,.16-.47l3.44-2.8L26,12.45c-.32-.11-.23-.29-.12-.71l.53-1.91-2,.42A.32.32,0,0,1,24,10l-.25-.9-1.58,1.77c-.23.28-.68.28-.54-.37L22.3,7l-.9.47c-.26.14-.51.17-.65-.09"/></svg>