<svg id="图层_1" data-name="图层 1" xmlns="http://www.w3.org/2000/svg" xmlns:xlink="http://www.w3.org/1999/xlink" viewBox="0 0 38 25"><defs><style>.cls-1{fill:none;}.cls-2{clip-path:url(#clip-path);}.cls-3{fill:#de2910;}.cls-4{fill:#ffde00;}</style><clipPath id="clip-path"><rect class="cls-1" y="0.39" width="38" height="24.22"/></clipPath></defs><title>数据可视化2</title><g class="cls-2"><rect class="cls-3" y="0.41" width="37.98" height="24.17"/></g><path class="cls-4" d="M6,3.16l.77,2.35H9.24L7.23,7,8,9.32,6,7.87,4,9.32,4.75,7l-2-1.45H5.23Zm6.45-1.23,0,.81.76.3-.79.2,0,.82-.44-.7-.79.21.52-.63-.43-.69.76.3Zm2.78,2.63-.37.73.58.58-.8-.13-.38.73-.12-.81-.81-.13.73-.37-.13-.8.58.57Zm-.83,3.31.25.77h.81l-.65.48.25.78-.66-.49-.66.48L14,9.12l-.66-.48h.82Zm-2,2.48,0,.81.75.3-.78.21-.06.81-.43-.69-.79.2.52-.62-.44-.69.76.3Zm0,0"/></svg>