<svg id="图层_1" data-name="图层 1" xmlns="http://www.w3.org/2000/svg" viewBox="0 0 38 25"><defs><style>.cls-1{fill:#353636;}.cls-2{fill:#009842;}.cls-3{fill:#fff;}.cls-4{fill:#f2ab48;}.cls-5{fill:#22297b;}</style></defs><title>数据可视化2</title><path class="cls-1" d="M.33,24.94H37.41V.28H.33ZM37.48,25v0Zm-37.3.1V.13H37.57v25H.18Zm0,0"/><rect class="cls-2" x="0.27" y="16.75" width="37.24" height="8.28"/><rect class="cls-3" x="0.27" y="8.5" width="37.24" height="8.28"/><rect class="cls-4" x="0.27" y="0.22" width="37.24" height="8.28"/><path class="cls-5" d="M21.78,11.36l.1-.19.19.11-.11.18Zm.39,1L22,12.15l.15-.15.15.15Zm0,.85L22,13l.21-.09.09.18Zm-.33.62.21-.05.05.21-.2,0Zm0,0"/><path class="cls-5" d="M21.78,11.36l.1-.19.19.11-.11.18Zm.39,1L22,12.15l.15-.15.15.15Zm0,.85L22,13l.21-.09.09.18Zm-.33.62.21-.05.05.21-.2,0Zm-3.56-4.5.15-.15.16.15-.16.15Zm.87,0,.19-.11.11.19-.19.11Zm1.15.33-.22.06L20,9.45l.22-.06Zm.49.24H21v.22h-.21Zm.83.86-.22-.06.06-.22.22.06Zm-.16,3.8h.22v.22h-.22Zm-.63.82.06-.21.2.05,0,.21Zm-.78.41.09-.18.22.09-.12.18Zm-.86.18.16-.15.18.15-.18.16Zm-.86,0,.19-.12.12.22-.18.09Zm-.82-.24.21-.06.06.21-.21.06Zm-.74-.49H17v.21h-.21Zm-.62-.4.05-.21.21.06-.06.2ZM15.65,14l.1-.18.19.1-.11.19Zm-.08-1,.16.15-.16.19-.15-.19Zm0-.86.12.18-.22.13-.09-.19Zm0-.77.21,0,.05.21-.2.05Zm.46-.79h.21v.22H16.1ZM17,9.91l-.06.22-.21-.06.06-.22Zm.47-.3.11-.19.18.11-.1.19Zm1.38,3,.09-1.32-.09-2-.1,2Zm0,0,.42-1.26.43-1.93L19,11.32Zm0,0,.73-1.1.92-1.75-1.07,1.65Zm0,0,1-.86,1.32-1.47L19.65,11.6Zm0,0L20,12,21.65,11l-1.75.93Zm0,0,1.31-.24L22,11.75l-1.94.43Zm0,0,1.31.09,2-.09-2-.09Zm0,0,1.25.43,1.94.43-1.88-.61Zm0,0,1.1.74,1.78.92L20,13.19Zm0,0,.85,1,1.51,1.32-1.35-1.47Zm0,0,.58,1.2,1.07,1.65-.89-1.74Zm0,0L19,13.9l.61,1.9-.43-1.93Zm0,0-.1,1.32.1,2,.09-2Zm0,0-.43,1.26L18,15.8l.58-1.87Zm0,0-.74,1.11-.89,1.77,1.07-1.68Zm0,0-1,.86L16.46,15l1.48-1.35Zm0,0-1.2.58-1.66,1.08,1.78-.89Zm0,0-1.29.25-1.9.61L17.54,13Zm0,0-1.32-.09-2,.09,2,.09Zm0,0-1.26-.43-1.93-.4,1.9.59Zm0,0-1.11-.73L15.94,11l1.66,1Zm0,0-.86-1-1.48-1.35,1.32,1.47Zm0,0-.59-1.2L17.14,9.76l.92,1.78Zm0,0-.25-1.29-.61-1.9.43,1.93Zm0,0"/><path class="cls-5" d="M18,15.83a3.33,3.33,0,1,1,4.08-2.36A3.31,3.31,0,0,1,18,15.83ZM19.84,9a3.75,3.75,0,1,0,2.67,4.57A3.75,3.75,0,0,0,19.84,9Zm0,0"/><path class="cls-5" d="M19.5,12.8a.67.67,0,1,1-1.29-.37A.63.63,0,0,1,19,12a.65.65,0,0,1,.46.83Zm.77-3.19-.22.06L20,9.45l.22-.06Zm.49.24H21v.22h-.21Zm.83.86-.22-.06.06-.22.22.06Zm-.16,3.8h.22v.22h-.22Zm-.63.82.06-.21.2.05,0,.21Zm-.78.41.09-.18.22.09-.12.18Zm-.86.18.16-.15.18.15-.18.16Zm-.86,0,.19-.12.12.22-.18.09Zm-.82-.24.21-.06.06.21-.21.06Zm-.74-.49H17v.21h-.21Zm-.62-.4.05-.21.21.06-.06.2ZM15.65,14l.1-.18.19.1-.11.19Zm-.08-1,.16.15-.16.19-.15-.19Zm0-.86.12.18-.22.13-.09-.19Zm0-.77.21,0,.05.21-.2.05Zm.46-.79h.21v.22H16.1ZM17,9.91l-.06.22-.21-.06.06-.22Zm.47-.3.11-.19.18.11-.1.19Zm.83-.3.15-.15.16.15-.16.15Zm0,0"/></svg>