<svg id="图层_1" data-name="图层 1" xmlns="http://www.w3.org/2000/svg" viewBox="0 0 38 25"><defs><style>.cls-1{fill:#353636;}.cls-2{fill:#fff;}.cls-3{fill:#cc303c;}.cls-4{fill:#005c9e;}.cls-5{fill:#231815;}</style></defs><title>数据可视化2</title><path class="cls-1" d="M.46,24.85H37.54V.18H.46Zm37.14.06v0ZM.3,25V0H37.7V25H.3Zm0,0"/><rect class="cls-2" x="0.4" y="0.09" width="37.24" height="24.82"/><path class="cls-3" d="M25.09,11.93a6.13,6.13,0,1,1-6.66-5.55,6.13,6.13,0,0,1,6.66,5.55Zm0,0"/><path class="cls-4" d="M13.77,9.33a3,3,0,0,0,1,4.2,3.06,3.06,0,0,0,4.21-1,3.06,3.06,0,0,1,5.24,3.16,6.12,6.12,0,0,1-8.4,2.06,6.05,6.05,0,0,1-2.09-8.37Zm0,0"/><path class="cls-5" d="M6,7.57,9.42,2.48l.79.54L6.78,8.1Zm1.23.83,3.43-5.09.79.53L8,8.93Zm1.21.83.8.52,3.44-5.09-.8-.55Zm18.74,8.35,1.6-2.36.79.53L28,18.12Zm-1.84,2.78L26.93,18l.79.53-1.6,2.37Zm3.05-1.93L30,16.07l.79.53L29.17,19Zm-1.82,2.74.8.52L29,19.33l-.79-.53Zm3.05-1.91,1.6-2.37.79.53-1.6,2.37ZM27.77,22l1.59-2.37.79.53-1.59,2.37ZM30,8.93l.79-.53L27.36,3.31l-.8.52ZM27.77,3l.79-.53,1.6,2.36-.79.53Zm1.86,2.76.79-.53L32,7.59l-.78.53Zm-4.31-1.1.79-.53,1.6,2.36L26.92,7Zm1.84,2.73L28,6.86l1.59,2.36-.78.54ZM8.42,15.77l.78-.53,3.44,5.08-.79.54ZM6,17.41l.79-.53L10.21,22l-.79.53Zm1.22-.79L8,16.09l1.6,2.36L8.8,19Zm3.43,5.07.8-.52L9.84,18.8l-.79.53Zm0,0"/></svg>