<svg id="图层_1" data-name="图层 1" xmlns="http://www.w3.org/2000/svg" xmlns:xlink="http://www.w3.org/1999/xlink" viewBox="0 0 38 25"><defs><style>.cls-1{fill:none;}.cls-2{fill:#eb283a;}.cls-3{clip-path:url(#clip-path);}.cls-4{fill:#34b233;}.cls-5{fill:#fecb00;}.cls-6{fill:#fff;}</style><clipPath id="clip-path"><rect class="cls-1" x="0.28" width="37.43" height="25"/></clipPath></defs><title>数据可视化2</title><rect class="cls-2" x="0.28" y="16.63" width="37.43" height="8.32"/><rect class="cls-2" x="0.28" y="24.28" width="37.43" height="0.67"/><g class="cls-3"><rect class="cls-4" x="0.28" y="8.25" width="37.43" height="8.38"/><rect class="cls-5" x="0.28" width="37.43" height="8.25"/><rect class="cls-5" x="0.28" width="37.43" height="0.67"/></g><rect class="cls-2" x="0.28" y="16.63" width="0.67" height="8.32"/><g class="cls-3"><rect class="cls-4" x="0.28" y="8.25" width="0.67" height="8.38"/><rect class="cls-5" x="0.28" width="0.67" height="8.25"/></g><rect class="cls-2" x="37.04" y="16.63" width="0.67" height="8.32"/><g class="cls-3"><rect class="cls-4" x="37.04" y="8.25" width="0.67" height="8.38"/><rect class="cls-5" x="37.04" width="0.67" height="8.25"/></g><path class="cls-6" d="M19,4l2.1,6.47h6.81l-5.51,4L24.51,21,19,17l-5.51,4,2.1-6.47-5.5-4h6.8Zm0,0"/></svg>