<svg id="图层_1" data-name="图层 1" xmlns="http://www.w3.org/2000/svg" xmlns:xlink="http://www.w3.org/1999/xlink" viewBox="0 0 38 25"><defs><style>.cls-1{fill:none;}.cls-2{clip-path:url(#clip-path);}.cls-3{fill:#da1841;}.cls-4{fill:#fff;}</style><clipPath id="clip-path"><rect class="cls-1" y="0.6" width="38" height="23.79"/></clipPath></defs><title>数据可视化2</title><g class="cls-2"><rect class="cls-3" y="0.62" width="38" height="11.87"/><path class="cls-4" d="M0,12.49H38V24.37H0ZM11.42,6.57A4.17,4.17,0,1,1,7.26,2.4a4.17,4.17,0,0,1,4.16,4.17"/></g><path class="cls-3" d="M12.71,6.57A3.94,3.94,0,1,1,8.77,2.73a3.93,3.93,0,0,1,3.94,3.84"/><path class="cls-4" d="M7.75,6.67l-.57-.43-.56.43L6.84,6l-.57-.43H7l.21-.7.22.7h.7L7.53,6Zm4.44,0-.56-.43-.57.43.22-.7-.57-.43h.7l.21-.7.22.7h.7L12,6ZM10,5l-.57-.43L8.84,5l.22-.7L8.49,3.9h.7l.22-.71.21.7h.7l-.56.43ZM8.58,9.31,8,8.88l-.57.43.22-.7L7.1,8.18h.7L8,7.48l.22.7h.7l-.57.43Zm2.78,0-.56-.43-.57.43.22-.7-.57-.43h.7l.22-.7.21.7h.7l-.56.43Zm0,0"/></svg>