<svg id="图层_1" data-name="图层 1" xmlns="http://www.w3.org/2000/svg" xmlns:xlink="http://www.w3.org/1999/xlink" viewBox="0 0 3200 1080"><defs><style>.cls-1{opacity:0.6;}.cls-2{fill:url(#radial-gradient);}.cls-3{fill:url(#radial-gradient-2);}.cls-4{fill:url(#radial-gradient-3);}.cls-5{fill:url(#radial-gradient-4);}.cls-6{fill:url(#radial-gradient-5);}.cls-7{fill:url(#radial-gradient-6);}.cls-8{fill:url(#radial-gradient-7);}.cls-9{fill:url(#radial-gradient-8);}.cls-10{fill:url(#radial-gradient-9);}.cls-11{fill:url(#radial-gradient-10);}.cls-12{fill:url(#radial-gradient-11);}.cls-13{fill:url(#radial-gradient-12);}.cls-14{fill:url(#radial-gradient-13);}.cls-15{fill:url(#radial-gradient-14);}.cls-16{fill:url(#radial-gradient-15);}.cls-17{fill:url(#radial-gradient-16);}.cls-18{fill:url(#radial-gradient-17);}.cls-19{fill:url(#radial-gradient-18);}.cls-20{fill:url(#radial-gradient-19);}.cls-21{fill:url(#radial-gradient-20);}.cls-22{fill:url(#radial-gradient-21);}.cls-23{fill:url(#radial-gradient-22);}.cls-24{fill:url(#radial-gradient-23);}.cls-25{fill:url(#radial-gradient-24);}.cls-26{fill:url(#radial-gradient-25);}.cls-27{fill:url(#radial-gradient-26);}.cls-28{fill:url(#radial-gradient-27);}.cls-29{fill:url(#radial-gradient-28);}.cls-30{fill:url(#radial-gradient-29);}.cls-31{fill:url(#radial-gradient-30);}.cls-32{fill:url(#radial-gradient-31);}.cls-33{fill:url(#radial-gradient-32);}.cls-34{fill:url(#radial-gradient-33);}.cls-35{fill:url(#radial-gradient-34);}.cls-36{fill:url(#radial-gradient-35);}.cls-37{fill:url(#radial-gradient-36);}.cls-38{fill:url(#radial-gradient-37);}.cls-39{fill:url(#radial-gradient-38);}.cls-40{fill:url(#radial-gradient-39);}.cls-41{fill:url(#radial-gradient-40);}.cls-42{fill:url(#radial-gradient-41);}.cls-43{fill:url(#radial-gradient-42);}.cls-44{fill:url(#radial-gradient-43);}.cls-45{fill:url(#radial-gradient-44);}.cls-46{fill:url(#radial-gradient-45);}.cls-47{fill:url(#radial-gradient-46);}.cls-48{fill:url(#radial-gradient-47);}.cls-49{fill:url(#radial-gradient-48);}.cls-50{fill:url(#radial-gradient-49);}.cls-51{fill:url(#radial-gradient-50);}.cls-52{fill:url(#radial-gradient-51);}.cls-53{fill:url(#radial-gradient-52);}.cls-54{fill:url(#radial-gradient-53);}.cls-55{fill:url(#radial-gradient-54);}.cls-56{fill:url(#radial-gradient-55);}.cls-57{fill:url(#radial-gradient-56);}.cls-58{fill:url(#radial-gradient-57);}.cls-59{fill:url(#radial-gradient-58);}.cls-60{fill:url(#radial-gradient-59);}.cls-61{fill:url(#radial-gradient-60);}.cls-62{fill:url(#radial-gradient-61);}.cls-63{fill:url(#radial-gradient-62);}.cls-64{fill:url(#radial-gradient-63);}.cls-65{fill:url(#radial-gradient-64);}.cls-66{fill:url(#radial-gradient-65);}.cls-67{fill:url(#radial-gradient-66);}.cls-68{fill:url(#radial-gradient-67);}.cls-69{fill:url(#radial-gradient-68);}.cls-70{fill:url(#radial-gradient-69);}.cls-71{fill:url(#radial-gradient-70);}.cls-72{fill:url(#radial-gradient-71);}.cls-73{fill:url(#radial-gradient-72);}.cls-74{fill:url(#radial-gradient-73);}.cls-75{fill:url(#radial-gradient-74);}.cls-76{fill:url(#radial-gradient-75);}.cls-77{fill:url(#radial-gradient-76);}.cls-78{fill:url(#radial-gradient-77);}.cls-79{fill:url(#radial-gradient-78);}.cls-80{fill:url(#radial-gradient-79);}.cls-81{fill:url(#radial-gradient-80);}.cls-82{fill:url(#radial-gradient-81);}.cls-83{fill:url(#radial-gradient-82);}.cls-84{fill:url(#radial-gradient-83);}.cls-85{fill:url(#radial-gradient-84);}.cls-86{fill:url(#radial-gradient-85);}.cls-87{fill:url(#radial-gradient-86);}.cls-88{fill:url(#radial-gradient-87);}.cls-89{fill:url(#radial-gradient-88);}.cls-90{fill:url(#radial-gradient-89);}.cls-91{fill:url(#radial-gradient-90);}.cls-92{fill:url(#radial-gradient-91);}.cls-93{fill:url(#radial-gradient-92);}.cls-94{fill:url(#radial-gradient-93);}.cls-95{fill:url(#radial-gradient-94);}.cls-96{fill:url(#radial-gradient-95);}.cls-97{fill:url(#radial-gradient-96);}.cls-98{fill:url(#radial-gradient-97);}.cls-99{fill:url(#radial-gradient-98);}.cls-100{fill:url(#radial-gradient-99);}.cls-101{fill:url(#radial-gradient-100);}.cls-102{fill:url(#radial-gradient-101);}.cls-103{fill:url(#radial-gradient-102);}.cls-104{fill:url(#radial-gradient-103);}.cls-105{fill:url(#radial-gradient-104);}.cls-106{fill:url(#radial-gradient-105);}.cls-107{fill:url(#radial-gradient-106);}.cls-108{fill:url(#radial-gradient-107);}.cls-109{fill:url(#radial-gradient-108);}.cls-110{fill:url(#radial-gradient-109);}.cls-111{fill:url(#radial-gradient-110);}.cls-112{fill:url(#radial-gradient-111);}.cls-113{fill:url(#radial-gradient-112);}.cls-114{fill:url(#radial-gradient-113);}.cls-115{fill:url(#radial-gradient-114);}.cls-116{fill:url(#radial-gradient-115);}.cls-117{fill:url(#radial-gradient-116);}.cls-118{fill:url(#radial-gradient-117);}.cls-119{fill:url(#radial-gradient-118);}.cls-120{fill:url(#radial-gradient-119);}.cls-121{fill:url(#radial-gradient-120);}.cls-122{fill:url(#radial-gradient-121);}.cls-123{fill:url(#radial-gradient-122);}.cls-124{fill:url(#radial-gradient-123);}.cls-125{fill:url(#radial-gradient-124);}.cls-126{fill:url(#radial-gradient-125);}.cls-127{fill:url(#radial-gradient-126);}.cls-128{fill:url(#radial-gradient-127);}.cls-129{fill:url(#radial-gradient-128);}.cls-130{fill:url(#radial-gradient-129);}.cls-131{fill:url(#radial-gradient-130);}.cls-132{fill:url(#radial-gradient-131);}.cls-133{fill:url(#radial-gradient-132);}.cls-134{fill:url(#radial-gradient-133);}.cls-135{fill:url(#radial-gradient-134);}.cls-136{fill:url(#radial-gradient-135);}.cls-137{fill:url(#radial-gradient-136);}.cls-138{fill:url(#radial-gradient-137);}.cls-139{fill:url(#radial-gradient-138);}.cls-140{fill:url(#radial-gradient-139);}.cls-141{fill:url(#radial-gradient-140);}.cls-142{fill:url(#radial-gradient-141);}.cls-143{fill:url(#radial-gradient-142);}.cls-144{fill:url(#radial-gradient-143);}.cls-145{fill:url(#radial-gradient-144);}.cls-146{fill:url(#radial-gradient-145);}.cls-147{fill:url(#radial-gradient-146);}.cls-148{fill:url(#radial-gradient-147);}.cls-149{fill:url(#radial-gradient-148);}.cls-150{fill:url(#radial-gradient-149);}.cls-151{fill:url(#radial-gradient-150);}.cls-152{fill:url(#radial-gradient-151);}.cls-153{fill:url(#radial-gradient-152);}.cls-154{fill:url(#radial-gradient-153);}.cls-155{fill:url(#radial-gradient-154);}.cls-156{fill:url(#radial-gradient-155);}.cls-157{fill:url(#radial-gradient-156);}.cls-158{fill:url(#radial-gradient-157);}.cls-159{fill:url(#radial-gradient-158);}.cls-160{fill:url(#radial-gradient-159);}.cls-161{fill:url(#radial-gradient-160);}.cls-162{fill:url(#radial-gradient-161);}.cls-163{fill:url(#radial-gradient-162);}.cls-164{fill:url(#radial-gradient-163);}.cls-165{fill:url(#radial-gradient-164);}.cls-166{fill:url(#radial-gradient-165);}.cls-167{fill:url(#radial-gradient-166);}.cls-168{fill:url(#radial-gradient-167);}.cls-169{fill:url(#radial-gradient-168);}.cls-170{fill:url(#radial-gradient-169);}.cls-171{fill:url(#radial-gradient-170);}.cls-172{fill:url(#radial-gradient-171);}.cls-173{fill:url(#radial-gradient-172);}.cls-174{fill:url(#radial-gradient-173);}.cls-175{fill:url(#radial-gradient-174);}.cls-176{fill:url(#radial-gradient-175);}.cls-177{fill:url(#radial-gradient-176);}.cls-178{fill:url(#radial-gradient-177);}.cls-179{fill:url(#radial-gradient-178);}.cls-180{fill:url(#radial-gradient-179);}.cls-181{fill:url(#radial-gradient-180);}.cls-182{fill:url(#radial-gradient-181);}.cls-183{fill:url(#radial-gradient-182);}.cls-184{fill:url(#radial-gradient-183);}.cls-185{fill:url(#radial-gradient-184);}.cls-186{fill:url(#radial-gradient-185);}.cls-187{fill:url(#radial-gradient-186);}.cls-188{fill:url(#radial-gradient-187);}.cls-189{fill:url(#radial-gradient-188);}.cls-190{fill:url(#radial-gradient-189);}.cls-191{fill:url(#radial-gradient-190);}.cls-192{fill:url(#radial-gradient-191);}.cls-193{fill:url(#radial-gradient-192);}.cls-194{fill:url(#radial-gradient-193);}.cls-195{fill:url(#radial-gradient-194);}.cls-196{fill:url(#radial-gradient-195);}.cls-197{fill:url(#radial-gradient-196);}.cls-198{fill:url(#未命名的渐变_3);}.cls-199{fill:url(#未命名的渐变_3-2);}.cls-200{fill:url(#未命名的渐变_3-3);}.cls-201{fill:url(#未命名的渐变_3-4);}.cls-202{fill:url(#未命名的渐变_3-5);}.cls-203{fill:url(#未命名的渐变_3-6);}.cls-204{fill:url(#未命名的渐变_3-7);}.cls-205{fill:url(#未命名的渐变_3-8);}.cls-206{fill:url(#未命名的渐变_3-9);}.cls-207{fill:url(#未命名的渐变_3-10);}.cls-208{fill:url(#未命名的渐变_3-11);}.cls-209{fill:url(#未命名的渐变_3-12);}.cls-210{fill:url(#未命名的渐变_3-13);}.cls-211{fill:url(#未命名的渐变_3-14);}.cls-212{fill:url(#未命名的渐变_3-15);}.cls-213{fill:url(#未命名的渐变_3-16);}.cls-214{fill:url(#未命名的渐变_3-17);}.cls-215{fill:url(#未命名的渐变_3-18);}.cls-216{fill:url(#未命名的渐变_3-19);}.cls-217{fill:url(#未命名的渐变_3-20);}.cls-218{fill:url(#未命名的渐变_3-21);}.cls-219{fill:url(#未命名的渐变_3-22);}.cls-220{fill:url(#未命名的渐变_3-23);}.cls-221{fill:url(#未命名的渐变_3-24);}.cls-222{fill:url(#未命名的渐变_3-25);}.cls-223{fill:url(#未命名的渐变_3-26);}.cls-224{fill:url(#未命名的渐变_3-27);}.cls-225{fill:url(#未命名的渐变_3-28);}.cls-226{fill:url(#未命名的渐变_3-29);}.cls-227{fill:url(#未命名的渐变_3-30);}.cls-228{fill:url(#未命名的渐变_3-31);}.cls-229{fill:url(#未命名的渐变_3-32);}.cls-230{fill:url(#未命名的渐变_3-33);}.cls-231{fill:url(#未命名的渐变_3-34);}.cls-232{fill:url(#未命名的渐变_3-35);}.cls-233{fill:url(#未命名的渐变_3-36);}.cls-234{fill:url(#未命名的渐变_3-37);}.cls-235{fill:url(#未命名的渐变_3-38);}.cls-236{fill:url(#未命名的渐变_3-39);}.cls-237{fill:url(#未命名的渐变_3-40);}.cls-238{fill:url(#未命名的渐变_3-41);}.cls-239{fill:url(#未命名的渐变_3-42);}.cls-240{fill:url(#未命名的渐变_3-43);}.cls-241{fill:url(#未命名的渐变_3-44);}.cls-242{fill:url(#未命名的渐变_3-45);}.cls-243{fill:url(#未命名的渐变_3-46);}.cls-244{fill:url(#未命名的渐变_3-47);}.cls-245{fill:url(#未命名的渐变_3-48);}.cls-246{fill:url(#未命名的渐变_3-49);}.cls-247{fill:url(#未命名的渐变_3-50);}.cls-248{fill:url(#未命名的渐变_3-51);}.cls-249{fill:url(#未命名的渐变_3-52);}.cls-250{fill:url(#未命名的渐变_3-53);}.cls-251{fill:url(#未命名的渐变_3-54);}.cls-252{fill:url(#未命名的渐变_3-55);}.cls-253{fill:url(#未命名的渐变_3-56);}.cls-254{fill:url(#未命名的渐变_3-57);}.cls-255{fill:url(#未命名的渐变_3-58);}.cls-256{fill:url(#未命名的渐变_3-59);}.cls-257{fill:url(#未命名的渐变_3-60);}.cls-258{fill:url(#未命名的渐变_3-61);}.cls-259{fill:url(#未命名的渐变_3-62);}.cls-260{fill:url(#未命名的渐变_3-63);}.cls-261{fill:url(#未命名的渐变_3-64);}.cls-262{fill:url(#未命名的渐变_3-65);}.cls-263{fill:url(#未命名的渐变_3-66);}.cls-264{fill:url(#未命名的渐变_3-67);}.cls-265{fill:url(#未命名的渐变_3-68);}.cls-266{fill:url(#未命名的渐变_3-69);}.cls-267{fill:url(#未命名的渐变_3-70);}.cls-268{fill:url(#未命名的渐变_3-71);}.cls-269{fill:url(#未命名的渐变_3-72);}.cls-270{fill:url(#未命名的渐变_3-73);}.cls-271{fill:url(#未命名的渐变_3-74);}.cls-272{fill:url(#未命名的渐变_3-75);}.cls-273{fill:url(#未命名的渐变_3-76);}.cls-274{fill:url(#未命名的渐变_3-77);}.cls-275{fill:url(#未命名的渐变_3-78);}.cls-276{fill:url(#未命名的渐变_3-79);}.cls-277{fill:url(#未命名的渐变_3-80);}.cls-278{fill:url(#未命名的渐变_3-81);}.cls-279{fill:url(#未命名的渐变_3-82);}.cls-280{fill:url(#未命名的渐变_3-83);}.cls-281{fill:url(#未命名的渐变_3-84);}.cls-282{fill:url(#未命名的渐变_3-85);}.cls-283{fill:url(#未命名的渐变_3-86);}.cls-284{fill:url(#未命名的渐变_3-87);}.cls-285{fill:url(#未命名的渐变_3-88);}.cls-286{fill:url(#未命名的渐变_3-89);}.cls-287{fill:url(#未命名的渐变_3-90);}.cls-288{fill:url(#未命名的渐变_3-91);}.cls-289{fill:url(#未命名的渐变_3-92);}.cls-290{fill:url(#未命名的渐变_3-93);}.cls-291{fill:url(#未命名的渐变_3-94);}.cls-292{fill:url(#未命名的渐变_3-95);}.cls-293{fill:url(#未命名的渐变_3-96);}.cls-294{fill:url(#未命名的渐变_3-97);}.cls-295{fill:url(#未命名的渐变_3-98);}.cls-296{fill:#48d0ff;opacity:0.83;}</style><radialGradient id="radial-gradient" cx="2704.83" cy="11004.9" r="3562.44" gradientTransform="translate(544 -3692.27) scale(0.38)" gradientUnits="userSpaceOnUse"><stop offset="0.02" stop-color="#074f75"/><stop offset="0.11" stop-color="#06405f"/><stop offset="0.26" stop-color="#04293d"/><stop offset="0.41" stop-color="#021722"/><stop offset="0.57" stop-color="#010a0f"/><stop offset="0.73" stop-color="#000304"/><stop offset="0.91"/></radialGradient><radialGradient id="radial-gradient-2" cx="2704.83" cy="11004.51" r="3561.95" xlink:href="#radial-gradient"/><radialGradient id="radial-gradient-3" cx="2704.83" cy="11004.53" r="3561.97" xlink:href="#radial-gradient"/><radialGradient id="radial-gradient-4" cx="2704.83" cy="11004.54" r="3561.99" xlink:href="#radial-gradient"/><radialGradient id="radial-gradient-5" cx="2704.83" cy="11004.88" r="3562.43" xlink:href="#radial-gradient"/><radialGradient id="radial-gradient-6" cx="2704.83" cy="11004.57" r="3562.04" xlink:href="#radial-gradient"/><radialGradient id="radial-gradient-7" cx="2704.83" cy="11006.27" r="3564.11" xlink:href="#radial-gradient"/><radialGradient id="radial-gradient-8" cx="2704.83" cy="11004.6" r="3562.08" xlink:href="#radial-gradient"/><radialGradient id="radial-gradient-9" cx="2704.83" cy="11004.87" r="3562.41" xlink:href="#radial-gradient"/><radialGradient id="radial-gradient-10" cx="2704.83" cy="11006.03" r="3563.72" xlink:href="#radial-gradient"/><radialGradient id="radial-gradient-11" cx="2704.83" cy="11004.64" r="3562.16" xlink:href="#radial-gradient"/><radialGradient id="radial-gradient-12" cx="2704.83" cy="11004.66" r="3562.18" xlink:href="#radial-gradient"/><radialGradient id="radial-gradient-13" cx="2704.83" cy="11004.87" r="3562.4" xlink:href="#radial-gradient"/><radialGradient id="radial-gradient-14" cx="2704.83" cy="11004.71" r="3562.24" xlink:href="#radial-gradient"/><radialGradient id="radial-gradient-15" cx="2704.83" cy="11005.64" r="3563.08" xlink:href="#radial-gradient"/><radialGradient id="radial-gradient-16" cx="2704.83" cy="11004.72" r="3562.27" xlink:href="#radial-gradient"/><radialGradient id="radial-gradient-17" cx="2704.83" cy="11004.86" r="3562.39" xlink:href="#radial-gradient"/><radialGradient id="radial-gradient-18" cx="2704.83" cy="11004.75" r="3562.31" xlink:href="#radial-gradient"/><radialGradient id="radial-gradient-19" cx="2704.83" cy="11004.76" r="3562.32" xlink:href="#radial-gradient"/><radialGradient id="radial-gradient-20" cx="2704.83" cy="11004.78" r="3562.35" xlink:href="#radial-gradient"/><radialGradient id="radial-gradient-21" cx="2704.83" cy="11004.86" r="3562.39" xlink:href="#radial-gradient"/><radialGradient id="radial-gradient-22" cx="2704.83" cy="11004.81" r="3562.37" xlink:href="#radial-gradient"/><radialGradient id="radial-gradient-23" cx="2704.83" cy="11005.01" r="3562.41" xlink:href="#radial-gradient"/><radialGradient id="radial-gradient-24" cx="2704.83" cy="11004.84" r="3562.38" xlink:href="#radial-gradient"/><radialGradient id="radial-gradient-25" cx="2704.83" cy="11004.85" r="3562.38" xlink:href="#radial-gradient"/><radialGradient id="radial-gradient-26" cx="2704.83" cy="11004.87" r="3562.38" xlink:href="#radial-gradient"/><radialGradient id="radial-gradient-27" cx="2704.83" cy="11004.88" r="3562.37" xlink:href="#radial-gradient"/><radialGradient id="radial-gradient-28" cx="2704.83" cy="11004.89" r="3562.36" xlink:href="#radial-gradient"/><radialGradient id="radial-gradient-29" cx="2704.83" cy="11004.84" r="3562.39" xlink:href="#radial-gradient"/><radialGradient id="radial-gradient-30" cx="2704.83" cy="11004.92" r="3562.34" xlink:href="#radial-gradient"/><radialGradient id="radial-gradient-31" cx="2704.83" cy="11004.38" r="3562.66" xlink:href="#radial-gradient"/><radialGradient id="radial-gradient-32" cx="2704.83" cy="11004.95" r="3562.31" xlink:href="#radial-gradient"/><radialGradient id="radial-gradient-33" cx="2704.83" cy="11004.84" r="3562.39" xlink:href="#radial-gradient"/><radialGradient id="radial-gradient-34" cx="2704.83" cy="11004.98" r="3562.27" xlink:href="#radial-gradient"/><radialGradient id="radial-gradient-35" cx="2704.83" cy="11005" r="3562.24" xlink:href="#radial-gradient"/><radialGradient id="radial-gradient-36" cx="2704.83" cy="11003.98" r="3563.21" xlink:href="#radial-gradient"/><radialGradient id="radial-gradient-37" cx="2704.83" cy="11004.83" r="3562.4" xlink:href="#radial-gradient"/><radialGradient id="radial-gradient-38" cx="2704.83" cy="11005.04" r="3562.18" xlink:href="#radial-gradient"/><radialGradient id="radial-gradient-39" cx="2704.83" cy="11005.06" r="3562.16" xlink:href="#radial-gradient"/><radialGradient id="radial-gradient-40" cx="2704.83" cy="11005.07" r="3562.13" xlink:href="#radial-gradient"/><radialGradient id="radial-gradient-41" cx="2704.83" cy="11004.82" r="3562.42" xlink:href="#radial-gradient"/><radialGradient id="radial-gradient-42" cx="2704.83" cy="11005.1" r="3562.08" xlink:href="#radial-gradient"/><radialGradient id="radial-gradient-43" cx="2704.83" cy="11005.11" r="3562.06" xlink:href="#radial-gradient"/><radialGradient id="radial-gradient-44" cx="2704.83" cy="11003.35" r="3564.23" xlink:href="#radial-gradient"/><radialGradient id="radial-gradient-45" cx="2704.83" cy="11004.82" r="3562.42" xlink:href="#radial-gradient"/><radialGradient id="radial-gradient-46" cx="2704.83" cy="11005.16" r="3562" xlink:href="#radial-gradient"/><radialGradient id="radial-gradient-47" cx="2704.83" cy="11005.17" r="3561.97" xlink:href="#radial-gradient"/><radialGradient id="radial-gradient-48" cx="2704.83" cy="11005.19" r="3561.95" xlink:href="#radial-gradient"/><radialGradient id="radial-gradient-49" cx="2704.83" cy="11004.8" r="3562.45" xlink:href="#radial-gradient"/><radialGradient id="radial-gradient-50" cx="2704.83" cy="11004.33" r="3563.04" xlink:href="#radial-gradient"/><radialGradient id="radial-gradient-51" cx="2704.65" cy="11004.33" r="3562.84" xlink:href="#radial-gradient"/><radialGradient id="radial-gradient-52" cx="2704.78" cy="11004.33" r="3563.03" xlink:href="#radial-gradient"/><radialGradient id="radial-gradient-53" cx="2704.67" cy="11004.33" r="3562.92" xlink:href="#radial-gradient"/><radialGradient id="radial-gradient-54" cx="2704.84" cy="11004.33" r="3563.16" xlink:href="#radial-gradient"/><radialGradient id="radial-gradient-55" cx="2704.79" cy="11004.33" r="3563.14" xlink:href="#radial-gradient"/><radialGradient id="radial-gradient-56" cx="2704.69" cy="11004.33" r="3563.05" xlink:href="#radial-gradient"/><radialGradient id="radial-gradient-57" cx="2704.7" cy="11004.33" r="3563.09" xlink:href="#radial-gradient"/><radialGradient id="radial-gradient-58" cx="2704.86" cy="11004.33" r="3563.32" xlink:href="#radial-gradient"/><radialGradient id="radial-gradient-59" cx="2704.72" cy="11004.33" r="3563.19" xlink:href="#radial-gradient"/><radialGradient id="radial-gradient-60" cx="2706.06" cy="11004.33" r="3564.71" xlink:href="#radial-gradient"/><radialGradient id="radial-gradient-61" cx="2704.65" cy="11004.33" r="3563.21" xlink:href="#radial-gradient"/><radialGradient id="radial-gradient-62" cx="2704.81" cy="11004.33" r="3563.41" xlink:href="#radial-gradient"/><radialGradient id="radial-gradient-63" cx="2704.68" cy="11004.33" r="3563.32" xlink:href="#radial-gradient"/><radialGradient id="radial-gradient-64" cx="2704.75" cy="11004.33" r="3563.43" xlink:href="#radial-gradient"/><radialGradient id="radial-gradient-65" cx="2705.6" cy="11004.33" r="3564.17" xlink:href="#radial-gradient"/><radialGradient id="radial-gradient-66" cx="2704.84" cy="11004.33" r="3563.56" xlink:href="#radial-gradient"/><radialGradient id="radial-gradient-67" cx="2704.78" cy="11004.33" r="3563.56" xlink:href="#radial-gradient"/><radialGradient id="radial-gradient-68" cx="2704.75" cy="11004.33" r="3563.56" xlink:href="#radial-gradient"/><radialGradient id="radial-gradient-69" cx="2704.79" cy="11004.33" r="3563.62" xlink:href="#radial-gradient"/><radialGradient id="radial-gradient-70" cx="2704.83" cy="11004.33" r="3563.66" xlink:href="#radial-gradient"/><radialGradient id="radial-gradient-71" cx="2704.81" cy="11004.33" r="3563.66" xlink:href="#radial-gradient"/><radialGradient id="radial-gradient-72" cx="2704.82" cy="11004.33" r="3563.68" xlink:href="#radial-gradient"/><radialGradient id="radial-gradient-73" cx="2704.91" cy="11004.33" r="3563.69" xlink:href="#radial-gradient"/><radialGradient id="radial-gradient-74" cx="2704.83" cy="11004.33" r="3563.69" xlink:href="#radial-gradient"/><radialGradient id="radial-gradient-75" cx="2704.84" cy="11004.33" r="3563.69" xlink:href="#radial-gradient"/><radialGradient id="radial-gradient-76" cx="2704.85" cy="11004.33" r="3563.68" xlink:href="#radial-gradient"/><radialGradient id="radial-gradient-77" cx="2704.86" cy="11004.33" r="3563.66" xlink:href="#radial-gradient"/><radialGradient id="radial-gradient-78" cx="2704.83" cy="11004.33" r="3563.65" xlink:href="#radial-gradient"/><radialGradient id="radial-gradient-79" cx="2704.87" cy="11004.33" r="3563.61" xlink:href="#radial-gradient"/><radialGradient id="radial-gradient-80" cx="2704.84" cy="11004.33" r="3563.61" xlink:href="#radial-gradient"/><radialGradient id="radial-gradient-81" cx="2704.94" cy="11004.33" r="3563.51" xlink:href="#radial-gradient"/><radialGradient id="radial-gradient-82" cx="2704.85" cy="11004.33" r="3563.55" xlink:href="#radial-gradient"/><radialGradient id="radial-gradient-83" cx="2704.91" cy="11004.33" r="3563.46" xlink:href="#radial-gradient"/><radialGradient id="radial-gradient-84" cx="2704.91" cy="11004.33" r="3563.42" xlink:href="#radial-gradient"/><radialGradient id="radial-gradient-85" cx="2704.83" cy="11004.33" r="3563.46" xlink:href="#radial-gradient"/><radialGradient id="radial-gradient-86" cx="2704.83" cy="11004.33" r="3563.42" xlink:href="#radial-gradient"/><radialGradient id="radial-gradient-87" cx="2704.75" cy="11004.33" r="3563.49" xlink:href="#radial-gradient"/><radialGradient id="radial-gradient-88" cx="2704.83" cy="11004.33" r="3563.35" xlink:href="#radial-gradient"/><radialGradient id="radial-gradient-89" cx="2703.53" cy="11004.33" r="3564.81" xlink:href="#radial-gradient"/><radialGradient id="radial-gradient-90" cx="2704.84" cy="11004.33" r="3563.27" xlink:href="#radial-gradient"/><radialGradient id="radial-gradient-91" cx="2704.97" cy="11004.33" r="3563.09" xlink:href="#radial-gradient"/><radialGradient id="radial-gradient-92" cx="2704.83" cy="11004.33" r="3563.22" xlink:href="#radial-gradient"/><radialGradient id="radial-gradient-93" cx="2704.99" cy="11004.33" r="3563" xlink:href="#radial-gradient"/><radialGradient id="radial-gradient-94" cx="2704.83" cy="11004.33" r="3563.15" xlink:href="#radial-gradient"/><radialGradient id="radial-gradient-95" cx="2705" cy="11004.33" r="3562.91" xlink:href="#radial-gradient"/><radialGradient id="radial-gradient-96" cx="2705.01" cy="11004.33" r="3562.86" xlink:href="#radial-gradient"/><radialGradient id="radial-gradient-97" cx="2706.99" cy="11004.33" r="3560.33" xlink:href="#radial-gradient"/><radialGradient id="radial-gradient-98" cx="2704.84" cy="11004.33" r="3563.03" xlink:href="#radial-gradient"/><radialGradient id="radial-gradient-99" cx="4810.92" cy="11004.9" r="3562.44" xlink:href="#radial-gradient"/><radialGradient id="radial-gradient-100" cx="4810.92" cy="11004.51" r="3561.95" xlink:href="#radial-gradient"/><radialGradient id="radial-gradient-101" cx="4810.92" cy="11004.53" r="3561.97" xlink:href="#radial-gradient"/><radialGradient id="radial-gradient-102" cx="4810.92" cy="11004.54" r="3561.99" xlink:href="#radial-gradient"/><radialGradient id="radial-gradient-103" cx="4810.92" cy="11004.88" r="3562.43" xlink:href="#radial-gradient"/><radialGradient id="radial-gradient-104" cx="4810.92" cy="11004.57" r="3562.04" xlink:href="#radial-gradient"/><radialGradient id="radial-gradient-105" cx="4810.92" cy="11006.27" r="3564.11" xlink:href="#radial-gradient"/><radialGradient id="radial-gradient-106" cx="4810.92" cy="11004.6" r="3562.08" xlink:href="#radial-gradient"/><radialGradient id="radial-gradient-107" cx="4810.92" cy="11004.87" r="3562.41" xlink:href="#radial-gradient"/><radialGradient id="radial-gradient-108" cx="4810.92" cy="11006.03" r="3563.72" xlink:href="#radial-gradient"/><radialGradient id="radial-gradient-109" cx="4810.92" cy="11004.64" r="3562.16" xlink:href="#radial-gradient"/><radialGradient id="radial-gradient-110" cx="4810.92" cy="11004.66" r="3562.18" xlink:href="#radial-gradient"/><radialGradient id="radial-gradient-111" cx="4810.92" cy="11004.87" r="3562.4" xlink:href="#radial-gradient"/><radialGradient id="radial-gradient-112" cx="4810.92" cy="11004.71" r="3562.24" xlink:href="#radial-gradient"/><radialGradient id="radial-gradient-113" cx="4810.92" cy="11005.64" r="3563.08" xlink:href="#radial-gradient"/><radialGradient id="radial-gradient-114" cx="4810.92" cy="11004.72" r="3562.27" xlink:href="#radial-gradient"/><radialGradient id="radial-gradient-115" cx="4810.92" cy="11004.86" r="3562.39" xlink:href="#radial-gradient"/><radialGradient id="radial-gradient-116" cx="4810.92" cy="11004.75" r="3562.31" xlink:href="#radial-gradient"/><radialGradient id="radial-gradient-117" cx="4810.92" cy="11004.76" r="3562.32" xlink:href="#radial-gradient"/><radialGradient id="radial-gradient-118" cx="4810.92" cy="11004.78" r="3562.35" xlink:href="#radial-gradient"/><radialGradient id="radial-gradient-119" cx="4810.92" cy="11004.86" r="3562.39" xlink:href="#radial-gradient"/><radialGradient id="radial-gradient-120" cx="4810.92" cy="11004.81" r="3562.37" xlink:href="#radial-gradient"/><radialGradient id="radial-gradient-121" cx="4810.92" cy="11005.01" r="3562.41" xlink:href="#radial-gradient"/><radialGradient id="radial-gradient-122" cx="4810.92" cy="11004.84" r="3562.38" xlink:href="#radial-gradient"/><radialGradient id="radial-gradient-123" cx="4810.92" cy="11004.85" r="3562.38" xlink:href="#radial-gradient"/><radialGradient id="radial-gradient-124" cx="4810.92" cy="11004.87" r="3562.38" xlink:href="#radial-gradient"/><radialGradient id="radial-gradient-125" cx="4810.92" cy="11004.88" r="3562.37" xlink:href="#radial-gradient"/><radialGradient id="radial-gradient-126" cx="4810.92" cy="11004.89" r="3562.36" xlink:href="#radial-gradient"/><radialGradient id="radial-gradient-127" cx="4810.92" cy="11004.84" r="3562.39" xlink:href="#radial-gradient"/><radialGradient id="radial-gradient-128" cx="4810.92" cy="11004.92" r="3562.34" xlink:href="#radial-gradient"/><radialGradient id="radial-gradient-129" cx="4810.92" cy="11004.38" r="3562.66" xlink:href="#radial-gradient"/><radialGradient id="radial-gradient-130" cx="4810.92" cy="11004.95" r="3562.31" xlink:href="#radial-gradient"/><radialGradient id="radial-gradient-131" cx="4810.92" cy="11004.84" r="3562.39" xlink:href="#radial-gradient"/><radialGradient id="radial-gradient-132" cx="4810.92" cy="11004.98" r="3562.27" xlink:href="#radial-gradient"/><radialGradient id="radial-gradient-133" cx="4810.92" cy="11005" r="3562.24" xlink:href="#radial-gradient"/><radialGradient id="radial-gradient-134" cx="4810.92" cy="11003.98" r="3563.21" xlink:href="#radial-gradient"/><radialGradient id="radial-gradient-135" cx="4810.92" cy="11004.83" r="3562.4" xlink:href="#radial-gradient"/><radialGradient id="radial-gradient-136" cx="4810.92" cy="11005.04" r="3562.18" xlink:href="#radial-gradient"/><radialGradient id="radial-gradient-137" cx="4810.92" cy="11005.06" r="3562.16" xlink:href="#radial-gradient"/><radialGradient id="radial-gradient-138" cx="4810.92" cy="11005.07" r="3562.13" xlink:href="#radial-gradient"/><radialGradient id="radial-gradient-139" cx="4810.92" cy="11004.82" r="3562.42" xlink:href="#radial-gradient"/><radialGradient id="radial-gradient-140" cx="4810.92" cy="11005.1" r="3562.08" xlink:href="#radial-gradient"/><radialGradient id="radial-gradient-141" cx="4810.92" cy="11005.11" r="3562.06" xlink:href="#radial-gradient"/><radialGradient id="radial-gradient-142" cx="4810.92" cy="11003.35" r="3564.23" xlink:href="#radial-gradient"/><radialGradient id="radial-gradient-143" cx="4810.92" cy="11004.82" r="3562.42" xlink:href="#radial-gradient"/><radialGradient id="radial-gradient-144" cx="4810.92" cy="11005.16" r="3562" xlink:href="#radial-gradient"/><radialGradient id="radial-gradient-145" cx="4810.92" cy="11005.17" r="3561.97" xlink:href="#radial-gradient"/><radialGradient id="radial-gradient-146" cx="4810.92" cy="11005.19" r="3561.95" xlink:href="#radial-gradient"/><radialGradient id="radial-gradient-147" cx="4810.92" cy="11004.8" r="3562.45" xlink:href="#radial-gradient"/><radialGradient id="radial-gradient-148" cx="4810.91" cy="11004.33" r="3563.04" xlink:href="#radial-gradient"/><radialGradient id="radial-gradient-149" cx="4810.74" cy="11004.33" r="3562.84" xlink:href="#radial-gradient"/><radialGradient id="radial-gradient-150" cx="4810.87" cy="11004.33" r="3563.03" xlink:href="#radial-gradient"/><radialGradient id="radial-gradient-151" cx="4810.75" cy="11004.33" r="3562.92" xlink:href="#radial-gradient"/><radialGradient id="radial-gradient-152" cx="4810.92" cy="11004.33" r="3563.16" xlink:href="#radial-gradient"/><radialGradient id="radial-gradient-153" cx="4810.88" cy="11004.33" r="3563.14" xlink:href="#radial-gradient"/><radialGradient id="radial-gradient-154" cx="4810.78" cy="11004.33" r="3563.05" xlink:href="#radial-gradient"/><radialGradient id="radial-gradient-155" cx="4810.78" cy="11004.33" r="3563.09" xlink:href="#radial-gradient"/><radialGradient id="radial-gradient-156" cx="4810.94" cy="11004.33" r="3563.32" xlink:href="#radial-gradient"/><radialGradient id="radial-gradient-157" cx="4810.8" cy="11004.33" r="3563.19" xlink:href="#radial-gradient"/><radialGradient id="radial-gradient-158" cx="4812.14" cy="11004.33" r="3564.71" xlink:href="#radial-gradient"/><radialGradient id="radial-gradient-159" cx="4810.73" cy="11004.33" r="3563.21" xlink:href="#radial-gradient"/><radialGradient id="radial-gradient-160" cx="4810.9" cy="11004.33" r="3563.41" xlink:href="#radial-gradient"/><radialGradient id="radial-gradient-161" cx="4810.76" cy="11004.33" r="3563.32" xlink:href="#radial-gradient"/><radialGradient id="radial-gradient-162" cx="4810.84" cy="11004.33" r="3563.43" xlink:href="#radial-gradient"/><radialGradient id="radial-gradient-163" cx="4811.69" cy="11004.33" r="3564.17" xlink:href="#radial-gradient"/><radialGradient id="radial-gradient-164" cx="4810.92" cy="11004.33" r="3563.56" xlink:href="#radial-gradient"/><radialGradient id="radial-gradient-165" cx="4810.86" cy="11004.33" r="3563.56" xlink:href="#radial-gradient"/><radialGradient id="radial-gradient-166" cx="4810.83" cy="11004.33" r="3563.56" xlink:href="#radial-gradient"/><radialGradient id="radial-gradient-167" cx="4810.88" cy="11004.33" r="3563.62" xlink:href="#radial-gradient"/><radialGradient id="radial-gradient-168" cx="4810.92" cy="11004.33" r="3563.66" xlink:href="#radial-gradient"/><radialGradient id="radial-gradient-169" cx="4810.9" cy="11004.33" r="3563.66" xlink:href="#radial-gradient"/><radialGradient id="radial-gradient-170" cx="4810.9" cy="11004.33" r="3563.68" xlink:href="#radial-gradient"/><radialGradient id="radial-gradient-171" cx="4811" cy="11004.33" r="3563.69" xlink:href="#radial-gradient"/><radialGradient id="radial-gradient-172" cx="4810.92" cy="11004.33" r="3563.69" xlink:href="#radial-gradient"/><radialGradient id="radial-gradient-173" cx="4810.93" cy="11004.33" r="3563.69" xlink:href="#radial-gradient"/><radialGradient id="radial-gradient-174" cx="4810.94" cy="11004.33" r="3563.68" xlink:href="#radial-gradient"/><radialGradient id="radial-gradient-175" cx="4810.94" cy="11004.33" r="3563.66" xlink:href="#radial-gradient"/><radialGradient id="radial-gradient-176" cx="4810.92" cy="11004.33" r="3563.65" xlink:href="#radial-gradient"/><radialGradient id="radial-gradient-177" cx="4810.96" cy="11004.33" r="3563.61" xlink:href="#radial-gradient"/><radialGradient id="radial-gradient-178" cx="4810.92" cy="11004.33" r="3563.61" xlink:href="#radial-gradient"/><radialGradient id="radial-gradient-179" cx="4811.03" cy="11004.33" r="3563.51" xlink:href="#radial-gradient"/><radialGradient id="radial-gradient-180" cx="4810.93" cy="11004.33" r="3563.55" xlink:href="#radial-gradient"/><radialGradient id="radial-gradient-181" cx="4810.99" cy="11004.33" r="3563.46" xlink:href="#radial-gradient"/><radialGradient id="radial-gradient-182" cx="4811" cy="11004.33" r="3563.42" xlink:href="#radial-gradient"/><radialGradient id="radial-gradient-183" cx="4810.92" cy="11004.33" r="3563.46" xlink:href="#radial-gradient"/><radialGradient id="radial-gradient-184" cx="4810.91" cy="11004.33" r="3563.42" xlink:href="#radial-gradient"/><radialGradient id="radial-gradient-185" cx="4810.84" cy="11004.33" r="3563.49" xlink:href="#radial-gradient"/><radialGradient id="radial-gradient-186" cx="4810.92" cy="11004.33" r="3563.35" xlink:href="#radial-gradient"/><radialGradient id="radial-gradient-187" cx="4809.62" cy="11004.33" r="3564.81" xlink:href="#radial-gradient"/><radialGradient id="radial-gradient-188" cx="4810.92" cy="11004.33" r="3563.27" xlink:href="#radial-gradient"/><radialGradient id="radial-gradient-189" cx="4811.05" cy="11004.33" r="3563.09" xlink:href="#radial-gradient"/><radialGradient id="radial-gradient-190" cx="4810.91" cy="11004.33" r="3563.22" xlink:href="#radial-gradient"/><radialGradient id="radial-gradient-191" cx="4811.07" cy="11004.33" r="3563" xlink:href="#radial-gradient"/><radialGradient id="radial-gradient-192" cx="4810.91" cy="11004.33" r="3563.15" xlink:href="#radial-gradient"/><radialGradient id="radial-gradient-193" cx="4811.09" cy="11004.33" r="3562.91" xlink:href="#radial-gradient"/><radialGradient id="radial-gradient-194" cx="4811.09" cy="11004.33" r="3562.86" xlink:href="#radial-gradient"/><radialGradient id="radial-gradient-195" cx="4813.08" cy="11004.33" r="3560.33" xlink:href="#radial-gradient"/><radialGradient id="radial-gradient-196" cx="4810.92" cy="11004.33" r="3563.03" xlink:href="#radial-gradient"/><radialGradient id="未命名的渐变_3" cx="601.35" cy="11004.9" r="3562.44" xlink:href="#radial-gradient"/><radialGradient id="未命名的渐变_3-2" cx="601.35" cy="11004.51" r="3561.95" xlink:href="#radial-gradient"/><radialGradient id="未命名的渐变_3-3" cx="601.35" cy="11004.53" r="3561.97" xlink:href="#radial-gradient"/><radialGradient id="未命名的渐变_3-4" cx="601.35" cy="11004.54" r="3561.99" xlink:href="#radial-gradient"/><radialGradient id="未命名的渐变_3-5" cx="601.35" cy="11004.88" r="3562.43" xlink:href="#radial-gradient"/><radialGradient id="未命名的渐变_3-6" cx="601.35" cy="11004.57" r="3562.04" xlink:href="#radial-gradient"/><radialGradient id="未命名的渐变_3-7" cx="601.35" cy="11006.27" r="3564.11" xlink:href="#radial-gradient"/><radialGradient id="未命名的渐变_3-8" cx="601.35" cy="11004.6" r="3562.08" xlink:href="#radial-gradient"/><radialGradient id="未命名的渐变_3-9" cx="601.35" cy="11004.87" r="3562.41" xlink:href="#radial-gradient"/><radialGradient id="未命名的渐变_3-10" cx="601.35" cy="11006.03" r="3563.72" xlink:href="#radial-gradient"/><radialGradient id="未命名的渐变_3-11" cx="601.35" cy="11004.64" r="3562.16" xlink:href="#radial-gradient"/><radialGradient id="未命名的渐变_3-12" cx="601.35" cy="11004.66" r="3562.18" xlink:href="#radial-gradient"/><radialGradient id="未命名的渐变_3-13" cx="601.35" cy="11004.87" r="3562.4" xlink:href="#radial-gradient"/><radialGradient id="未命名的渐变_3-14" cx="601.35" cy="11004.71" r="3562.24" xlink:href="#radial-gradient"/><radialGradient id="未命名的渐变_3-15" cx="601.35" cy="11005.64" r="3563.08" xlink:href="#radial-gradient"/><radialGradient id="未命名的渐变_3-16" cx="601.35" cy="11004.72" r="3562.27" xlink:href="#radial-gradient"/><radialGradient id="未命名的渐变_3-17" cx="601.35" cy="11004.86" r="3562.39" xlink:href="#radial-gradient"/><radialGradient id="未命名的渐变_3-18" cx="601.35" cy="11004.75" r="3562.31" xlink:href="#radial-gradient"/><radialGradient id="未命名的渐变_3-19" cx="601.35" cy="11004.76" r="3562.32" xlink:href="#radial-gradient"/><radialGradient id="未命名的渐变_3-20" cx="601.35" cy="11004.78" r="3562.35" xlink:href="#radial-gradient"/><radialGradient id="未命名的渐变_3-21" cx="601.35" cy="11004.86" r="3562.39" xlink:href="#radial-gradient"/><radialGradient id="未命名的渐变_3-22" cx="601.35" cy="11004.81" r="3562.37" xlink:href="#radial-gradient"/><radialGradient id="未命名的渐变_3-23" cx="601.35" cy="11005.01" r="3562.41" xlink:href="#radial-gradient"/><radialGradient id="未命名的渐变_3-24" cx="601.35" cy="11004.84" r="3562.38" xlink:href="#radial-gradient"/><radialGradient id="未命名的渐变_3-25" cx="601.35" cy="11004.85" r="3562.38" xlink:href="#radial-gradient"/><radialGradient id="未命名的渐变_3-26" cx="601.35" cy="11004.87" r="3562.38" xlink:href="#radial-gradient"/><radialGradient id="未命名的渐变_3-27" cx="601.35" cy="11004.88" r="3562.37" xlink:href="#radial-gradient"/><radialGradient id="未命名的渐变_3-28" cx="601.35" cy="11004.89" r="3562.36" xlink:href="#radial-gradient"/><radialGradient id="未命名的渐变_3-29" cx="601.35" cy="11004.84" r="3562.39" xlink:href="#radial-gradient"/><radialGradient id="未命名的渐变_3-30" cx="601.35" cy="11004.92" r="3562.34" xlink:href="#radial-gradient"/><radialGradient id="未命名的渐变_3-31" cx="601.35" cy="11004.38" r="3562.66" xlink:href="#radial-gradient"/><radialGradient id="未命名的渐变_3-32" cx="601.35" cy="11004.95" r="3562.31" xlink:href="#radial-gradient"/><radialGradient id="未命名的渐变_3-33" cx="601.35" cy="11004.84" r="3562.39" xlink:href="#radial-gradient"/><radialGradient id="未命名的渐变_3-34" cx="601.35" cy="11004.98" r="3562.27" xlink:href="#radial-gradient"/><radialGradient id="未命名的渐变_3-35" cx="601.35" cy="11005" r="3562.24" xlink:href="#radial-gradient"/><radialGradient id="未命名的渐变_3-36" cx="601.35" cy="11003.98" r="3563.21" xlink:href="#radial-gradient"/><radialGradient id="未命名的渐变_3-37" cx="601.35" cy="11004.83" r="3562.4" xlink:href="#radial-gradient"/><radialGradient id="未命名的渐变_3-38" cx="601.35" cy="11005.04" r="3562.18" xlink:href="#radial-gradient"/><radialGradient id="未命名的渐变_3-39" cx="601.35" cy="11005.06" r="3562.16" xlink:href="#radial-gradient"/><radialGradient id="未命名的渐变_3-40" cx="601.35" cy="11005.07" r="3562.13" xlink:href="#radial-gradient"/><radialGradient id="未命名的渐变_3-41" cx="601.35" cy="11004.82" r="3562.42" xlink:href="#radial-gradient"/><radialGradient id="未命名的渐变_3-42" cx="601.35" cy="11005.1" r="3562.08" xlink:href="#radial-gradient"/><radialGradient id="未命名的渐变_3-43" cx="601.35" cy="11005.11" r="3562.06" xlink:href="#radial-gradient"/><radialGradient id="未命名的渐变_3-44" cx="601.35" cy="11003.35" r="3564.23" xlink:href="#radial-gradient"/><radialGradient id="未命名的渐变_3-45" cx="601.35" cy="11004.82" r="3562.42" xlink:href="#radial-gradient"/><radialGradient id="未命名的渐变_3-46" cx="601.35" cy="11005.16" r="3562" xlink:href="#radial-gradient"/><radialGradient id="未命名的渐变_3-47" cx="601.35" cy="11005.17" r="3561.97" xlink:href="#radial-gradient"/><radialGradient id="未命名的渐变_3-48" cx="601.35" cy="11005.19" r="3561.95" xlink:href="#radial-gradient"/><radialGradient id="未命名的渐变_3-49" cx="601.35" cy="11004.8" r="3562.45" xlink:href="#radial-gradient"/><radialGradient id="未命名的渐变_3-50" cx="601.35" cy="11004.33" r="3563.04" xlink:href="#radial-gradient"/><radialGradient id="未命名的渐变_3-51" cx="601.17" cy="11004.33" r="3562.84" xlink:href="#radial-gradient"/><radialGradient id="未命名的渐变_3-52" cx="601.3" cy="11004.33" r="3563.03" xlink:href="#radial-gradient"/><radialGradient id="未命名的渐变_3-53" cx="601.18" cy="11004.33" r="3562.92" xlink:href="#radial-gradient"/><radialGradient id="未命名的渐变_3-54" cx="601.35" cy="11004.33" r="3563.16" xlink:href="#radial-gradient"/><radialGradient id="未命名的渐变_3-55" cx="601.31" cy="11004.33" r="3563.14" xlink:href="#radial-gradient"/><radialGradient id="未命名的渐变_3-56" cx="601.21" cy="11004.33" r="3563.05" xlink:href="#radial-gradient"/><radialGradient id="未命名的渐变_3-57" cx="601.21" cy="11004.33" r="3563.09" xlink:href="#radial-gradient"/><radialGradient id="未命名的渐变_3-58" cx="601.37" cy="11004.33" r="3563.32" xlink:href="#radial-gradient"/><radialGradient id="未命名的渐变_3-59" cx="601.23" cy="11004.33" r="3563.19" xlink:href="#radial-gradient"/><radialGradient id="未命名的渐变_3-60" cx="602.58" cy="11004.33" r="3564.71" xlink:href="#radial-gradient"/><radialGradient id="未命名的渐变_3-61" cx="601.17" cy="11004.33" r="3563.21" xlink:href="#radial-gradient"/><radialGradient id="未命名的渐变_3-62" cx="601.33" cy="11004.33" r="3563.41" xlink:href="#radial-gradient"/><radialGradient id="未命名的渐变_3-63" cx="601.19" cy="11004.33" r="3563.32" xlink:href="#radial-gradient"/><radialGradient id="未命名的渐变_3-64" cx="601.27" cy="11004.33" r="3563.43" xlink:href="#radial-gradient"/><radialGradient id="未命名的渐变_3-65" cx="602.12" cy="11004.33" r="3564.17" xlink:href="#radial-gradient"/><radialGradient id="未命名的渐变_3-66" cx="601.35" cy="11004.33" r="3563.56" xlink:href="#radial-gradient"/><radialGradient id="未命名的渐变_3-67" cx="601.29" cy="11004.33" r="3563.56" xlink:href="#radial-gradient"/><radialGradient id="未命名的渐变_3-68" cx="601.26" cy="11004.33" r="3563.56" xlink:href="#radial-gradient"/><radialGradient id="未命名的渐变_3-69" cx="601.31" cy="11004.33" r="3563.62" xlink:href="#radial-gradient"/><radialGradient id="未命名的渐变_3-70" cx="601.35" cy="11004.33" r="3563.66" xlink:href="#radial-gradient"/><radialGradient id="未命名的渐变_3-71" cx="601.33" cy="11004.33" r="3563.66" xlink:href="#radial-gradient"/><radialGradient id="未命名的渐变_3-72" cx="601.33" cy="11004.33" r="3563.68" xlink:href="#radial-gradient"/><radialGradient id="未命名的渐变_3-73" cx="601.43" cy="11004.33" r="3563.69" xlink:href="#radial-gradient"/><radialGradient id="未命名的渐变_3-74" cx="601.35" cy="11004.33" r="3563.69" xlink:href="#radial-gradient"/><radialGradient id="未命名的渐变_3-75" cx="601.36" cy="11004.33" r="3563.69" xlink:href="#radial-gradient"/><radialGradient id="未命名的渐变_3-76" cx="601.37" cy="11004.33" r="3563.68" xlink:href="#radial-gradient"/><radialGradient id="未命名的渐变_3-77" cx="601.37" cy="11004.33" r="3563.66" xlink:href="#radial-gradient"/><radialGradient id="未命名的渐变_3-78" cx="601.35" cy="11004.33" r="3563.65" xlink:href="#radial-gradient"/><radialGradient id="未命名的渐变_3-79" cx="601.39" cy="11004.33" r="3563.61" xlink:href="#radial-gradient"/><radialGradient id="未命名的渐变_3-80" cx="601.35" cy="11004.33" r="3563.61" xlink:href="#radial-gradient"/><radialGradient id="未命名的渐变_3-81" cx="601.46" cy="11004.33" r="3563.51" xlink:href="#radial-gradient"/><radialGradient id="未命名的渐变_3-82" cx="601.36" cy="11004.33" r="3563.55" xlink:href="#radial-gradient"/><radialGradient id="未命名的渐变_3-83" cx="601.42" cy="11004.33" r="3563.46" xlink:href="#radial-gradient"/><radialGradient id="未命名的渐变_3-84" cx="601.43" cy="11004.33" r="3563.42" xlink:href="#radial-gradient"/><radialGradient id="未命名的渐变_3-85" cx="601.35" cy="11004.33" r="3563.46" xlink:href="#radial-gradient"/><radialGradient id="未命名的渐变_3-86" cx="601.35" cy="11004.33" r="3563.42" xlink:href="#radial-gradient"/><radialGradient id="未命名的渐变_3-87" cx="601.27" cy="11004.33" r="3563.49" xlink:href="#radial-gradient"/><radialGradient id="未命名的渐变_3-88" cx="601.35" cy="11004.33" r="3563.35" xlink:href="#radial-gradient"/><radialGradient id="未命名的渐变_3-89" cx="600.05" cy="11004.33" r="3564.81" xlink:href="#radial-gradient"/><radialGradient id="未命名的渐变_3-90" cx="601.35" cy="11004.33" r="3563.27" xlink:href="#radial-gradient"/><radialGradient id="未命名的渐变_3-91" cx="601.49" cy="11004.33" r="3563.09" xlink:href="#radial-gradient"/><radialGradient id="未命名的渐变_3-92" cx="601.34" cy="11004.33" r="3563.22" xlink:href="#radial-gradient"/><radialGradient id="未命名的渐变_3-93" cx="601.5" cy="11004.33" r="3563" xlink:href="#radial-gradient"/><radialGradient id="未命名的渐变_3-94" cx="601.34" cy="11004.33" r="3563.15" xlink:href="#radial-gradient"/><radialGradient id="未命名的渐变_3-95" cx="601.52" cy="11004.33" r="3562.91" xlink:href="#radial-gradient"/><radialGradient id="未命名的渐变_3-96" cx="601.53" cy="11004.33" r="3562.86" xlink:href="#radial-gradient"/><radialGradient id="未命名的渐变_3-97" cx="603.51" cy="11004.33" r="3560.33" xlink:href="#radial-gradient"/><radialGradient id="未命名的渐变_3-98" cx="601.36" cy="11004.33" r="3563.03" xlink:href="#radial-gradient"/></defs><title>网格</title><g class="cls-1"><path class="cls-2" d="M2125.11,1.9H1047a1,1,0,0,1,0-1.9h1078.1a1,1,0,0,1,0,1.9Z"/><path class="cls-3" d="M2125.11,23.66H1047a.24.24,0,0,1-.24-.24.24.24,0,0,1,.24-.25h1078.1a.25.25,0,0,1,0,.49Z"/><path class="cls-4" d="M2125.11,46.12H1047a.24.24,0,0,1-.24-.25.24.24,0,0,1,.24-.24h1078.1a.25.25,0,0,1,0,.49Z"/><path class="cls-5" d="M2125.11,68.58H1047a.24.24,0,0,1-.24-.25.24.24,0,0,1,.24-.24h1078.1a.25.25,0,0,1,0,.49Z"/><path class="cls-6" d="M2125.11,91.74H1047a.95.95,0,0,1,0-1.9h1078.1a.95.95,0,0,1,0,1.9Z"/><path class="cls-7" d="M2125.11,113.5H1047a.24.24,0,0,1-.24-.25.25.25,0,0,1,.24-.25h1078.1a.25.25,0,0,1,.24.25A.25.25,0,0,1,2125.11,113.5Z"/><path class="cls-8" d="M2125.11,136H1047a.24.24,0,0,1-.24-.24.24.24,0,0,1,.24-.25h1078.1a.25.25,0,0,1,0,.49Z"/><path class="cls-9" d="M2125.11,158.43H1047a.24.24,0,0,1-.24-.25.25.25,0,0,1,.24-.25h1078.1a.25.25,0,0,1,.24.25A.25.25,0,0,1,2125.11,158.43Z"/><path class="cls-10" d="M2125.11,181.59H1047a1,1,0,0,1,0-1.91h1078.1a1,1,0,0,1,0,1.91Z"/><path class="cls-11" d="M2125.11,203.34H1047a.24.24,0,0,1-.24-.24.24.24,0,0,1,.24-.25h1078.1a.25.25,0,0,1,0,.49Z"/><path class="cls-12" d="M2125.11,225.81H1047a.25.25,0,0,1,0-.5h1078.1a.25.25,0,0,1,0,.5Z"/><path class="cls-13" d="M2125.11,248.26H1047a.24.24,0,0,1-.24-.24.24.24,0,0,1,.24-.25h1078.1a.25.25,0,0,1,0,.49Z"/><path class="cls-14" d="M2125.11,271.43H1047a.95.95,0,0,1,0-1.9h1078.1a1,1,0,1,1,0,1.9Z"/><path class="cls-15" d="M2125.11,293.18H1047a.24.24,0,0,1-.24-.24.24.24,0,0,1,.24-.25h1078.1a.25.25,0,0,1,0,.49Z"/><path class="cls-16" d="M2125.11,315.64H1047a.24.24,0,0,1-.24-.24.24.24,0,0,1,.24-.25h1078.1a.25.25,0,0,1,0,.49Z"/><path class="cls-17" d="M2125.11,338.11H1047a.25.25,0,0,1,0-.5h1078.1a.25.25,0,0,1,0,.5Z"/><path class="cls-18" d="M2125.11,361.27H1047a1,1,0,0,1,0-1.91h1078.1a1,1,0,0,1,0,1.91Z"/><path class="cls-19" d="M2125.11,383H1047a.24.24,0,0,1-.24-.25.25.25,0,0,1,.24-.25h1078.1a.25.25,0,0,1,.24.25A.25.25,0,0,1,2125.11,383Z"/><path class="cls-20" d="M2125.11,405.49H1047a.24.24,0,0,1-.24-.25.24.24,0,0,1,.24-.24h1078.1a.25.25,0,0,1,0,.49Z"/><path class="cls-21" d="M2125.11,428H1047a.25.25,0,0,1,0-.5h1078.1a.25.25,0,0,1,0,.5Z"/><path class="cls-22" d="M2125.11,451.11H1047a.95.95,0,0,1,0-1.9h1078.1a1,1,0,1,1,0,1.9Z"/><path class="cls-23" d="M2125.11,472.87H1047a.24.24,0,0,1-.24-.24.24.24,0,0,1,.24-.25h1078.1a.25.25,0,0,1,0,.49Z"/><path class="cls-24" d="M2125.11,495.33H1047a.24.24,0,0,1-.24-.25.25.25,0,0,1,.24-.25h1078.1a.25.25,0,0,1,.24.25A.25.25,0,0,1,2125.11,495.33Z"/><path class="cls-25" d="M2125.11,517.79H1047a.24.24,0,0,1-.24-.24.24.24,0,0,1,.24-.25h1078.1a.25.25,0,0,1,0,.49Z"/><path class="cls-26" d="M2125.11,541H1047a1,1,0,1,1,0-1.9h1078.1a1,1,0,1,1,0,1.9Z"/><path class="cls-27" d="M2125.11,562.71H1047a.24.24,0,0,1-.24-.25.24.24,0,0,1,.24-.24h1078.1a.25.25,0,0,1,0,.49Z"/><path class="cls-28" d="M2125.11,585.17H1047a.24.24,0,0,1-.24-.24.24.24,0,0,1,.24-.25h1078.1a.25.25,0,0,1,0,.49Z"/><path class="cls-29" d="M2125.11,607.63H1047a.24.24,0,0,1-.24-.25.24.24,0,0,1,.24-.24h1078.1a.25.25,0,0,1,0,.49Z"/><path class="cls-30" d="M2125.11,630.79H1047a1,1,0,1,1,0-1.9h1078.1a1,1,0,1,1,0,1.9Z"/><path class="cls-31" d="M2125.11,652.55H1047a.24.24,0,0,1-.24-.24.24.24,0,0,1,.24-.25h1078.1a.25.25,0,0,1,0,.49Z"/><path class="cls-32" d="M2125.11,675H1047a.24.24,0,0,1-.24-.25.24.24,0,0,1,.24-.24h1078.1a.25.25,0,0,1,0,.49Z"/><path class="cls-33" d="M2125.11,697.47H1047a.24.24,0,0,1-.24-.24.24.24,0,0,1,.24-.25h1078.1a.25.25,0,0,1,0,.49Z"/><path class="cls-34" d="M2125.11,720.63H1047a1,1,0,0,1,0-1.9h1078.1a.95.95,0,0,1,0,1.9Z"/><path class="cls-35" d="M2125.11,742.39H1047a.24.24,0,0,1-.24-.25.24.24,0,0,1,.24-.24h1078.1a.25.25,0,0,1,0,.49Z"/><path class="cls-36" d="M2125.11,764.85H1047a.24.24,0,0,1-.24-.24.24.24,0,0,1,.24-.25h1078.1a.25.25,0,0,1,0,.49Z"/><path class="cls-37" d="M2125.11,787.32H1047a.25.25,0,0,1,0-.5h1078.1a.25.25,0,0,1,0,.5Z"/><path class="cls-38" d="M2125.11,810.48H1047a1,1,0,0,1,0-1.9h1078.1a.95.95,0,0,1,0,1.9Z"/><path class="cls-39" d="M2125.11,832.24H1047a.25.25,0,0,1,0-.5h1078.1a.25.25,0,0,1,0,.5Z"/><path class="cls-40" d="M2125.11,854.7H1047a.24.24,0,0,1-.24-.25.24.24,0,0,1,.24-.24h1078.1a.25.25,0,0,1,0,.49Z"/><path class="cls-41" d="M2125.11,877.16H1047a.25.25,0,0,1,0-.5h1078.1a.25.25,0,0,1,0,.5Z"/><path class="cls-42" d="M2125.11,900.31H1047a1,1,0,0,1-1-.94,1,1,0,0,1,1-1h1078.1a1,1,0,0,1,.95,1A1,1,0,0,1,2125.11,900.31Z"/><path class="cls-43" d="M2125.11,922.07H1047a.24.24,0,0,1-.24-.24.24.24,0,0,1,.24-.25h1078.1a.25.25,0,0,1,0,.49Z"/><path class="cls-44" d="M2125.11,944.54H1047a.24.24,0,0,1-.24-.25.24.24,0,0,1,.24-.24h1078.1a.25.25,0,0,1,0,.49Z"/><path class="cls-45" d="M2125.11,967H1047a.24.24,0,0,1-.24-.24.24.24,0,0,1,.24-.25h1078.1a.25.25,0,0,1,0,.49Z"/><path class="cls-46" d="M2125.11,990.16H1047a1,1,0,1,1,0-1.9h1078.1a1,1,0,1,1,0,1.9Z"/><path class="cls-47" d="M2125.11,1011.92H1047a.24.24,0,0,1-.24-.25.24.24,0,0,1,.24-.24h1078.1a.25.25,0,0,1,0,.49Z"/><path class="cls-48" d="M2125.11,1034.38H1047a.25.25,0,0,1-.24-.25.24.24,0,0,1,.24-.25h1078.1a.25.25,0,0,1,.24.25A.25.25,0,0,1,2125.11,1034.38Z"/><path class="cls-49" d="M2125.11,1056.83H1047a.24.24,0,0,1-.24-.25.24.24,0,0,1,.24-.24h1078.1a.25.25,0,0,1,0,.49Z"/><path class="cls-50" d="M2125.11,1080H1047a1,1,0,0,1,0-1.9h1078.1a1,1,0,1,1,0,1.9Z"/><path class="cls-51" d="M1047,1080a1,1,0,0,1-1-1V1A1,1,0,0,1,1048,1v1078.1A1,1,0,0,1,1047,1080Z"/><path class="cls-52" d="M1069.48,1079.3a.25.25,0,0,1-.25-.25V1a.25.25,0,1,1,.49,0v1078.1A.25.25,0,0,1,1069.48,1079.3Z"/><path class="cls-53" d="M1091.94,1079.3a.25.25,0,0,1-.25-.25V1a.25.25,0,1,1,.49,0v1078.1A.25.25,0,0,1,1091.94,1079.3Z"/><path class="cls-54" d="M1114.4,1079.3a.25.25,0,0,1-.25-.25V1a.25.25,0,0,1,.25-.25.24.24,0,0,1,.24.25v1078.1A.24.24,0,0,1,1114.4,1079.3Z"/><path class="cls-55" d="M1136.86,1080a.94.94,0,0,1-.95-1V1a1,1,0,0,1,1.9,0v1078.1A.94.94,0,0,1,1136.86,1080Z"/><path class="cls-56" d="M1159.32,1079.3a.25.25,0,0,1-.25-.25V1a.25.25,0,0,1,.25-.25.24.24,0,0,1,.24.25v1078.1A.24.24,0,0,1,1159.32,1079.3Z"/><path class="cls-57" d="M1181.78,1079.3a.25.25,0,0,1-.25-.25V1a.25.25,0,0,1,.5,0v1078.1A.25.25,0,0,1,1181.78,1079.3Z"/><path class="cls-58" d="M1204.24,1079.3a.24.24,0,0,1-.24-.25V1a.24.24,0,0,1,.24-.25.25.25,0,0,1,.25.25v1078.1A.25.25,0,0,1,1204.24,1079.3Z"/><path class="cls-59" d="M1226.7,1080a.94.94,0,0,1-1-1V1a1,1,0,0,1,1.9,0v1078.1A.94.94,0,0,1,1226.7,1080Z"/><path class="cls-60" d="M1249.16,1079.3a.25.25,0,0,1-.25-.25V1a.25.25,0,0,1,.5,0v1078.1A.25.25,0,0,1,1249.16,1079.3Z"/><path class="cls-61" d="M1271.62,1079.3a.24.24,0,0,1-.24-.25V1a.24.24,0,0,1,.24-.25.25.25,0,0,1,.25.25v1078.1A.25.25,0,0,1,1271.62,1079.3Z"/><path class="cls-62" d="M1294.08,1079.3a.25.25,0,0,1-.24-.25V1a.25.25,0,1,1,.49,0v1078.1A.25.25,0,0,1,1294.08,1079.3Z"/><path class="cls-63" d="M1316.54,1080a1,1,0,0,1-1-1V1a1,1,0,1,1,1.9,0v1078.1A.94.94,0,0,1,1316.54,1080Z"/><path class="cls-64" d="M1339,1079.3a.25.25,0,0,1-.24-.25V1a.25.25,0,1,1,.49,0v1078.1A.25.25,0,0,1,1339,1079.3Z"/><path class="cls-65" d="M1361.46,1079.3a.25.25,0,0,1-.24-.25V1a.25.25,0,1,1,.49,0v1078.1A.25.25,0,0,1,1361.46,1079.3Z"/><path class="cls-66" d="M1383.92,1079.3a.25.25,0,0,1-.24-.25V1a.25.25,0,1,1,.49,0v1078.1A.25.25,0,0,1,1383.92,1079.3Z"/><path class="cls-67" d="M1406.38,1080a1,1,0,0,1-1-1V1a1,1,0,1,1,1.9,0v1078.1A.94.94,0,0,1,1406.38,1080Z"/><path class="cls-68" d="M1428.85,1079.3a.25.25,0,0,1-.25-.25V1a.25.25,0,1,1,.49,0v1078.1A.25.25,0,0,1,1428.85,1079.3Z"/><path class="cls-69" d="M1451.3,1079.3a.25.25,0,0,1-.24-.25V1a.25.25,0,1,1,.49,0v1078.1A.25.25,0,0,1,1451.3,1079.3Z"/><path class="cls-70" d="M1473.76,1079.3a.25.25,0,0,1-.24-.25V1a.25.25,0,1,1,.49,0v1078.1A.25.25,0,0,1,1473.76,1079.3Z"/><path class="cls-71" d="M1496.23,1080a1,1,0,0,1-1-1V1a1,1,0,0,1,1.91,0v1078.1A1,1,0,0,1,1496.23,1080Z"/><path class="cls-72" d="M1518.69,1079.3a.25.25,0,0,1-.25-.25V1a.25.25,0,1,1,.49,0v1078.1A.25.25,0,0,1,1518.69,1079.3Z"/><path class="cls-73" d="M1541.15,1079.3a.25.25,0,0,1-.25-.25V1a.25.25,0,1,1,.49,0v1078.1A.25.25,0,0,1,1541.15,1079.3Z"/><path class="cls-74" d="M1563.61,1079.3a.25.25,0,0,1-.25-.25V1a.25.25,0,0,1,.25-.25.24.24,0,0,1,.24.25v1078.1A.24.24,0,0,1,1563.61,1079.3Z"/><path class="cls-75" d="M1586.07,1080a1,1,0,0,1-1-1V1A1,1,0,0,1,1587,1v1078.1A1,1,0,0,1,1586.07,1080Z"/><path class="cls-76" d="M1608.53,1079.3a.25.25,0,0,1-.25-.25V1a.25.25,0,1,1,.49,0v1078.1A.25.25,0,0,1,1608.53,1079.3Z"/><path class="cls-77" d="M1631,1079.3a.25.25,0,0,1-.25-.25V1a.25.25,0,1,1,.49,0v1078.1A.25.25,0,0,1,1631,1079.3Z"/><path class="cls-78" d="M1653.45,1079.3a.25.25,0,0,1-.25-.25V1a.25.25,0,0,1,.25-.25.24.24,0,0,1,.24.25v1078.1A.24.24,0,0,1,1653.45,1079.3Z"/><path class="cls-79" d="M1675.91,1080a.94.94,0,0,1-1-1V1a1,1,0,1,1,1.9,0v1078.1A.94.94,0,0,1,1675.91,1080Z"/><path class="cls-80" d="M1698.37,1079.3a.25.25,0,0,1-.25-.25V1a.25.25,0,0,1,.5,0v1078.1A.25.25,0,0,1,1698.37,1079.3Z"/><path class="cls-81" d="M1720.83,1079.3a.24.24,0,0,1-.24-.25V1a.24.24,0,0,1,.24-.25.25.25,0,0,1,.25.25v1078.1A.25.25,0,0,1,1720.83,1079.3Z"/><path class="cls-82" d="M1743.29,1079.3a.25.25,0,0,1-.24-.25V1a.25.25,0,1,1,.49,0v1078.1A.25.25,0,0,1,1743.29,1079.3Z"/><path class="cls-83" d="M1765.75,1080a.94.94,0,0,1-1-1V1a1,1,0,1,1,1.9,0v1078.1A1,1,0,0,1,1765.75,1080Z"/><path class="cls-84" d="M1788.21,1079.3a.25.25,0,0,1-.25-.25V1a.25.25,0,0,1,.25-.25.24.24,0,0,1,.24.25v1078.1A.24.24,0,0,1,1788.21,1079.3Z"/><path class="cls-85" d="M1810.67,1079.3a.24.24,0,0,1-.24-.25V1a.24.24,0,0,1,.24-.25.25.25,0,0,1,.25.25v1078.1A.25.25,0,0,1,1810.67,1079.3Z"/><path class="cls-86" d="M1833.13,1079.3a.24.24,0,0,1-.24-.25V1a.24.24,0,0,1,.24-.25.25.25,0,0,1,.25.25v1078.1A.25.25,0,0,1,1833.13,1079.3Z"/><path class="cls-87" d="M1855.59,1080a.94.94,0,0,1-.95-1V1a1,1,0,0,1,1.9,0v1078.1A.94.94,0,0,1,1855.59,1080Z"/><path class="cls-88" d="M1878.05,1079.3a.24.24,0,0,1-.24-.25V1a.24.24,0,1,1,.48,0v1078.1A.24.24,0,0,1,1878.05,1079.3Z"/><path class="cls-89" d="M1900.51,1079.3a.25.25,0,0,1-.24-.25V1a.25.25,0,1,1,.49,0v1078.1A.25.25,0,0,1,1900.51,1079.3Z"/><path class="cls-90" d="M1923,1079.3a.24.24,0,0,1-.24-.25V1A.24.24,0,0,1,1923,.7a.25.25,0,0,1,.25.25v1078.1A.25.25,0,0,1,1923,1079.3Z"/><path class="cls-91" d="M1945.43,1080a.94.94,0,0,1-1-1V1a1,1,0,0,1,1.9,0v1078.1A.94.94,0,0,1,1945.43,1080Z"/><path class="cls-92" d="M1967.89,1079.3a.25.25,0,0,1-.24-.25V1a.25.25,0,1,1,.49,0v1078.1A.25.25,0,0,1,1967.89,1079.3Z"/><path class="cls-93" d="M1990.35,1079.3a.24.24,0,0,1-.24-.25V1a.24.24,0,0,1,.24-.25.25.25,0,0,1,.25.25v1078.1A.25.25,0,0,1,1990.35,1079.3Z"/><path class="cls-94" d="M2012.81,1079.3a.24.24,0,0,1-.24-.25V1a.24.24,0,0,1,.24-.25.25.25,0,0,1,.25.25v1078.1A.25.25,0,0,1,2012.81,1079.3Z"/><path class="cls-95" d="M2035.27,1080a1,1,0,0,1-1-1V1a1,1,0,1,1,1.9,0v1078.1A.94.94,0,0,1,2035.27,1080Z"/><path class="cls-96" d="M2057.74,1079.3a.25.25,0,0,1-.25-.25V1a.25.25,0,1,1,.49,0v1078.1A.25.25,0,0,1,2057.74,1079.3Z"/><path class="cls-97" d="M2080.19,1079.3a.24.24,0,0,1-.24-.25V1a.24.24,0,0,1,.24-.25.25.25,0,0,1,.25.25v1078.1A.25.25,0,0,1,2080.19,1079.3Z"/><path class="cls-98" d="M2102.65,1079.3a.24.24,0,0,1-.24-.25V1a.24.24,0,0,1,.24-.25.25.25,0,0,1,.25.25v1078.1A.25.25,0,0,1,2102.65,1079.3Z"/><path class="cls-99" d="M2125.11,1080a1,1,0,0,1-1-1V1a1,1,0,0,1,1.91,0v1078.1A1,1,0,0,1,2125.11,1080Z"/></g><g class="cls-1"><path class="cls-100" d="M2935.11,1.9H1857a1,1,0,0,1,0-1.9h1078.1a1,1,0,0,1,0,1.9Z"/><path class="cls-101" d="M2935.11,23.66H1857a.24.24,0,0,1-.24-.24.24.24,0,0,1,.24-.25h1078.1a.25.25,0,0,1,0,.49Z"/><path class="cls-102" d="M2935.11,46.12H1857a.24.24,0,0,1-.24-.25.24.24,0,0,1,.24-.24h1078.1a.25.25,0,0,1,0,.49Z"/><path class="cls-103" d="M2935.11,68.58H1857a.24.24,0,0,1-.24-.25.24.24,0,0,1,.24-.24h1078.1a.25.25,0,0,1,0,.49Z"/><path class="cls-104" d="M2935.11,91.74H1857a.95.95,0,0,1,0-1.9h1078.1a.95.95,0,0,1,0,1.9Z"/><path class="cls-105" d="M2935.11,113.5H1857a.24.24,0,0,1-.24-.25.25.25,0,0,1,.24-.25h1078.1a.25.25,0,0,1,.24.25A.25.25,0,0,1,2935.11,113.5Z"/><path class="cls-106" d="M2935.11,136H1857a.24.24,0,0,1-.24-.24.24.24,0,0,1,.24-.25h1078.1a.25.25,0,0,1,0,.49Z"/><path class="cls-107" d="M2935.11,158.43H1857a.24.24,0,0,1-.24-.25.25.25,0,0,1,.24-.25h1078.1a.25.25,0,0,1,.24.25A.25.25,0,0,1,2935.11,158.43Z"/><path class="cls-108" d="M2935.11,181.59H1857a1,1,0,0,1,0-1.91h1078.1a1,1,0,0,1,0,1.91Z"/><path class="cls-109" d="M2935.11,203.34H1857a.24.24,0,0,1-.24-.24.24.24,0,0,1,.24-.25h1078.1a.25.25,0,0,1,0,.49Z"/><path class="cls-110" d="M2935.11,225.81H1857a.25.25,0,0,1,0-.5h1078.1a.25.25,0,0,1,0,.5Z"/><path class="cls-111" d="M2935.11,248.26H1857a.24.24,0,0,1-.24-.24.24.24,0,0,1,.24-.25h1078.1a.25.25,0,0,1,0,.49Z"/><path class="cls-112" d="M2935.11,271.43H1857a.95.95,0,0,1,0-1.9h1078.1a1,1,0,1,1,0,1.9Z"/><path class="cls-113" d="M2935.11,293.18H1857a.24.24,0,0,1-.24-.24.24.24,0,0,1,.24-.25h1078.1a.25.25,0,0,1,0,.49Z"/><path class="cls-114" d="M2935.11,315.64H1857a.24.24,0,0,1-.24-.24.24.24,0,0,1,.24-.25h1078.1a.25.25,0,0,1,0,.49Z"/><path class="cls-115" d="M2935.11,338.11H1857a.25.25,0,0,1,0-.5h1078.1a.25.25,0,0,1,0,.5Z"/><path class="cls-116" d="M2935.11,361.27H1857a1,1,0,0,1,0-1.91h1078.1a1,1,0,0,1,0,1.91Z"/><path class="cls-117" d="M2935.11,383H1857a.24.24,0,0,1-.24-.25.25.25,0,0,1,.24-.25h1078.1a.25.25,0,0,1,.24.25A.25.25,0,0,1,2935.11,383Z"/><path class="cls-118" d="M2935.11,405.49H1857a.24.24,0,0,1-.24-.25.24.24,0,0,1,.24-.24h1078.1a.25.25,0,0,1,0,.49Z"/><path class="cls-119" d="M2935.11,428H1857a.25.25,0,0,1,0-.5h1078.1a.25.25,0,0,1,0,.5Z"/><path class="cls-120" d="M2935.11,451.11H1857a.95.95,0,0,1,0-1.9h1078.1a1,1,0,1,1,0,1.9Z"/><path class="cls-121" d="M2935.11,472.87H1857a.24.24,0,0,1-.24-.24.24.24,0,0,1,.24-.25h1078.1a.25.25,0,0,1,0,.49Z"/><path class="cls-122" d="M2935.11,495.33H1857a.24.24,0,0,1-.24-.25.25.25,0,0,1,.24-.25h1078.1a.25.25,0,0,1,.24.25A.25.25,0,0,1,2935.11,495.33Z"/><path class="cls-123" d="M2935.11,517.79H1857a.24.24,0,0,1-.24-.24.24.24,0,0,1,.24-.25h1078.1a.25.25,0,0,1,0,.49Z"/><path class="cls-124" d="M2935.11,541H1857a1,1,0,1,1,0-1.9h1078.1a1,1,0,1,1,0,1.9Z"/><path class="cls-125" d="M2935.11,562.71H1857a.24.24,0,0,1-.24-.25.24.24,0,0,1,.24-.24h1078.1a.25.25,0,0,1,0,.49Z"/><path class="cls-126" d="M2935.11,585.17H1857a.24.24,0,0,1-.24-.24.24.24,0,0,1,.24-.25h1078.1a.25.25,0,0,1,0,.49Z"/><path class="cls-127" d="M2935.11,607.63H1857a.24.24,0,0,1-.24-.25.24.24,0,0,1,.24-.24h1078.1a.25.25,0,0,1,0,.49Z"/><path class="cls-128" d="M2935.11,630.79H1857a.95.95,0,0,1,0-1.9h1078.1a1,1,0,1,1,0,1.9Z"/><path class="cls-129" d="M2935.11,652.55H1857a.24.24,0,0,1-.24-.24.24.24,0,0,1,.24-.25h1078.1a.25.25,0,0,1,0,.49Z"/><path class="cls-130" d="M2935.11,675H1857a.24.24,0,0,1-.24-.25.24.24,0,0,1,.24-.24h1078.1a.25.25,0,0,1,0,.49Z"/><path class="cls-131" d="M2935.11,697.47H1857a.24.24,0,0,1-.24-.24.24.24,0,0,1,.24-.25h1078.1a.25.25,0,0,1,0,.49Z"/><path class="cls-132" d="M2935.11,720.63H1857a.95.95,0,1,1,0-1.9h1078.1a.95.95,0,1,1,0,1.9Z"/><path class="cls-133" d="M2935.11,742.39H1857a.24.24,0,0,1-.24-.25.24.24,0,0,1,.24-.24h1078.1a.25.25,0,0,1,0,.49Z"/><path class="cls-134" d="M2935.11,764.85H1857a.24.24,0,0,1-.24-.24.24.24,0,0,1,.24-.25h1078.1a.25.25,0,0,1,0,.49Z"/><path class="cls-135" d="M2935.11,787.32H1857a.25.25,0,0,1,0-.5h1078.1a.25.25,0,0,1,0,.5Z"/><path class="cls-136" d="M2935.11,810.48H1857a.95.95,0,1,1,0-1.9h1078.1a.95.95,0,1,1,0,1.9Z"/><path class="cls-137" d="M2935.11,832.24H1857a.25.25,0,0,1,0-.5h1078.1a.25.25,0,0,1,0,.5Z"/><path class="cls-138" d="M2935.11,854.7H1857a.24.24,0,0,1-.24-.25.24.24,0,0,1,.24-.24h1078.1a.25.25,0,0,1,0,.49Z"/><path class="cls-139" d="M2935.11,877.16H1857a.25.25,0,0,1,0-.5h1078.1a.25.25,0,0,1,0,.5Z"/><path class="cls-140" d="M2935.11,900.31H1857a1,1,0,0,1-1-.94,1,1,0,0,1,1-1h1078.1a1,1,0,0,1,.95,1A1,1,0,0,1,2935.11,900.31Z"/><path class="cls-141" d="M2935.11,922.07H1857a.24.24,0,0,1-.24-.24.24.24,0,0,1,.24-.25h1078.1a.25.25,0,0,1,0,.49Z"/><path class="cls-142" d="M2935.11,944.54H1857a.24.24,0,0,1-.24-.25.24.24,0,0,1,.24-.24h1078.1a.25.25,0,0,1,0,.49Z"/><path class="cls-143" d="M2935.11,967H1857a.24.24,0,0,1-.24-.24.24.24,0,0,1,.24-.25h1078.1a.25.25,0,0,1,0,.49Z"/><path class="cls-144" d="M2935.11,990.16H1857a.95.95,0,0,1,0-1.9h1078.1a1,1,0,1,1,0,1.9Z"/><path class="cls-145" d="M2935.11,1011.92H1857a.24.24,0,0,1-.24-.25.24.24,0,0,1,.24-.24h1078.1a.25.25,0,0,1,0,.49Z"/><path class="cls-146" d="M2935.11,1034.38H1857a.25.25,0,0,1-.24-.25.24.24,0,0,1,.24-.25h1078.1a.25.25,0,0,1,.24.25A.25.25,0,0,1,2935.11,1034.38Z"/><path class="cls-147" d="M2935.11,1056.83H1857a.24.24,0,0,1-.24-.25.24.24,0,0,1,.24-.24h1078.1a.25.25,0,0,1,0,.49Z"/><path class="cls-148" d="M2935.11,1080H1857a1,1,0,0,1,0-1.9h1078.1a1,1,0,1,1,0,1.9Z"/><path class="cls-149" d="M1857,1080a1,1,0,0,1-1-1V1A1,1,0,0,1,1858,1v1078.1A1,1,0,0,1,1857,1080Z"/><path class="cls-150" d="M1879.48,1079.3a.25.25,0,0,1-.25-.25V1a.25.25,0,1,1,.49,0v1078.1A.25.25,0,0,1,1879.48,1079.3Z"/><path class="cls-151" d="M1901.94,1079.3a.25.25,0,0,1-.25-.25V1a.25.25,0,1,1,.49,0v1078.1A.25.25,0,0,1,1901.94,1079.3Z"/><path class="cls-152" d="M1924.4,1079.3a.25.25,0,0,1-.25-.25V1a.25.25,0,0,1,.25-.25.24.24,0,0,1,.24.25v1078.1A.24.24,0,0,1,1924.4,1079.3Z"/><path class="cls-153" d="M1946.86,1080a.94.94,0,0,1-.95-1V1a1,1,0,0,1,1.9,0v1078.1A.94.94,0,0,1,1946.86,1080Z"/><path class="cls-154" d="M1969.32,1079.3a.25.25,0,0,1-.25-.25V1a.25.25,0,0,1,.25-.25.24.24,0,0,1,.24.25v1078.1A.24.24,0,0,1,1969.32,1079.3Z"/><path class="cls-155" d="M1991.78,1079.3a.25.25,0,0,1-.25-.25V1a.25.25,0,0,1,.5,0v1078.1A.25.25,0,0,1,1991.78,1079.3Z"/><path class="cls-156" d="M2014.24,1079.3a.24.24,0,0,1-.24-.25V1a.24.24,0,0,1,.24-.25.25.25,0,0,1,.25.25v1078.1A.25.25,0,0,1,2014.24,1079.3Z"/><path class="cls-157" d="M2036.7,1080a.94.94,0,0,1-1-1V1a1,1,0,0,1,1.9,0v1078.1A.94.94,0,0,1,2036.7,1080Z"/><path class="cls-158" d="M2059.16,1079.3a.25.25,0,0,1-.25-.25V1a.25.25,0,1,1,.5,0v1078.1A.25.25,0,0,1,2059.16,1079.3Z"/><path class="cls-159" d="M2081.62,1079.3a.24.24,0,0,1-.24-.25V1a.24.24,0,0,1,.24-.25.25.25,0,0,1,.25.25v1078.1A.25.25,0,0,1,2081.62,1079.3Z"/><path class="cls-160" d="M2104.08,1079.3a.25.25,0,0,1-.24-.25V1a.25.25,0,1,1,.49,0v1078.1A.25.25,0,0,1,2104.08,1079.3Z"/><path class="cls-161" d="M2126.54,1080a1,1,0,0,1-.95-1V1a.95.95,0,1,1,1.9,0v1078.1A.94.94,0,0,1,2126.54,1080Z"/><path class="cls-162" d="M2149,1079.3a.25.25,0,0,1-.24-.25V1a.25.25,0,1,1,.49,0v1078.1A.25.25,0,0,1,2149,1079.3Z"/><path class="cls-163" d="M2171.46,1079.3a.25.25,0,0,1-.24-.25V1a.25.25,0,1,1,.49,0v1078.1A.25.25,0,0,1,2171.46,1079.3Z"/><path class="cls-164" d="M2193.92,1079.3a.25.25,0,0,1-.24-.25V1a.25.25,0,1,1,.49,0v1078.1A.25.25,0,0,1,2193.92,1079.3Z"/><path class="cls-165" d="M2216.38,1080a1,1,0,0,1-1-1V1a.95.95,0,1,1,1.9,0v1078.1A.94.94,0,0,1,2216.38,1080Z"/><path class="cls-166" d="M2238.85,1079.3a.25.25,0,0,1-.25-.25V1a.25.25,0,1,1,.49,0v1078.1A.25.25,0,0,1,2238.85,1079.3Z"/><path class="cls-167" d="M2261.3,1079.3a.25.25,0,0,1-.24-.25V1a.25.25,0,1,1,.49,0v1078.1A.25.25,0,0,1,2261.3,1079.3Z"/><path class="cls-168" d="M2283.76,1079.3a.25.25,0,0,1-.24-.25V1a.25.25,0,1,1,.49,0v1078.1A.25.25,0,0,1,2283.76,1079.3Z"/><path class="cls-169" d="M2306.23,1080a1,1,0,0,1-1-1V1a1,1,0,0,1,1.91,0v1078.1A1,1,0,0,1,2306.23,1080Z"/><path class="cls-170" d="M2328.69,1079.3a.25.25,0,0,1-.25-.25V1a.25.25,0,1,1,.49,0v1078.1A.25.25,0,0,1,2328.69,1079.3Z"/><path class="cls-171" d="M2351.15,1079.3a.25.25,0,0,1-.25-.25V1a.25.25,0,1,1,.49,0v1078.1A.25.25,0,0,1,2351.15,1079.3Z"/><path class="cls-172" d="M2373.61,1079.3a.25.25,0,0,1-.25-.25V1a.25.25,0,0,1,.25-.25.24.24,0,0,1,.24.25v1078.1A.24.24,0,0,1,2373.61,1079.3Z"/><path class="cls-173" d="M2396.07,1080a1,1,0,0,1-1-1V1A1,1,0,0,1,2397,1v1078.1A1,1,0,0,1,2396.07,1080Z"/><path class="cls-174" d="M2418.53,1079.3a.25.25,0,0,1-.25-.25V1a.25.25,0,1,1,.49,0v1078.1A.25.25,0,0,1,2418.53,1079.3Z"/><path class="cls-175" d="M2441,1079.3a.25.25,0,0,1-.25-.25V1a.25.25,0,1,1,.49,0v1078.1A.25.25,0,0,1,2441,1079.3Z"/><path class="cls-176" d="M2463.45,1079.3a.25.25,0,0,1-.25-.25V1a.25.25,0,0,1,.25-.25.24.24,0,0,1,.24.25v1078.1A.24.24,0,0,1,2463.45,1079.3Z"/><path class="cls-177" d="M2485.91,1080a.94.94,0,0,1-.95-1V1a.95.95,0,0,1,1.9,0v1078.1A.94.94,0,0,1,2485.91,1080Z"/><path class="cls-178" d="M2508.37,1079.3a.25.25,0,0,1-.25-.25V1a.25.25,0,1,1,.5,0v1078.1A.25.25,0,0,1,2508.37,1079.3Z"/><path class="cls-179" d="M2530.83,1079.3a.24.24,0,0,1-.24-.25V1a.24.24,0,0,1,.24-.25.25.25,0,0,1,.25.25v1078.1A.25.25,0,0,1,2530.83,1079.3Z"/><path class="cls-180" d="M2553.29,1079.3a.25.25,0,0,1-.24-.25V1a.25.25,0,1,1,.49,0v1078.1A.25.25,0,0,1,2553.29,1079.3Z"/><path class="cls-181" d="M2575.75,1080a.94.94,0,0,1-.95-1V1a.95.95,0,1,1,1.9,0v1078.1A1,1,0,0,1,2575.75,1080Z"/><path class="cls-182" d="M2598.21,1079.3a.25.25,0,0,1-.25-.25V1a.25.25,0,0,1,.25-.25.24.24,0,0,1,.24.25v1078.1A.24.24,0,0,1,2598.21,1079.3Z"/><path class="cls-183" d="M2620.67,1079.3a.24.24,0,0,1-.24-.25V1a.24.24,0,0,1,.24-.25.25.25,0,0,1,.25.25v1078.1A.25.25,0,0,1,2620.67,1079.3Z"/><path class="cls-184" d="M2643.13,1079.3a.24.24,0,0,1-.24-.25V1a.24.24,0,0,1,.24-.25.25.25,0,0,1,.25.25v1078.1A.25.25,0,0,1,2643.13,1079.3Z"/><path class="cls-185" d="M2665.59,1080a.94.94,0,0,1-1-1V1a.95.95,0,1,1,1.9,0v1078.1A.94.94,0,0,1,2665.59,1080Z"/><path class="cls-186" d="M2688.05,1079.3a.24.24,0,0,1-.24-.25V1a.24.24,0,1,1,.48,0v1078.1A.24.24,0,0,1,2688.05,1079.3Z"/><path class="cls-187" d="M2710.51,1079.3a.25.25,0,0,1-.24-.25V1a.25.25,0,1,1,.49,0v1078.1A.25.25,0,0,1,2710.51,1079.3Z"/><path class="cls-188" d="M2733,1079.3a.24.24,0,0,1-.24-.25V1A.24.24,0,0,1,2733,.7a.25.25,0,0,1,.25.25v1078.1A.25.25,0,0,1,2733,1079.3Z"/><path class="cls-189" d="M2755.43,1080a.94.94,0,0,1-.95-1V1a.95.95,0,0,1,1.9,0v1078.1A.94.94,0,0,1,2755.43,1080Z"/><path class="cls-190" d="M2777.89,1079.3a.25.25,0,0,1-.24-.25V1a.25.25,0,1,1,.49,0v1078.1A.25.25,0,0,1,2777.89,1079.3Z"/><path class="cls-191" d="M2800.35,1079.3a.24.24,0,0,1-.24-.25V1a.24.24,0,0,1,.24-.25.25.25,0,0,1,.25.25v1078.1A.25.25,0,0,1,2800.35,1079.3Z"/><path class="cls-192" d="M2822.81,1079.3a.24.24,0,0,1-.24-.25V1a.24.24,0,0,1,.24-.25.25.25,0,0,1,.25.25v1078.1A.25.25,0,0,1,2822.81,1079.3Z"/><path class="cls-193" d="M2845.27,1080a1,1,0,0,1-.95-1V1a.95.95,0,1,1,1.9,0v1078.1A.94.94,0,0,1,2845.27,1080Z"/><path class="cls-194" d="M2867.74,1079.3a.25.25,0,0,1-.25-.25V1a.25.25,0,1,1,.49,0v1078.1A.25.25,0,0,1,2867.74,1079.3Z"/><path class="cls-195" d="M2890.19,1079.3a.24.24,0,0,1-.24-.25V1a.24.24,0,0,1,.24-.25.25.25,0,0,1,.25.25v1078.1A.25.25,0,0,1,2890.19,1079.3Z"/><path class="cls-196" d="M2912.65,1079.3a.24.24,0,0,1-.24-.25V1a.24.24,0,0,1,.24-.25.25.25,0,0,1,.25.25v1078.1A.25.25,0,0,1,2912.65,1079.3Z"/><path class="cls-197" d="M2935.11,1080a1,1,0,0,1-1-1V1a1,1,0,0,1,1.91,0v1078.1A1,1,0,0,1,2935.11,1080Z"/></g><g class="cls-1"><path class="cls-198" d="M1316.11,1.9H238A.95.95,0,1,1,238,0h1078.1a.95.95,0,1,1,0,1.9Z"/><path class="cls-199" d="M1316.11,23.66H238a.24.24,0,0,1-.24-.24.24.24,0,0,1,.24-.25h1078.1a.25.25,0,0,1,0,.49Z"/><path class="cls-200" d="M1316.11,46.12H238a.24.24,0,0,1-.24-.25.24.24,0,0,1,.24-.24h1078.1a.25.25,0,0,1,0,.49Z"/><path class="cls-201" d="M1316.11,68.58H238a.24.24,0,0,1-.24-.25.24.24,0,0,1,.24-.24h1078.1a.25.25,0,0,1,0,.49Z"/><path class="cls-202" d="M1316.11,91.74H238a1,1,0,0,1,0-1.9h1078.1a.95.95,0,1,1,0,1.9Z"/><path class="cls-203" d="M1316.11,113.5H238a.24.24,0,0,1-.24-.25A.25.25,0,0,1,238,113h1078.1a.25.25,0,0,1,.24.25A.25.25,0,0,1,1316.11,113.5Z"/><path class="cls-204" d="M1316.11,136H238a.24.24,0,0,1-.24-.24.24.24,0,0,1,.24-.25h1078.1a.25.25,0,0,1,0,.49Z"/><path class="cls-205" d="M1316.11,158.43H238a.24.24,0,0,1-.24-.25.25.25,0,0,1,.24-.25h1078.1a.25.25,0,0,1,.24.25A.25.25,0,0,1,1316.11,158.43Z"/><path class="cls-206" d="M1316.11,181.59H238a1,1,0,0,1,0-1.91h1078.1a1,1,0,0,1,0,1.91Z"/><path class="cls-207" d="M1316.11,203.34H238a.24.24,0,0,1-.24-.24.24.24,0,0,1,.24-.25h1078.1a.25.25,0,0,1,0,.49Z"/><path class="cls-208" d="M1316.11,225.81H238a.25.25,0,0,1,0-.5h1078.1a.25.25,0,0,1,0,.5Z"/><path class="cls-209" d="M1316.11,248.26H238a.24.24,0,0,1-.24-.24.24.24,0,0,1,.24-.25h1078.1a.25.25,0,0,1,0,.49Z"/><path class="cls-210" d="M1316.11,271.43H238a.95.95,0,1,1,0-1.9h1078.1a.95.95,0,1,1,0,1.9Z"/><path class="cls-211" d="M1316.11,293.18H238a.24.24,0,0,1-.24-.24.24.24,0,0,1,.24-.25h1078.1a.25.25,0,0,1,0,.49Z"/><path class="cls-212" d="M1316.11,315.64H238a.24.24,0,0,1-.24-.24.24.24,0,0,1,.24-.25h1078.1a.25.25,0,0,1,0,.49Z"/><path class="cls-213" d="M1316.11,338.11H238a.25.25,0,0,1,0-.5h1078.1a.25.25,0,0,1,0,.5Z"/><path class="cls-214" d="M1316.11,361.27H238a1,1,0,0,1,0-1.91h1078.1a1,1,0,0,1,0,1.91Z"/><path class="cls-215" d="M1316.11,383H238a.24.24,0,0,1-.24-.25.25.25,0,0,1,.24-.25h1078.1a.25.25,0,0,1,.24.25A.25.25,0,0,1,1316.11,383Z"/><path class="cls-216" d="M1316.11,405.49H238a.24.24,0,0,1-.24-.25A.24.24,0,0,1,238,405h1078.1a.25.25,0,0,1,0,.49Z"/><path class="cls-217" d="M1316.11,428H238a.25.25,0,0,1,0-.5h1078.1a.25.25,0,0,1,0,.5Z"/><path class="cls-218" d="M1316.11,451.11H238a.95.95,0,1,1,0-1.9h1078.1a1,1,0,0,1,0,1.9Z"/><path class="cls-219" d="M1316.11,472.87H238a.24.24,0,0,1-.24-.24.24.24,0,0,1,.24-.25h1078.1a.25.25,0,0,1,0,.49Z"/><path class="cls-220" d="M1316.11,495.33H238a.24.24,0,0,1-.24-.25.25.25,0,0,1,.24-.25h1078.1a.25.25,0,0,1,.24.25A.25.25,0,0,1,1316.11,495.33Z"/><path class="cls-221" d="M1316.11,517.79H238a.24.24,0,0,1-.24-.24.24.24,0,0,1,.24-.25h1078.1a.25.25,0,0,1,0,.49Z"/><path class="cls-222" d="M1316.11,541H238a.95.95,0,0,1,0-1.9h1078.1a1,1,0,1,1,0,1.9Z"/><path class="cls-223" d="M1316.11,562.71H238a.24.24,0,0,1-.24-.25.24.24,0,0,1,.24-.24h1078.1a.25.25,0,0,1,0,.49Z"/><path class="cls-224" d="M1316.11,585.17H238a.24.24,0,0,1-.24-.24.24.24,0,0,1,.24-.25h1078.1a.25.25,0,0,1,0,.49Z"/><path class="cls-225" d="M1316.11,607.63H238a.24.24,0,0,1-.24-.25.24.24,0,0,1,.24-.24h1078.1a.25.25,0,0,1,0,.49Z"/><path class="cls-226" d="M1316.11,630.79H238a1,1,0,1,1,0-1.9h1078.1a.95.95,0,1,1,0,1.9Z"/><path class="cls-227" d="M1316.11,652.55H238a.24.24,0,0,1-.24-.24.24.24,0,0,1,.24-.25h1078.1a.25.25,0,0,1,0,.49Z"/><path class="cls-228" d="M1316.11,675H238a.24.24,0,0,1-.24-.25.24.24,0,0,1,.24-.24h1078.1a.25.25,0,0,1,0,.49Z"/><path class="cls-229" d="M1316.11,697.47H238a.24.24,0,0,1-.24-.24A.24.24,0,0,1,238,697h1078.1a.25.25,0,0,1,0,.49Z"/><path class="cls-230" d="M1316.11,720.63H238a.95.95,0,0,1,0-1.9h1078.1a.95.95,0,0,1,0,1.9Z"/><path class="cls-231" d="M1316.11,742.39H238a.24.24,0,0,1-.24-.25.24.24,0,0,1,.24-.24h1078.1a.25.25,0,0,1,0,.49Z"/><path class="cls-232" d="M1316.11,764.85H238a.24.24,0,0,1-.24-.24.24.24,0,0,1,.24-.25h1078.1a.25.25,0,0,1,0,.49Z"/><path class="cls-233" d="M1316.11,787.32H238a.25.25,0,0,1,0-.5h1078.1a.25.25,0,0,1,0,.5Z"/><path class="cls-234" d="M1316.11,810.48H238a1,1,0,1,1,0-1.9h1078.1a1,1,0,1,1,0,1.9Z"/><path class="cls-235" d="M1316.11,832.24H238a.25.25,0,0,1,0-.5h1078.1a.25.25,0,0,1,0,.5Z"/><path class="cls-236" d="M1316.11,854.7H238a.24.24,0,0,1-.24-.25.24.24,0,0,1,.24-.24h1078.1a.25.25,0,0,1,0,.49Z"/><path class="cls-237" d="M1316.11,877.16H238a.25.25,0,0,1,0-.5h1078.1a.25.25,0,0,1,0,.5Z"/><path class="cls-238" d="M1316.11,900.31H238a1,1,0,0,1-.95-.94,1,1,0,0,1,.95-1h1078.1a1,1,0,0,1,1,1A1,1,0,0,1,1316.11,900.31Z"/><path class="cls-239" d="M1316.11,922.07H238a.24.24,0,0,1-.24-.24.24.24,0,0,1,.24-.25h1078.1a.25.25,0,0,1,0,.49Z"/><path class="cls-240" d="M1316.11,944.54H238a.24.24,0,0,1-.24-.25.24.24,0,0,1,.24-.24h1078.1a.25.25,0,0,1,0,.49Z"/><path class="cls-241" d="M1316.11,967H238a.24.24,0,0,1-.24-.24.24.24,0,0,1,.24-.25h1078.1a.25.25,0,0,1,0,.49Z"/><path class="cls-242" d="M1316.11,990.16H238a.95.95,0,0,1,0-1.9h1078.1a.95.95,0,1,1,0,1.9Z"/><path class="cls-243" d="M1316.11,1011.92H238a.24.24,0,0,1-.24-.25.24.24,0,0,1,.24-.24h1078.1a.25.25,0,0,1,0,.49Z"/><path class="cls-244" d="M1316.11,1034.38H238a.25.25,0,0,1-.24-.25.24.24,0,0,1,.24-.25h1078.1a.25.25,0,0,1,.24.25A.25.25,0,0,1,1316.11,1034.38Z"/><path class="cls-245" d="M1316.11,1056.83H238a.24.24,0,0,1-.24-.25.24.24,0,0,1,.24-.24h1078.1a.25.25,0,0,1,0,.49Z"/><path class="cls-246" d="M1316.11,1080H238a1,1,0,1,1,0-1.9h1078.1a1,1,0,0,1,0,1.9Z"/><path class="cls-247" d="M238,1080a1,1,0,0,1-.95-1V1A1,1,0,0,1,239,1v1078.1A1,1,0,0,1,238,1080Z"/><path class="cls-248" d="M260.48,1079.3a.25.25,0,0,1-.25-.25V1a.25.25,0,1,1,.49,0v1078.1A.25.25,0,0,1,260.48,1079.3Z"/><path class="cls-249" d="M282.94,1079.3a.25.25,0,0,1-.25-.25V1a.25.25,0,1,1,.49,0v1078.1A.25.25,0,0,1,282.94,1079.3Z"/><path class="cls-250" d="M305.4,1079.3a.25.25,0,0,1-.25-.25V1A.25.25,0,0,1,305.4.7a.24.24,0,0,1,.24.25v1078.1A.24.24,0,0,1,305.4,1079.3Z"/><path class="cls-251" d="M327.86,1080a.94.94,0,0,1-.95-1V1a.95.95,0,0,1,1.9,0v1078.1A.94.94,0,0,1,327.86,1080Z"/><path class="cls-252" d="M350.32,1079.3a.25.25,0,0,1-.25-.25V1a.25.25,0,0,1,.25-.25.24.24,0,0,1,.24.25v1078.1A.24.24,0,0,1,350.32,1079.3Z"/><path class="cls-253" d="M372.78,1079.3a.25.25,0,0,1-.25-.25V1a.25.25,0,1,1,.5,0v1078.1A.25.25,0,0,1,372.78,1079.3Z"/><path class="cls-254" d="M395.24,1079.3a.24.24,0,0,1-.24-.25V1a.24.24,0,0,1,.24-.25.25.25,0,0,1,.25.25v1078.1A.25.25,0,0,1,395.24,1079.3Z"/><path class="cls-255" d="M417.7,1080a.94.94,0,0,1-.95-1V1a.95.95,0,1,1,1.9,0v1078.1A.94.94,0,0,1,417.7,1080Z"/><path class="cls-256" d="M440.16,1079.3a.25.25,0,0,1-.25-.25V1a.25.25,0,1,1,.5,0v1078.1A.25.25,0,0,1,440.16,1079.3Z"/><path class="cls-257" d="M462.62,1079.3a.24.24,0,0,1-.24-.25V1a.24.24,0,0,1,.24-.25.25.25,0,0,1,.25.25v1078.1A.25.25,0,0,1,462.62,1079.3Z"/><path class="cls-258" d="M485.08,1079.3a.25.25,0,0,1-.24-.25V1a.25.25,0,1,1,.49,0v1078.1A.25.25,0,0,1,485.08,1079.3Z"/><path class="cls-259" d="M507.54,1080a1,1,0,0,1-1-1V1a.95.95,0,1,1,1.9,0v1078.1A.94.94,0,0,1,507.54,1080Z"/><path class="cls-260" d="M530,1079.3a.25.25,0,0,1-.24-.25V1a.25.25,0,1,1,.49,0v1078.1A.25.25,0,0,1,530,1079.3Z"/><path class="cls-261" d="M552.46,1079.3a.25.25,0,0,1-.24-.25V1a.25.25,0,1,1,.49,0v1078.1A.25.25,0,0,1,552.46,1079.3Z"/><path class="cls-262" d="M574.92,1079.3a.25.25,0,0,1-.24-.25V1a.25.25,0,1,1,.49,0v1078.1A.25.25,0,0,1,574.92,1079.3Z"/><path class="cls-263" d="M597.38,1080a1,1,0,0,1-1-1V1a1,1,0,0,1,1.9,0v1078.1A.94.94,0,0,1,597.38,1080Z"/><path class="cls-264" d="M619.85,1079.3a.25.25,0,0,1-.25-.25V1a.25.25,0,1,1,.49,0v1078.1A.25.25,0,0,1,619.85,1079.3Z"/><path class="cls-265" d="M642.3,1079.3a.25.25,0,0,1-.24-.25V1a.25.25,0,1,1,.49,0v1078.1A.25.25,0,0,1,642.3,1079.3Z"/><path class="cls-266" d="M664.76,1079.3a.25.25,0,0,1-.24-.25V1A.25.25,0,1,1,665,1v1078.1A.25.25,0,0,1,664.76,1079.3Z"/><path class="cls-267" d="M687.23,1080a1,1,0,0,1-1-1V1a1,1,0,0,1,1.91,0v1078.1A1,1,0,0,1,687.23,1080Z"/><path class="cls-268" d="M709.69,1079.3a.25.25,0,0,1-.25-.25V1a.25.25,0,1,1,.49,0v1078.1A.25.25,0,0,1,709.69,1079.3Z"/><path class="cls-269" d="M732.15,1079.3a.25.25,0,0,1-.25-.25V1a.25.25,0,1,1,.49,0v1078.1A.25.25,0,0,1,732.15,1079.3Z"/><path class="cls-270" d="M754.61,1079.3a.25.25,0,0,1-.25-.25V1a.25.25,0,0,1,.25-.25.24.24,0,0,1,.24.25v1078.1A.24.24,0,0,1,754.61,1079.3Z"/><path class="cls-271" d="M777.07,1080a1,1,0,0,1-1-1V1A1,1,0,0,1,778,1v1078.1A1,1,0,0,1,777.07,1080Z"/><path class="cls-272" d="M799.53,1079.3a.25.25,0,0,1-.25-.25V1a.25.25,0,1,1,.49,0v1078.1A.25.25,0,0,1,799.53,1079.3Z"/><path class="cls-273" d="M822,1079.3a.25.25,0,0,1-.25-.25V1a.25.25,0,1,1,.49,0v1078.1A.25.25,0,0,1,822,1079.3Z"/><path class="cls-274" d="M844.45,1079.3a.25.25,0,0,1-.25-.25V1a.25.25,0,0,1,.25-.25.24.24,0,0,1,.24.25v1078.1A.24.24,0,0,1,844.45,1079.3Z"/><path class="cls-275" d="M866.91,1080a.94.94,0,0,1-.95-1V1a1,1,0,0,1,1.9,0v1078.1A.94.94,0,0,1,866.91,1080Z"/><path class="cls-276" d="M889.37,1079.3a.25.25,0,0,1-.25-.25V1a.25.25,0,0,1,.5,0v1078.1A.25.25,0,0,1,889.37,1079.3Z"/><path class="cls-277" d="M911.83,1079.3a.24.24,0,0,1-.24-.25V1a.24.24,0,0,1,.24-.25.25.25,0,0,1,.25.25v1078.1A.25.25,0,0,1,911.83,1079.3Z"/><path class="cls-278" d="M934.29,1079.3a.25.25,0,0,1-.24-.25V1a.25.25,0,1,1,.49,0v1078.1A.25.25,0,0,1,934.29,1079.3Z"/><path class="cls-279" d="M956.75,1080a.94.94,0,0,1-1-1V1a1,1,0,0,1,1.9,0v1078.1A1,1,0,0,1,956.75,1080Z"/><path class="cls-280" d="M979.21,1079.3a.25.25,0,0,1-.25-.25V1a.25.25,0,0,1,.25-.25.24.24,0,0,1,.24.25v1078.1A.24.24,0,0,1,979.21,1079.3Z"/><path class="cls-281" d="M1001.67,1079.3a.24.24,0,0,1-.24-.25V1a.24.24,0,0,1,.24-.25.25.25,0,0,1,.25.25v1078.1A.25.25,0,0,1,1001.67,1079.3Z"/><path class="cls-282" d="M1024.13,1079.3a.24.24,0,0,1-.24-.25V1a.24.24,0,0,1,.24-.25.25.25,0,0,1,.25.25v1078.1A.25.25,0,0,1,1024.13,1079.3Z"/><path class="cls-283" d="M1046.59,1080a.94.94,0,0,1-.95-1V1a1,1,0,0,1,1.9,0v1078.1A.94.94,0,0,1,1046.59,1080Z"/><path class="cls-284" d="M1069.05,1079.3a.24.24,0,0,1-.24-.25V1a.24.24,0,1,1,.48,0v1078.1A.24.24,0,0,1,1069.05,1079.3Z"/><path class="cls-285" d="M1091.51,1079.3a.25.25,0,0,1-.24-.25V1a.25.25,0,1,1,.49,0v1078.1A.25.25,0,0,1,1091.51,1079.3Z"/><path class="cls-286" d="M1114,1079.3a.24.24,0,0,1-.24-.25V1A.24.24,0,0,1,1114,.7a.25.25,0,0,1,.25.25v1078.1A.25.25,0,0,1,1114,1079.3Z"/><path class="cls-287" d="M1136.43,1080a.94.94,0,0,1-1-1V1a1,1,0,0,1,1.9,0v1078.1A.94.94,0,0,1,1136.43,1080Z"/><path class="cls-288" d="M1158.89,1079.3a.25.25,0,0,1-.24-.25V1a.25.25,0,1,1,.49,0v1078.1A.25.25,0,0,1,1158.89,1079.3Z"/><path class="cls-289" d="M1181.35,1079.3a.24.24,0,0,1-.24-.25V1a.24.24,0,0,1,.24-.25.25.25,0,0,1,.25.25v1078.1A.25.25,0,0,1,1181.35,1079.3Z"/><path class="cls-290" d="M1203.81,1079.3a.24.24,0,0,1-.24-.25V1a.24.24,0,0,1,.24-.25.25.25,0,0,1,.25.25v1078.1A.25.25,0,0,1,1203.81,1079.3Z"/><path class="cls-291" d="M1226.27,1080a1,1,0,0,1-1-1V1a1,1,0,1,1,1.9,0v1078.1A.94.94,0,0,1,1226.27,1080Z"/><path class="cls-292" d="M1248.74,1079.3a.25.25,0,0,1-.25-.25V1a.25.25,0,1,1,.49,0v1078.1A.25.25,0,0,1,1248.74,1079.3Z"/><path class="cls-293" d="M1271.19,1079.3a.24.24,0,0,1-.24-.25V1a.24.24,0,0,1,.24-.25.25.25,0,0,1,.25.25v1078.1A.25.25,0,0,1,1271.19,1079.3Z"/><path class="cls-294" d="M1293.65,1079.3a.24.24,0,0,1-.24-.25V1a.24.24,0,0,1,.24-.25.25.25,0,0,1,.25.25v1078.1A.25.25,0,0,1,1293.65,1079.3Z"/><path class="cls-295" d="M1316.11,1080a1,1,0,0,1-1-1V1a1,1,0,0,1,1.91,0v1078.1A1,1,0,0,1,1316.11,1080Z"/></g><circle class="cls-296" cx="3114.29" cy="666.36" r="6.98"/><circle class="cls-296" cx="3180.29" cy="861.36" r="6.98"/></svg>