<svg id="图层_1" data-name="图层 1" xmlns="http://www.w3.org/2000/svg" xmlns:xlink="http://www.w3.org/1999/xlink" viewBox="0 0 3200 1080"><defs><style>.cls-1,.cls-10,.cls-100,.cls-101,.cls-102,.cls-103,.cls-104,.cls-105,.cls-106,.cls-107,.cls-108,.cls-109,.cls-11,.cls-110,.cls-111,.cls-112,.cls-113,.cls-114,.cls-115,.cls-116,.cls-117,.cls-118,.cls-119,.cls-12,.cls-120,.cls-121,.cls-122,.cls-123,.cls-124,.cls-125,.cls-126,.cls-127,.cls-128,.cls-129,.cls-13,.cls-130,.cls-131,.cls-132,.cls-133,.cls-134,.cls-135,.cls-136,.cls-137,.cls-138,.cls-139,.cls-14,.cls-15,.cls-16,.cls-17,.cls-18,.cls-19,.cls-2,.cls-20,.cls-21,.cls-22,.cls-23,.cls-24,.cls-25,.cls-26,.cls-27,.cls-28,.cls-29,.cls-3,.cls-30,.cls-31,.cls-32,.cls-33,.cls-34,.cls-35,.cls-36,.cls-37,.cls-38,.cls-39,.cls-4,.cls-40,.cls-41,.cls-42,.cls-43,.cls-44,.cls-45,.cls-46,.cls-47,.cls-48,.cls-49,.cls-5,.cls-50,.cls-51,.cls-52,.cls-53,.cls-54,.cls-55,.cls-56,.cls-57,.cls-58,.cls-59,.cls-6,.cls-60,.cls-61,.cls-62,.cls-63,.cls-64,.cls-65,.cls-66,.cls-67,.cls-68,.cls-69,.cls-7,.cls-70,.cls-71,.cls-72,.cls-73,.cls-74,.cls-75,.cls-76,.cls-77,.cls-78,.cls-79,.cls-8,.cls-80,.cls-81,.cls-82,.cls-83,.cls-84,.cls-85,.cls-86,.cls-87,.cls-88,.cls-89,.cls-9,.cls-90,.cls-91,.cls-92,.cls-93,.cls-94,.cls-95,.cls-96,.cls-97,.cls-98,.cls-99{opacity:0.32;}.cls-1{fill:url(#未命名的渐变_11);}.cls-2{fill:#4589ce;}.cls-3{fill:url(#未命名的渐变_11-2);}.cls-4{fill:url(#未命名的渐变_11-3);}.cls-5{fill:url(#未命名的渐变_11-4);}.cls-6{fill:url(#未命名的渐变_11-5);}.cls-7{fill:url(#未命名的渐变_11-6);}.cls-8{fill:url(#未命名的渐变_11-7);}.cls-9{fill:url(#未命名的渐变_11-8);}.cls-10{fill:url(#未命名的渐变_11-9);}.cls-11{fill:url(#未命名的渐变_11-10);}.cls-12{fill:url(#未命名的渐变_11-11);}.cls-13{fill:url(#未命名的渐变_11-12);}.cls-14{fill:url(#未命名的渐变_11-13);}.cls-15{fill:url(#未命名的渐变_11-14);}.cls-16{fill:url(#未命名的渐变_11-15);}.cls-17{fill:url(#未命名的渐变_11-16);}.cls-18{fill:url(#未命名的渐变_11-17);}.cls-19{fill:url(#未命名的渐变_11-18);}.cls-20{fill:url(#未命名的渐变_11-19);}.cls-21{fill:url(#未命名的渐变_11-20);}.cls-22{fill:url(#未命名的渐变_11-21);}.cls-23{fill:url(#未命名的渐变_11-22);}.cls-24{fill:url(#未命名的渐变_11-23);}.cls-25{fill:url(#未命名的渐变_11-24);}.cls-26{fill:url(#未命名的渐变_11-25);}.cls-27{fill:url(#未命名的渐变_11-26);}.cls-28{fill:url(#未命名的渐变_11-27);}.cls-29{fill:url(#未命名的渐变_11-28);}.cls-30{fill:url(#未命名的渐变_11-29);}.cls-31{fill:url(#未命名的渐变_11-30);}.cls-32{fill:url(#未命名的渐变_11-31);}.cls-33{fill:url(#未命名的渐变_11-32);}.cls-34{fill:url(#未命名的渐变_11-33);}.cls-35{fill:url(#未命名的渐变_11-34);}.cls-36{fill:url(#未命名的渐变_11-35);}.cls-37{fill:url(#未命名的渐变_11-36);}.cls-38{fill:url(#未命名的渐变_11-37);}.cls-39{fill:url(#未命名的渐变_11-38);}.cls-40{fill:url(#未命名的渐变_11-39);}.cls-41{fill:url(#未命名的渐变_11-40);}.cls-42{fill:url(#未命名的渐变_11-41);}.cls-43{fill:url(#未命名的渐变_11-42);}.cls-44{fill:url(#未命名的渐变_11-43);}.cls-45{fill:url(#未命名的渐变_11-44);}.cls-46{fill:url(#未命名的渐变_11-45);}.cls-47{fill:url(#未命名的渐变_11-46);}.cls-48{fill:url(#未命名的渐变_11-47);}.cls-49{fill:url(#未命名的渐变_11-48);}.cls-50{fill:url(#未命名的渐变_11-49);}.cls-51{fill:url(#未命名的渐变_11-50);}.cls-52{fill:url(#未命名的渐变_11-51);}.cls-53{fill:url(#未命名的渐变_11-52);}.cls-54{fill:url(#未命名的渐变_11-53);}.cls-55{fill:url(#未命名的渐变_11-54);}.cls-56{fill:url(#未命名的渐变_11-55);}.cls-57{fill:url(#未命名的渐变_11-56);}.cls-58{fill:url(#未命名的渐变_11-57);}.cls-59{fill:url(#未命名的渐变_11-58);}.cls-60{fill:url(#未命名的渐变_11-59);}.cls-61{fill:url(#未命名的渐变_11-60);}.cls-62{fill:url(#未命名的渐变_11-61);}.cls-63{fill:url(#未命名的渐变_11-62);}.cls-64{fill:url(#未命名的渐变_11-63);}.cls-65{fill:url(#未命名的渐变_11-64);}.cls-66{fill:url(#未命名的渐变_11-65);}.cls-67{fill:url(#未命名的渐变_11-66);}.cls-68{fill:url(#未命名的渐变_11-67);}.cls-69{fill:url(#未命名的渐变_11-68);}.cls-70{fill:url(#未命名的渐变_11-69);}.cls-71{fill:url(#未命名的渐变_11-70);}.cls-72{fill:url(#未命名的渐变_11-71);}.cls-73{fill:url(#未命名的渐变_11-72);}.cls-74{fill:url(#未命名的渐变_11-73);}.cls-75{fill:url(#未命名的渐变_11-74);}.cls-76{fill:url(#未命名的渐变_11-75);}.cls-77{fill:url(#未命名的渐变_11-76);}.cls-78{fill:url(#未命名的渐变_11-77);}.cls-79{fill:url(#未命名的渐变_11-78);}.cls-80{fill:url(#未命名的渐变_11-79);}.cls-81{fill:url(#未命名的渐变_11-80);}.cls-82{fill:url(#未命名的渐变_11-81);}.cls-83{fill:url(#未命名的渐变_11-82);}.cls-84{fill:url(#未命名的渐变_11-83);}.cls-85{fill:url(#未命名的渐变_11-84);}.cls-86{fill:url(#未命名的渐变_11-85);}.cls-87{fill:url(#未命名的渐变_11-86);}.cls-88{fill:url(#未命名的渐变_11-87);}.cls-89{fill:url(#未命名的渐变_11-88);}.cls-90{fill:url(#未命名的渐变_11-89);}.cls-91{fill:url(#未命名的渐变_11-90);}.cls-92{fill:url(#未命名的渐变_11-91);}.cls-93{fill:url(#未命名的渐变_11-92);}.cls-94{fill:url(#未命名的渐变_11-93);}.cls-95{fill:url(#未命名的渐变_11-94);}.cls-96{fill:url(#未命名的渐变_11-95);}.cls-97{fill:url(#未命名的渐变_11-96);}.cls-98{fill:url(#未命名的渐变_11-97);}.cls-99{fill:url(#未命名的渐变_11-98);}.cls-100{fill:url(#未命名的渐变_11-99);}.cls-101{fill:url(#未命名的渐变_11-100);}.cls-102{fill:url(#未命名的渐变_11-101);}.cls-103{fill:url(#未命名的渐变_11-102);}.cls-104{fill:url(#未命名的渐变_11-103);}.cls-105{fill:url(#未命名的渐变_11-104);}.cls-106{fill:url(#未命名的渐变_11-105);}.cls-107{fill:url(#未命名的渐变_11-106);}.cls-108{fill:url(#未命名的渐变_11-107);}.cls-109{fill:url(#未命名的渐变_11-108);}.cls-110{fill:url(#未命名的渐变_11-109);}.cls-111{fill:url(#未命名的渐变_11-110);}.cls-112{fill:url(#未命名的渐变_11-111);}.cls-113{fill:url(#未命名的渐变_11-112);}.cls-114{fill:url(#未命名的渐变_11-113);}.cls-115{fill:url(#未命名的渐变_11-114);}.cls-116{fill:url(#未命名的渐变_11-115);}.cls-117{fill:url(#未命名的渐变_11-116);}.cls-118{fill:url(#未命名的渐变_11-117);}.cls-119{fill:url(#未命名的渐变_11-118);}.cls-120{fill:url(#未命名的渐变_11-119);}.cls-121{fill:url(#未命名的渐变_11-120);}.cls-122{fill:url(#未命名的渐变_11-121);}.cls-123{fill:url(#未命名的渐变_11-122);}.cls-124{fill:url(#未命名的渐变_11-123);}.cls-125{fill:url(#未命名的渐变_11-124);}.cls-126{fill:url(#未命名的渐变_11-125);}.cls-127{fill:url(#未命名的渐变_11-126);}.cls-128{fill:url(#未命名的渐变_11-127);}.cls-129{fill:url(#未命名的渐变_11-128);}.cls-130{fill:url(#未命名的渐变_11-129);}.cls-131{fill:url(#未命名的渐变_11-130);}.cls-132{fill:url(#未命名的渐变_11-131);}.cls-133{fill:url(#未命名的渐变_11-132);}.cls-134{fill:url(#未命名的渐变_11-133);}.cls-135{fill:url(#未命名的渐变_11-134);}.cls-136{fill:url(#未命名的渐变_11-135);}.cls-137{fill:url(#未命名的渐变_11-136);}.cls-138{fill:url(#未命名的渐变_11-137);}.cls-139{fill:url(#未命名的渐变_11-138);}</style><linearGradient id="未命名的渐变_11" x1="3116.51" y1="10.8" x2="3182.59" y2="10.8" gradientUnits="userSpaceOnUse"><stop offset="0.02" stop-color="#2adeff"/><stop offset="0.04" stop-color="#2adeff" stop-opacity="0.96"/><stop offset="0.13" stop-color="#2adeff" stop-opacity="0.74"/><stop offset="0.22" stop-color="#2adeff" stop-opacity="0.54"/><stop offset="0.31" stop-color="#2adeff" stop-opacity="0.37"/><stop offset="0.4" stop-color="#2adeff" stop-opacity="0.24"/><stop offset="0.49" stop-color="#2adeff" stop-opacity="0.13"/><stop offset="0.59" stop-color="#2adeff" stop-opacity="0.06"/><stop offset="0.68" stop-color="#2adeff" stop-opacity="0.01"/><stop offset="0.78" stop-color="#2adeff" stop-opacity="0"/><stop offset="0.79" stop-color="#27cfee" stop-opacity="0.07"/><stop offset="1"/></linearGradient><linearGradient id="未命名的渐变_11-2" x1="1974.39" y1="1056.99" x2="706.97" y2="1065.74" xlink:href="#未命名的渐变_11"/><linearGradient id="未命名的渐变_11-3" x1="1970.06" y1="1044.93" x2="668.25" y2="1053.93" xlink:href="#未命名的渐变_11"/><linearGradient id="未命名的渐变_11-4" x1="1969.78" y1="1003.88" x2="667.97" y2="1012.87" xlink:href="#未命名的渐变_11"/><linearGradient id="未命名的渐变_11-5" x1="1968.86" y1="870.31" x2="667.05" y2="879.3" xlink:href="#未命名的渐变_11"/><linearGradient id="未命名的渐变_11-6" x1="1969.63" y1="982.33" x2="667.82" y2="991.32" xlink:href="#未命名的渐变_11"/><linearGradient id="未命名的渐变_11-7" x1="1167.28" y1="368.81" x2="1165.53" y2="368.82" xlink:href="#未命名的渐变_11"/><linearGradient id="未命名的渐变_11-8" x1="1180.57" y1="367.38" x2="1171.68" y2="367.44" xlink:href="#未命名的渐变_11"/><linearGradient id="未命名的渐变_11-9" x1="1648.79" y1="539.55" x2="1648.33" y2="539.55" xlink:href="#未命名的渐变_11"/><linearGradient id="未命名的渐变_11-10" x1="872.37" y1="42.7" x2="769.98" y2="43.41" xlink:href="#未命名的渐变_11"/><linearGradient id="未命名的渐变_11-11" x1="770.8" y1="103.5" x2="769.29" y2="103.51" xlink:href="#未命名的渐变_11"/><linearGradient id="未命名的渐变_11-12" x1="1929.41" y1="480.64" x2="662.18" y2="489.39" xlink:href="#未命名的渐变_11"/><linearGradient id="未命名的渐变_11-13" x1="1967.03" y1="605.98" x2="665.22" y2="614.97" xlink:href="#未命名的渐变_11"/><linearGradient id="未命名的渐变_11-14" x1="1965.56" y1="392.77" x2="663.75" y2="401.76" xlink:href="#未命名的渐变_11"/><linearGradient id="未命名的渐变_11-15" x1="1965.14" y1="332" x2="663.33" y2="340.99" xlink:href="#未命名的渐变_11"/><linearGradient id="未命名的渐变_11-16" x1="1965.12" y1="328.82" x2="663.31" y2="337.81" xlink:href="#未命名的渐变_11"/><linearGradient id="未命名的渐变_11-17" x1="1969.14" y1="911.71" x2="667.33" y2="920.7" xlink:href="#未命名的渐变_11"/><linearGradient id="未命名的渐变_11-18" x1="1968.43" y1="808.47" x2="666.62" y2="817.46" xlink:href="#未命名的渐变_11"/><linearGradient id="未命名的渐变_11-19" x1="1968.8" y1="863.01" x2="667" y2="872" xlink:href="#未命名的渐变_11"/><linearGradient id="未命名的渐变_11-20" x1="1968.3" y1="790.26" x2="666.5" y2="799.25" xlink:href="#未命名的渐变_11"/><linearGradient id="未命名的渐变_11-21" x1="1968.13" y1="765.44" x2="666.32" y2="774.43" xlink:href="#未命名的渐变_11"/><linearGradient id="未命名的渐变_11-22" x1="1967.95" y1="739.73" x2="666.15" y2="748.72" xlink:href="#未命名的渐变_11"/><linearGradient id="未命名的渐变_11-23" x1="1967.94" y1="737.25" x2="666.13" y2="746.24" xlink:href="#未命名的渐变_11"/><linearGradient id="未命名的渐变_11-24" x1="1967.91" y1="732.95" x2="666.1" y2="741.94" xlink:href="#未命名的渐变_11"/><linearGradient id="未命名的渐变_11-25" x1="1967.87" y1="727.24" x2="666.06" y2="736.23" xlink:href="#未命名的渐变_11"/><linearGradient id="未命名的渐变_11-26" x1="1967.54" y1="679.88" x2="665.73" y2="688.87" xlink:href="#未命名的渐变_11"/><linearGradient id="未命名的渐变_11-27" x1="1967.81" y1="718.85" x2="666" y2="727.84" xlink:href="#未命名的渐变_11"/><linearGradient id="未命名的渐变_11-28" x1="1967.83" y1="721.9" x2="666.02" y2="730.89" xlink:href="#未命名的渐变_11"/><linearGradient id="未命名的渐变_11-29" x1="1967.79" y1="715.93" x2="665.98" y2="724.92" xlink:href="#未命名的渐变_11"/><linearGradient id="未命名的渐变_11-30" x1="1967.8" y1="717.68" x2="665.99" y2="726.67" xlink:href="#未命名的渐变_11"/><linearGradient id="未命名的渐变_11-31" x1="1967.78" y1="714.65" x2="665.97" y2="723.64" xlink:href="#未命名的渐变_11"/><linearGradient id="未命名的渐变_11-32" x1="1967.76" y1="711.98" x2="665.95" y2="720.97" xlink:href="#未命名的渐变_11"/><linearGradient id="未命名的渐变_11-33" x1="1967.74" y1="709.53" x2="665.94" y2="718.52" xlink:href="#未命名的渐变_11"/><linearGradient id="未命名的渐变_11-34" x1="1967.67" y1="698.31" x2="665.86" y2="707.3" xlink:href="#未命名的渐变_11"/><linearGradient id="未命名的渐变_11-35" x1="1967.75" y1="709.67" x2="665.94" y2="718.66" xlink:href="#未命名的渐变_11"/><linearGradient id="未命名的渐变_11-36" x1="1967.73" y1="707.51" x2="665.92" y2="716.5" xlink:href="#未命名的渐变_11"/><linearGradient id="未命名的渐变_11-37" x1="1967.73" y1="707.86" x2="665.93" y2="716.85" xlink:href="#未命名的渐变_11"/><linearGradient id="未命名的渐变_11-38" x1="1967.69" y1="702.18" x2="665.89" y2="711.17" xlink:href="#未命名的渐变_11"/><linearGradient id="未命名的渐变_11-39" x1="1967.68" y1="699.93" x2="665.87" y2="708.92" xlink:href="#未命名的渐变_11"/><linearGradient id="未命名的渐变_11-40" x1="1967.58" y1="685.61" x2="665.77" y2="694.6" xlink:href="#未命名的渐变_11"/><linearGradient id="未命名的渐变_11-41" x1="1967.46" y1="667.58" x2="665.65" y2="676.57" xlink:href="#未命名的渐变_11"/><linearGradient id="未命名的渐变_11-42" x1="1967.15" y1="623.76" x2="665.35" y2="632.75" xlink:href="#未命名的渐变_11"/><linearGradient id="未命名的渐变_11-43" x1="1967.29" y1="644.33" x2="665.49" y2="653.32" xlink:href="#未命名的渐变_11"/><linearGradient id="未命名的渐变_11-44" x1="1967.4" y1="659.02" x2="665.59" y2="668.01" xlink:href="#未命名的渐变_11"/><linearGradient id="未命名的渐变_11-45" x1="1967.03" y1="606.56" x2="665.23" y2="615.55" xlink:href="#未命名的渐变_11"/><linearGradient id="未命名的渐变_11-46" x1="1967.38" y1="656.1" x2="665.57" y2="665.1" xlink:href="#未命名的渐变_11"/><linearGradient id="未命名的渐变_11-47" x1="1967.35" y1="652.24" x2="665.54" y2="661.23" xlink:href="#未命名的渐变_11"/><linearGradient id="未命名的渐变_11-48" x1="1967.29" y1="643.46" x2="665.48" y2="652.45" xlink:href="#未命名的渐变_11"/><linearGradient id="未命名的渐变_11-49" x1="1967.29" y1="644.24" x2="665.49" y2="653.23" xlink:href="#未命名的渐变_11"/><linearGradient id="未命名的渐变_11-50" x1="1967.29" y1="643.16" x2="665.48" y2="652.15" xlink:href="#未命名的渐变_11"/><linearGradient id="未命名的渐变_11-51" x1="1967.25" y1="638.09" x2="665.44" y2="647.08" xlink:href="#未命名的渐变_11"/><linearGradient id="未命名的渐变_11-52" x1="1967.28" y1="642.17" x2="665.47" y2="651.16" xlink:href="#未命名的渐变_11"/><linearGradient id="未命名的渐变_11-53" x1="1967.22" y1="633.18" x2="665.41" y2="642.17" xlink:href="#未命名的渐变_11"/><linearGradient id="未命名的渐变_11-54" x1="1967.13" y1="620.13" x2="665.32" y2="629.12" xlink:href="#未命名的渐变_11"/><linearGradient id="未命名的渐变_11-55" x1="1967.02" y1="604.63" x2="665.21" y2="613.62" xlink:href="#未命名的渐变_11"/><linearGradient id="未命名的渐变_11-56" x1="1966.98" y1="599.15" x2="665.18" y2="608.14" xlink:href="#未命名的渐变_11"/><linearGradient id="未命名的渐变_11-57" x1="1966.92" y1="589.41" x2="665.11" y2="598.4" xlink:href="#未命名的渐变_11"/><linearGradient id="未命名的渐变_11-58" x1="1966.62" y1="546.88" x2="664.81" y2="555.87" xlink:href="#未命名的渐变_11"/><linearGradient id="未命名的渐变_11-59" x1="1966.75" y1="565.98" x2="664.95" y2="574.97" xlink:href="#未命名的渐变_11"/><linearGradient id="未命名的渐变_11-60" x1="1966.61" y1="545.11" x2="664.8" y2="554.1" xlink:href="#未命名的渐变_11"/><linearGradient id="未命名的渐变_11-61" x1="1966.71" y1="559.74" x2="664.9" y2="568.73" xlink:href="#未命名的渐变_11"/><linearGradient id="未命名的渐变_11-62" x1="1966.48" y1="527.05" x2="664.68" y2="536.04" xlink:href="#未命名的渐变_11"/><linearGradient id="未命名的渐变_11-63" x1="1966.47" y1="524.38" x2="664.66" y2="533.37" xlink:href="#未命名的渐变_11"/><linearGradient id="未命名的渐变_11-64" x1="1966.39" y1="513.87" x2="664.59" y2="522.86" xlink:href="#未命名的渐变_11"/><linearGradient id="未命名的渐变_11-65" x1="1966.4" y1="515.24" x2="664.6" y2="524.23" xlink:href="#未命名的渐变_11"/><linearGradient id="未命名的渐变_11-66" x1="1966.35" y1="507.81" x2="664.54" y2="516.8" xlink:href="#未命名的渐变_11"/><linearGradient id="未命名的渐变_11-67" x1="1966.33" y1="504.04" x2="664.52" y2="513.03" xlink:href="#未命名的渐变_11"/><linearGradient id="未命名的渐变_11-68" x1="1966.32" y1="503.46" x2="664.51" y2="512.45" xlink:href="#未命名的渐变_11"/><linearGradient id="未命名的渐变_11-69" x1="1966.27" y1="496.02" x2="664.46" y2="505.01" xlink:href="#未命名的渐变_11"/><linearGradient id="未命名的渐变_11-70" x1="1966.28" y1="497.25" x2="664.47" y2="506.24" xlink:href="#未命名的渐变_11"/><linearGradient id="未命名的渐变_11-71" x1="1966.23" y1="490.27" x2="664.42" y2="499.26" xlink:href="#未命名的渐变_11"/><linearGradient id="未命名的渐变_11-72" x1="1966.22" y1="488.37" x2="664.41" y2="497.36" xlink:href="#未命名的渐变_11"/><linearGradient id="未命名的渐变_11-73" x1="1966.05" y1="464.17" x2="664.24" y2="473.16" xlink:href="#未命名的渐变_11"/><linearGradient id="未命名的渐变_11-74" x1="1966.02" y1="460.07" x2="664.22" y2="469.06" xlink:href="#未命名的渐变_11"/><linearGradient id="未命名的渐变_11-75" x1="1965.84" y1="433.96" x2="664.03" y2="442.95" xlink:href="#未命名的渐变_11"/><linearGradient id="未命名的渐变_11-76" x1="1965.54" y1="390.07" x2="663.73" y2="399.06" xlink:href="#未命名的渐变_11"/><linearGradient id="未命名的渐变_11-77" x1="1964.67" y1="264.96" x2="662.87" y2="273.95" xlink:href="#未命名的渐变_11"/><linearGradient id="未命名的渐变_11-78" x1="1964.87" y1="292.75" x2="663.06" y2="301.74" xlink:href="#未命名的渐变_11"/><linearGradient id="未命名的渐变_11-79" x1="1964.87" y1="293.53" x2="663.06" y2="302.52" xlink:href="#未命名的渐变_11"/><linearGradient id="未命名的渐变_11-80" x1="1964.74" y1="274.12" x2="662.93" y2="283.11" xlink:href="#未命名的渐变_11"/><linearGradient id="未命名的渐变_11-81" x1="1964.74" y1="274.41" x2="662.93" y2="283.4" xlink:href="#未命名的渐变_11"/><linearGradient id="未命名的渐变_11-82" x1="1964.68" y1="265.07" x2="662.87" y2="274.06" xlink:href="#未命名的渐变_11"/><linearGradient id="未命名的渐变_11-83" x1="1964.59" y1="252.02" x2="662.78" y2="261.01" xlink:href="#未命名的渐变_11"/><linearGradient id="未命名的渐变_11-84" x1="1964.63" y1="259" x2="662.83" y2="267.99" xlink:href="#未命名的渐变_11"/><linearGradient id="未命名的渐变_11-85" x1="1964.39" y1="224.41" x2="662.59" y2="233.4" xlink:href="#未命名的渐变_11"/><linearGradient id="未命名的渐变_11-86" x1="1964.43" y1="229.82" x2="662.62" y2="238.81" xlink:href="#未命名的渐变_11"/><linearGradient id="未命名的渐变_11-87" x1="1964.23" y1="201.08" x2="662.43" y2="210.07" xlink:href="#未命名的渐变_11"/><linearGradient id="未命名的渐变_11-88" x1="1964.19" y1="194.07" x2="662.38" y2="203.06" xlink:href="#未命名的渐变_11"/><linearGradient id="未命名的渐变_11-89" x1="1964.13" y1="186.72" x2="662.33" y2="195.71" xlink:href="#未命名的渐变_11"/><linearGradient id="未命名的渐变_11-90" x1="1964.07" y1="178.02" x2="662.27" y2="187.01" xlink:href="#未命名的渐变_11"/><linearGradient id="未命名的渐变_11-91" x1="1963.96" y1="161" x2="662.15" y2="169.99" xlink:href="#未命名的渐变_11"/><linearGradient id="未命名的渐变_11-92" x1="1963.79" y1="136.26" x2="661.98" y2="145.25" xlink:href="#未命名的渐变_11"/><linearGradient id="未命名的渐变_11-93" x1="1963.43" y1="85.29" x2="661.63" y2="94.28" xlink:href="#未命名的渐变_11"/><linearGradient id="未命名的渐变_11-94" x1="1963.72" y1="127.4" x2="661.92" y2="136.39" xlink:href="#未命名的渐变_11"/><linearGradient id="未命名的渐变_11-95" x1="1963.49" y1="92.92" x2="661.68" y2="101.91" xlink:href="#未命名的渐变_11"/><linearGradient id="未命名的渐变_11-96" x1="1963.38" y1="77.81" x2="661.58" y2="86.8" xlink:href="#未命名的渐变_11"/><linearGradient id="未命名的渐变_11-97" x1="1963.24" y1="56.72" x2="661.43" y2="65.71" xlink:href="#未命名的渐变_11"/><linearGradient id="未命名的渐变_11-98" x1="1963.16" y1="45.86" x2="661.35" y2="54.85" xlink:href="#未命名的渐变_11"/><linearGradient id="未命名的渐变_11-99" x1="2824.35" y1="48.5" x2="2825.46" y2="48.5" xlink:href="#未命名的渐变_11"/><linearGradient id="未命名的渐变_11-100" x1="2830.82" y1="61.48" x2="2830.93" y2="61.48" xlink:href="#未命名的渐变_11"/><linearGradient id="未命名的渐变_11-101" x1="2477.88" y1="499.52" x2="2478.36" y2="499.52" xlink:href="#未命名的渐变_11"/><linearGradient id="未命名的渐变_11-102" x1="2110.66" y1="540" x2="2975.8" y2="540" xlink:href="#未命名的渐变_11"/><linearGradient id="未命名的渐变_11-103" x1="2687.19" y1="1063.16" x2="2694.51" y2="1063.16" xlink:href="#未命名的渐变_11"/><linearGradient id="未命名的渐变_11-104" x1="2764.82" y1="1062.23" x2="2772.23" y2="1062.23" xlink:href="#未命名的渐变_11"/><linearGradient id="未命名的渐变_11-105" x1="2829.67" y1="647.46" x2="2859.13" y2="647.46" xlink:href="#未命名的渐变_11"/><linearGradient id="未命名的渐变_11-106" x1="2741.65" y1="537.82" x2="2747.29" y2="537.82" xlink:href="#未命名的渐变_11"/><linearGradient id="未命名的渐变_11-107" x1="2713.93" y1="529.7" x2="2722.64" y2="529.7" xlink:href="#未命名的渐变_11"/><linearGradient id="未命名的渐变_11-108" x1="2674.97" y1="519.71" x2="2679.57" y2="519.71" xlink:href="#未命名的渐变_11"/><linearGradient id="未命名的渐变_11-109" x1="2609.2" y1="397.37" x2="2616.09" y2="397.37" xlink:href="#未命名的渐变_11"/><linearGradient id="未命名的渐变_11-110" x1="2631.15" y1="398.19" x2="2633.92" y2="398.19" xlink:href="#未命名的渐变_11"/><linearGradient id="未命名的渐变_11-111" x1="2623.06" y1="391.8" x2="2628.65" y2="391.8" xlink:href="#未命名的渐变_11"/><linearGradient id="未命名的渐变_11-112" x1="2612.01" y1="378.42" x2="2622.8" y2="378.42" xlink:href="#未命名的渐变_11"/><linearGradient id="未命名的渐变_11-113" x1="2607.9" y1="378.28" x2="2611.31" y2="378.28" xlink:href="#未命名的渐变_11"/><linearGradient id="未命名的渐变_11-114" x1="2682.19" y1="235.52" x2="2699.36" y2="235.52" xlink:href="#未命名的渐变_11"/><linearGradient id="未命名的渐变_11-115" x1="2801.1" y1="185.33" x2="2810.13" y2="185.33" xlink:href="#未命名的渐变_11"/><linearGradient id="未命名的渐变_11-116" x1="2800.01" y1="179.86" x2="2807.68" y2="179.86" xlink:href="#未命名的渐变_11"/><linearGradient id="未命名的渐变_11-117" x1="2775.98" y1="180.34" x2="2794.59" y2="180.34" xlink:href="#未命名的渐变_11"/><linearGradient id="未命名的渐变_11-118" x1="2821.78" y1="155.53" x2="2870.69" y2="155.53" xlink:href="#未命名的渐变_11"/><linearGradient id="未命名的渐变_11-119" x1="2858.66" y1="172.9" x2="2871.32" y2="172.9" xlink:href="#未命名的渐变_11"/><linearGradient id="未命名的渐变_11-120" x1="2796.61" y1="168.96" x2="2805.26" y2="168.96" xlink:href="#未命名的渐变_11"/><linearGradient id="未命名的渐变_11-121" x1="2303.55" y1="150.23" x2="2328.68" y2="150.23" xlink:href="#未命名的渐变_11"/><linearGradient id="未命名的渐变_11-122" x1="2788.37" y1="152.09" x2="2803.94" y2="152.09" xlink:href="#未命名的渐变_11"/><linearGradient id="未命名的渐变_11-123" x1="2290.13" y1="119.24" x2="2303.69" y2="119.24" xlink:href="#未命名的渐变_11"/><linearGradient id="未命名的渐变_11-124" x1="2670.57" y1="118.2" x2="2677.78" y2="118.2" xlink:href="#未命名的渐变_11"/><linearGradient id="未命名的渐变_11-125" x1="2310.16" y1="91.43" x2="2318.16" y2="91.43" xlink:href="#未命名的渐变_11"/><linearGradient id="未命名的渐变_11-126" x1="2696.76" y1="88.36" x2="2707.46" y2="88.36" xlink:href="#未命名的渐变_11"/><linearGradient id="未命名的渐变_11-127" x1="2302.55" y1="84" x2="2311.65" y2="84" xlink:href="#未命名的渐变_11"/><linearGradient id="未命名的渐变_11-128" x1="2164.02" y1="84.32" x2="2169.74" y2="84.32" xlink:href="#未命名的渐变_11"/><linearGradient id="未命名的渐变_11-129" x1="2312.64" y1="78.28" x2="2315.83" y2="78.28" xlink:href="#未命名的渐变_11"/><linearGradient id="未命名的渐变_11-130" x1="2303.89" y1="73.25" x2="2314.53" y2="73.25" xlink:href="#未命名的渐变_11"/><linearGradient id="未命名的渐变_11-131" x1="2925.41" y1="26.98" x2="3035.71" y2="26.98" xlink:href="#未命名的渐变_11"/><linearGradient id="未命名的渐变_11-132" x1="2726.69" y1="34.18" x2="2734.23" y2="34.18" xlink:href="#未命名的渐变_11"/><linearGradient id="未命名的渐变_11-133" x1="2774.74" y1="16.37" x2="2840.06" y2="16.37" xlink:href="#未命名的渐变_11"/><linearGradient id="未命名的渐变_11-134" x1="2845.51" y1="3.05" x2="2864.87" y2="3.05" xlink:href="#未命名的渐变_11"/><linearGradient id="未命名的渐变_11-135" x1="2703.07" y1="28.17" x2="2718.84" y2="28.17" xlink:href="#未命名的渐变_11"/><linearGradient id="未命名的渐变_11-136" x1="2744.4" y1="23.21" x2="2749.93" y2="23.21" xlink:href="#未命名的渐变_11"/><linearGradient id="未命名的渐变_11-137" x1="2692.83" y1="14.16" x2="2733.23" y2="14.16" xlink:href="#未命名的渐变_11"/><linearGradient id="未命名的渐变_11-138" x1="2754.83" y1="9.4" x2="2773.19" y2="9.4" xlink:href="#未命名的渐变_11"/></defs><title>1</title><path class="cls-1" d="M3117,2.39a75.29,75.29,0,0,1,11.6,1.71c-3.63,1.43-8.29.22-12.07.84v5.2c15.81-5.68,15.75,11.47,28.77,11.47,15.51,0,38.18-7.73,37.29-21.61h-60.65A15.23,15.23,0,0,1,3117,2.39Z"/><path class="cls-2" d="M1441.51,722.76a83.51,83.51,0,0,1-5.09,9.15q2.55-4.57,5.09-9.15C1441.13,723.61,1440.31,726.71,1441.51,722.76Z"/><path class="cls-2" d="M2037.93,1080h31.89c8.92-6,17-13.82,24.28-17.81,14.17-7.81,31.2-9.69,36.52-29.94-19.91,0-56.35,25-76.82,37.39C2050.37,1071.71,2042.1,1076.07,2037.93,1080Z"/><path class="cls-2" d="M1894.85,1059.47c-19.56-26.42,16.72-24.72,30.54-28.24C1921.32,1046.21,1907.38,1056.44,1894.85,1059.47Z"/><path class="cls-2" d="M2140.76,1038.25c-9.14,0,2.6-11.07,8.06-11.07-4.8-2.88-.89-5.69-9.21-8.16,24.72-18.34,23.93-22.85,23.93-52,14.21,3.77,2.71,25.84,8.54,25.84.67-1.75-1.11-4.31-.47-6.17,5.51,18.64,9.31,11.2,20.71,11.2C2191.4,1006.33,2151.44,1038.25,2140.76,1038.25Z"/><path class="cls-2" d="M1920.86,1010.44c-3.53.6-6.72-3.85-6.35-7-20.13,13.61-46.31.42-32-25.63-3.32,1.45-6-.94-8.28,2.56,1.41-2.47,2.29-9.93,4.15-13.41-3.61,2.15-10.74,6.52-13.7,8.6,6.43-6.82,12.85-14,17.83-22-3.5,5.13-22.94,19.93-27.89,19.93,12.52-64.53-84.69-15.29-107.08-9.09-9.89,2.74-31.81,8.64-41.2,8.43-28.23-.64-15.47-6.73-14.76-14.41,1.06-11.38,7.4-22.53,6.65-34.81-.88-14.3-6.5-30-6.9-45.2a44.25,44.25,0,0,0,5.08,8.41c-4-.64,5.12.78,4.49.78.51-15.08,5.59-25.25,5.59-42,1.11,1.05,3.35,3.19,4.87,4.69,16.17-8.2,24.65-18.6,43.38-24.7,14.19-4.62,19.62-3.72,30.7-15.85,6.82-7.48.38-12.65,11.25-19.18a22.34,22.34,0,0,0,4.17,9.39,131.64,131.64,0,0,0,3.65-13.19c2.75,2.4,2.08.45,6.61,2.72a33.77,33.77,0,0,1-.47-10.65c10-1.25,11.9-16.55,17.25-17.42,12.47-2,13.44,13.1,20.71,12.47,5.59-.49,4.29-4.05,7.54-6.18,4.08-2.67,19-16.6,22.52-19.85,10-9.2-1.24-.59,1.77-12.59,12.9-1.18,26,14.22,41.37,8.18-.38,10.36-6.34,23.74-15.37,29.74,9.44,2.78,27.11,29.56,38.13,28.43,16.26-1.67,27-61.23,29.82-73.43,5.14,21.09,13.85,36.86,18.86,59.55,3,13.87,15,61.41,33.23,61.41-1.26,12.86,2.49,15.66,10.52,28.55-.81-3.53-.1-5.13,2.11-4.83-6.83,37.45-25.12,67.66-50.51,91.88C1975,977.78,1941.53,1022.88,1920.86,1010.44Z"/><path class="cls-2" d="M1861.7,985.64c-10.75,0,1.72-6.44,6.21-4.94Q1866.53,985.5,1861.7,985.64Z"/><path class="cls-2" d="M1167.32,369.36c0-.4,0-.79-.06-1.11C1164.46,369.15,1165.18,369.44,1167.32,369.36Z"/><path class="cls-2" d="M1648.31,539.77a.44.44,0,0,0,.49-.44A2.7,2.7,0,0,0,1648.31,539.77Z"/><path class="cls-2" d="M1171.11,365.91a26.82,26.82,0,0,1,.56,3.07C1179,368.07,1188.05,365.91,1171.11,365.91Z"/><path class="cls-2" d="M769.2,104.49c.54-.09,1.09-.17,1.64-.24C770,102.3,769.2,101.57,769.2,104.49Z"/><path class="cls-2" d="M796.11,9.05c-11.31,1.12-11.84,1.22-19.53,5a16.82,16.82,0,0,1,3.21,4c-5.67,1-7.85,4.54-16.33,3,3.55,7-1.5,7.52,8.64,10.47-2.88-.26-5.76-.39-8.64-.37,4,3.45,2.06,6,8.62,8.29-2,.5-10.45-.75-1.06,5.25q-3.18-.59-6.32-1.41c1.15.95,7.81,6.2,8.91,7.17-1.82.45-3.63.91-5.44,1.4,0,19.33,32.34,2.41,35.13-5.14,1.49.95,7.73,4.95,8.4,5.61-5.44,3.28,25.14,64.47,36.83,13.63a52.17,52.17,0,0,1-.48,11.17c1.83-6.67,4.84-17.38,4.38-26.43-.2-3.94,7.68-2.09,6.64-10.65-.38-3.21-10.69-4.58-11.39-12.06-1.21-13,13.67-18.82,25.55-25.9.6-.36.74-1.15.85-2.15h-68.4A116,116,0,0,1,796.11,9.05Z"/><path class="cls-2" d="M968,3a27.05,27.05,0,0,0-3.45-3H892.35c-22,8.4-23.89,30.57-5.86,38.75,10.56,4.78,45.12-10.62,46.56,6.89-3,2.67-67.29-8.25-29.67,17.13,1.15-.39,2.31-.75,3.47-1.09-5.3,4-13.85,2-14.88,2.81,1.76-1.42-22.19,14-5.23,12.6-5.55.9-8.37,11.77-18,15.78,4.29-1.79-30.54,1.26-29.54,1.08-1.6.28-3.37,1-6.38,1.46-7.16,1-30,4.54-31.87-8.33,2.84,4,6.49,4.82,9.53,2-2.88-4.38-3-8.72-9-6.34,1-2.84,4.15-4,6.56-5.24-4.64-27.7-31.8,1.67-12.53,9.57,2.93,14.79-11.45,15.28-24.69,17.17,1.42,3.12,3.21,9.38,2.88,8.85-4.66-5.58-4.25,15-7.09-7.08-2.68,0-5.9,13.84-6.08,15.12q5.48.51,10.91,1.4c-17.58-.17-45.55,22.12-52.82,13.73,1.37,4.34-.41,9.82.62,14.3-9.73-3.31-16.74-3.26-23.9,3.47,0,2.56,20.47,14,22.27,25.28,1.26,7.86,1.83,16.92-4.59,21.76-7.86,5.91-30.47-5-38.35-4.28-17.45,1.64-27.3,15.14-3.25,18.84-13.28-1-8.05,4.08-12.39,13.4-4.89,10.5-9.21,22.93.24,33.63,4.75,5.39,8.62-3.16,13.3-1,12.41,5.85,22.1,15.82,39.44,6.06,15.11-8.51,9.86-20.53,17.33-30.82,5.73-7.91,15.59-11.42,21.69-17.84,1.56-1.65,4.52-15.1,6.51-16,10.1-4.61,13.67,3.6,21.58,1.71,6.74-1.61,15-13.42,21.52-13,11.93.71,16.58,17.94,26.94,25.81,16.09,12.23,33.36,8.71,26.83,34,13.8,4.6,13.3-12.92,10.26-22.21,4.7,1.79,7.22,1.57,11.49,4.88,5.09-5.18-27.55-25.26-33.86-31.13-13.47-12.53-15-35.84-1.19-18.3-1.47-3.74-2.7-4.7-1.83-9.37-2.25,12.18,27.62,31.45,39.49,32.75,8.85,5.53,25.15,50.57,26.38,57.55,9.43,0,4-7.1,7.61,3.71,9-7.58,8.39-27.46.93-39.56.84.59,41-4.53,46.51-8.22a74.43,74.43,0,0,1-6.61-8.19c2.06-.88,5.25-4.4,6.49-6.21-8.29-8.13-5.21-17.57,2.23-26.63,15.15-18.44,11.37-3.95,33.48-5.87-3.91.75-7.82,1.63-11.76,2.22,5.06,3.5,24.65,21.75,24.69,5.09a6.69,6.69,0,0,1,3.88,4.72c2.61-1.8,5.58-6.31,7.89-8-26-5.19-8.13-7.16,8.06-14.82-3.08,2.63-5.58,11.93-.5,7.09-5.66,22.1-4.14,9.81,17.56,25.84,9.8,7.25,22.61,11.45,10.42,22.29-10.91,9.7-30.45-.9-37.17-5.69-16.23,1.38-43,1.74-60.19,9.23a16.68,16.68,0,0,0,6.65,2c0,5.12-22,1.14-24.08,4.16-2.24,3.2.39,25.79,6.93,22.92a16.07,16.07,0,0,0-1.59,5.76c7.32,1.77,12.45,9.47,20.78,11.36,6.09,1.38,13.84-1,15.2-.87a111.06,111.06,0,0,0,42.45-3.08c-4.67,9.61,2,17.13.23,26.28-2,10.12-23.63,32.48-23.55,30.54,1.51,6.17-73.63-14.22-80.34-15.43-9.63-1.74-16.19-6-25.78,4.58-3.05,3.36,6,10.44,2,13.28-7,4.9-24.19,1.76-34.89-4.39-6-3.43-9.14-11.24-17.36-15.79-4.47-2.47-12,.53-16.36-1.92-21.39-12.08-6.59-12.68-12.55-30.66-5-15.17-15.49-9.61-35.6-6.76-21.09,3-51.3-.52-66.64,18.88-3.32,0-6.5-6.53-14.41-5A26,26,0,0,1,683.47,276l-5.61,10.09c-3.37,2-20.75,15.47-23.94,19.88-6.91,9.56-3.38,24.62-12.13,36.36-7.63,10.24-17.88,12.8-25.42,20.86-14.77,15.79-28.83,44.45-29.45,60.95-.62,16.29-2,36.49-3.48,54.18-.75,9-1.85,12.62,1.41,19.38a30.16,30.16,0,0,1,9.78-2.53c-2.38.46-15.71,5.24-11,12.45,1.54,2.33,5.91-.8,7.33-1.27-1.09.4-4.7,2.88-5.5,2.68,7.67,3.74,33.26,31.14,31.28,33.17-3,4.07,9.94,27.49,16.81,19.31,1.79,4,28.34,36.12,33.5,23.23.87,1.6-1.23,3.75.9,4.32,16.37-12.18,30.53-2,43.23-4.12,15-2.51,32.75-18.75,45.92-17.89,15.41,1,17.2,9.43,31.88,17.81,6.53,3.73,22.85,3.21,29.79,4.84-4,9.75-1.92,22.72-3.31,31-3.29,19.55-9,19.17,5.16,39.77,7,10.15,12.86,25.55,22.68,28.92-2.89.21-5.8.56-8.43.63,0,3.75,11.34,22,12.67,27.21,3.28,12.84,1.79,26.79-1.22,39.63-4.11,17.57-15.51,33.36-13.16,52,2.19,17.35,17.8,33.81,22.32,47.28,1.48,4.4,14.58,69.17,17.17,57.45,1.4,11.68,8.41,62.05,21.35,62.05,26.13,0,52.63-4.94,71.69-20,26.19-20.71,31.36-40.89,46.85-65.82,2.27-3.65,3.79-4.07,7.83-9,4.58-5.58,13.05-7.23,16.68-15.91,4.14-9.88-7.37-24.9-6.06-31.32,5.13-25.06,34.63-25.86,48.21-42.16,12.06-14.48,8.44-39.56,8.44-56.94q-2.9-1-5.17,2.13c1.37-3.24-11.18-42-10-51.68,2.56-21.58,30.86-52.54,48.92-69.33,12.3-11.44,83.81-89.34,52.36-107.92,5.69,3.37-71.69,13.82-67.55,12.28,0-.46-.11-.66-.36-.6,12.09-15-14.07-27.69-22.83-38.13-7.14-8.51-10-21.17-14.88-30.27-3.07-5.8-11.94-11.17-15.76-18.54-2.15-4.16,1.53-7.93-.1-11.38-4.31-9.18-12.34-13.9-15.38-18.72-8.5-13.45-15.36-33.41-24-51.48,3.6,6,11,1.82,12.91-7.26-2.27,20.13,26.53,44.56,36.35,60.19,13.8,22,26.35,45.85,42.65,65.9-4.9,7.94,5,29.81,7.91,40.79,12.9-7.75,79.79-28.38,76.59-47.52-.4-2.31.8,2.13.58,2.74,17.69-2.91,61.85-38.54,54.54-59.8-.9-2.61-28.32-24.89-30.48-26.82-.66-.6-2.89-10.91-3.36-12.3-.75.92-2.7,2.5-4,2.23,1.84,22.39-26.3,16.86-35.48,16.86-2.13,0-.93,2.78.19,4.75-2.24-3.67-3.34-6.3-2.89-10.82,5.14,8.4,4.18-4.42,3.28-10.74-1.65.2-3.2.34-4.35.38.08,1.77.13,4.15.22,5.67,1.44,2-42.56-43.43-30.66-44.37,16.17-8.28,28.85,26.81,45.7,31.56,5.33,1.5,18.45-.77,21.86.58.51.2,13.8,5.51,11.46,4.85-.85-.24,12.35,9.19,14.83,10.33,6.93,3.18,28.81,8.41,30.09-1.12,4.48,7.79,27.79.5,37.73,4.41,8.44,3.33,20.35,22,29,22.88-8.54,4.35.68,17.64,8.09,18.71,11.75,1.69,9.58-6.53,17-14,1.61,24.75,13,52.1,24.31,76,7.79,16.4,15.11,55.79,33.14,64.77,10.66-16.94,12.84-20.78,15.24-35.63,4.84-30-1-35,21.48-54.88,15-13.25,26.67-37.95,38.19-45.76,7.22-4.9,21.35,4.46,25.6-9.16,8.58,4.24,6.34,8.5,14.64,17.17,4.61-2.78,4.83-7.15,5.91-11.65-3.18,21.84.51,7.85,7.36,20.49,3.82,7,6.34,17,10.12,23.9,9.38,17.16-5.31,5.38,10.43,14.68,3.39,2,10.83-7.4,10.88-10.3,5,10.52,14.77,26.44,17.27,35.53,2.74,10-8.58,17.47,4.58,19.45-14.88,22.48,7.42,45,23.79,54a12.05,12.05,0,0,0-6.1-.72c6.43,19.58,2.5,44.32,35.29,47.84-3.65-16.5-5-32.78-14.85-46.4-4.44-6.15-27.85-23.41-29.85-35.51-.39-2.37,1.65-35.25,2-35.6,6.83-6.82,3.34-1,12.91,4.67,7.63,4.54,17,13.16,22.67,20.48-2.08-2.67,11.51,14.19,11.17,17.12,4.38-3.67,37.15-29.34,36.35-27.54,5.73-12.87-4.65-31.28-12.55-41.28-6.78-8.57-13.51-14.18-19.26-22.3-3.26-4.61-11.64-10.19-11.26-17s16.61-14.82,13.09-20.11c6.31,5.24,11.58,1.71,18.52,4.19-4.1,5.58,2.33,6.42,3,11.27,1.67-9.41,19.86-20.62,27.84-26.82,0,8.87,5.23,4.05,10.09,7.2,7.91-11.27,25.67-17,34.26-33.31,2-3.7-4.07-6.87-3.14-8.9,3.87-8.42,12.19-12.36,13.21-23,.53-5.58.39-10,.44-15.27-5,2.5-10.38.32-15.42-.76a20,20,0,0,0,6.74-9.34,159.14,159.14,0,0,1-16-7.36,69.68,69.68,0,0,0,16.24,3.76c0-4.41-43.85-43.81-33.83-43,5.51-2,12.69-6.07,15.3-13.06-8.89-2.19-11.67-7-20.82-6.62q.23,3.3.47,6.6c-3.67-2-26.84-11.29-26.84-15.7,0,1.88,20.77-20.78,21.77-21.74,7.69,0,8,14,11.46,21.09,19.58-18.21,14.33-8.44,31.68-.69a12.13,12.13,0,0,0-4.18,4.38s19,11.09,21.21,10.12c0,10.37,7.37,36.31,20.7,28.83,32.83-18.41-24.79-37.75-24.79-52.09.83-6.44,13.28-11.74,8.32-22.95a8.91,8.91,0,0,0,7.88,1.74c0-3.45-3-9-3.68-11.92,20.49,24.43,32-26.49,32-39.67,0-21.54-13.19-26.34-20.76-51.07,19.84,20.27,34,46.08,53.15,65.22l-.48-7.61A92.94,92.94,0,0,0,1849,167c-6-13.26-22-12.83-22.45-29.73,2.64-1.34,13.29,5.77,15.35,7.42-3.11-5.63-55.9-59.44-63.52-56.21,1.87,4.62,4.35,7.3,5.19,12.29-10.32-12.12-26.65-14.25-32.68-2.62-2.08-3.12-13.74-4.42-14.52-9.37,1.42-1.87,3.33-4.8,5-7-2.8,2.89-2.59,3.18-4.95,6a119,119,0,0,1-14.8-3.58c0-1.58,12.25-36.79,13-37.38,9.11-7.59,39.93,9.16,47.6-2.31l-2.41-2.31c9.45-2.15,16.68,3.26,23.76,3.74s10.79-.69,18.73-.69c.18.06-7.65-6.6-6.44-3.12-9.1-3.33-.59-18.77,4.29-21.19,14-6.93,14.69,9.19,24.85,11.83,2.12-8.43,4-6.07,8-11.43a25.9,25.9,0,0,1-5-7.91c0-4.51,8.94-.42,10.69.09,3.9-1.77,1.17,30.32.63,34.11-2.15,15-6.72,16.3,6,32.36,7.18,9,25.15,23.78,36.36,29.73,9,4.75,5.29,12.72,15.58,7.63,8.13-4-6.61-12.46-6.62-14.91a29.86,29.86,0,0,0,7-3.29,65.65,65.65,0,0,0-6.16-8.54,21,21,0,0,1,8.21-1.52c-6.9-13.75-7.68-16.59-16.94-25.8-3.75-3.73-16-6.19-17.24-7.82-3.63-4.6.18-13.8-7.48-16,8.43-7.16,33.34-11.66,40.66-1.67,7.37-33.33,59.92-19.58,12.81-37.88h-937C984.6,2.65,978.85,7.12,968,3Zm39.4,337.21a5,5,0,0,0,3.49.93,22.65,22.65,0,0,0,1.22,8.08C1010.57,346.11,1009,343.09,1007.37,340.18Z"/><path class="cls-2" d="M832.36,607.58c1.17,7.3,3.29,11.93-6,12.55C848,619.86,821.1,606.82,832.36,607.58Z"/><path class="cls-2" d="M1207.93,400.87c-1.71,5.92,1.65-6,2-7.38Z"/><path class="cls-2" d="M1027.49,338.05c8.21,2.1,1.5-.39,0,0Z"/><path class="cls-2" d="M1004.1,333c3.63,10.45,2.91,1.27,0,0C1004.73,334.79,1004.4,333.11,1004.1,333Z"/><path class="cls-2" d="M1692.35,911.38c.14.54,3,1,.82,4.37C1691.11,916.45,1693,913.77,1692.35,911.38Z"/><path class="cls-2" d="M1117.49,883.55c-28.1,0-5.43-60.36-4.24-69.24,3.29-24.52,5.48-20,25.38-33.83,8.31-5.77,17.93-21.72,22.58-35.65,17.24,23.78,7.34,36.83-2.3,61.74C1151.26,826.33,1142.89,883.55,1117.49,883.55Z"/><path class="cls-2" d="M2036.6,865.31c-4-1.84-5.67-5.59-4.35-8.86C2054.62,881.66,2037.2,858.83,2036.6,865.31Z"/><path class="cls-2" d="M1939.05,794.07c-.68-3.11,0-5.51,2-7.23C1941.23,789.53,1939.4,792.89,1939.05,794.07Z"/><path class="cls-2" d="M1920.31,769.27c-8.6,0-2.74-7,0-7C1920.43,762.84,1920.56,769.81,1920.31,769.27Z"/><path class="cls-2" d="M1873.83,745q-4.1-1.95-8.11-4.07c.93-4.15,9.27-7.11,12.48-3.83C1877.77,739.71,1877.85,745,1873.83,745Z"/><path class="cls-2" d="M1920.91,739.27c4.07-5.94,2-2.9,0,0Z"/><path class="cls-2" d="M1802.58,731.39c1,.51,5.24-.43,6.66-.47C1798.84,744.11,1805.24,732.7,1802.58,731.39Z"/><path class="cls-2" d="M2049.41,728.72c.92-.7,2.12-3.92,2.82-5C2053.88,733.24,2050.15,728.16,2049.41,728.72Z"/><path class="cls-2" d="M2041.62,730.86c-28.24,0-29.89-38.21-59.41-23.27,12.89,20.17-19.82,4.09-25.17,3.46-13-1.55-28.55-.34-11.45-12.49-4-28.56-27.95-20.45-41.3-37.86-5.58,6.19-7.53,14.23-9.81,23.31,1.21-9.35-6.07-32,4.2-35.57-3-.43-18.25-7.3-18.25-11.08,0-5.55,14.34-9.21,17.71-8.36,12.48,3.14,5.84,6.51,11.32,13.31,2.94,3.64-6.72,13,7.37,14.6,7.33.83,6.38-7.64,13.07-9.45,9.43-2.55,7.14-6,19.28-5,10,.81,31,11.52,40.64,16.41,16.55,8.39,21.27,22.13,35.89,32.49-12.5,6.19,11.48,33.49,21,33.49Q2047.19,730.51,2041.62,730.86Z"/><path class="cls-2" d="M1807.71,728.08c8.56-11,21-17.42,35-16.37C1833.05,719.43,1815.74,727.81,1807.71,728.08Z"/><path class="cls-2" d="M1781.79,725.8c-3.83,0-9.61-2.82-13.18-4.5,10-1.47,8.93-.68,19.43,3.48C1786,724.92,1783.79,725.8,1781.79,725.8Z"/><path class="cls-2" d="M2046.56,721.81a13.56,13.56,0,0,1-4.38-12.64C2057.61,707.46,2054,717.35,2046.56,721.81Z"/><path class="cls-2" d="M2066.6,720.59a31.58,31.58,0,0,1-3.15-7.17C2073.46,714.6,2066.57,717.62,2066.6,720.59Z"/><path class="cls-2" d="M1756.53,718.74c-1.18,0,6-11.88,0,0Z"/><path class="cls-2" d="M1786.4,713.2a7.29,7.29,0,0,1-7.74.46c3.91-10.31,12.59-3.18,14.71,2.42C1778.84,719.87,1791.07,717.85,1786.4,713.2Z"/><path class="cls-2" d="M1744.91,712.19c0-5.07,11.25-4.28,14.36-3.5C1752,716.48,1748.71,713.69,1744.91,712.19Z"/><path class="cls-2" d="M1738.11,714.63c-24.08-12-61.86-2.7-85.71-22,6.91-9.63,10.39-6.27,18.25-6.88,5.3-.41,18.31,5.68,23.56,6.7,2.71.53,6.2-3.66,10-2.53C1716.75,693.71,1742.2,705.71,1738.11,714.63Z"/><path class="cls-2" d="M1796.94,713.67c.17-.12-.46-5-.48-5.63,1.81.46,7,.79,8.81,1.71C1803.55,716.18,1801.54,711.57,1796.94,713.67Z"/><path class="cls-2" d="M1761.57,713.67c-1.21-1.81-.74-7.16-.48-9.71,3.72,1.87,10.88,6.69,13.74,9.71C1770.49,713.67,1765.87,714.12,1761.57,713.67Z"/><path class="cls-2" d="M1823,711.65c.18-1.76-1-3.6.8-5.59C1824.13,708.06,1823,711,1823,711.65Z"/><path class="cls-2" d="M1834.37,706.6c-2.43,0-3.18-5.44-2.88-7l7.1,3Z"/><path class="cls-2" d="M1878.38,705.11a16.52,16.52,0,0,1,4.94-9.17C1883.93,702.73,1880.38,702.5,1878.38,705.11Z"/><path class="cls-2" d="M1906.63,693.15q-7.39-7.59,3.16-14.59l2.8,1.94c.19,4.28-3.33,15-6,12.65C1905.1,691.79,1907,693.5,1906.63,693.15Z"/><path class="cls-2" d="M2044.7,687.39q-6.6-1.41-13.15-3c1.32-10.3,31.33-4.94,32.17-22.06.25-5.19-14.36-11.63-17.47-14.23C2064.63,637.72,2086.64,687.39,2044.7,687.39Z"/><path class="cls-2" d="M1649,683.79c-18,0-35.38-42.56-40.75-52.8-11.19-21.36-37.65-40.84-44.5-62.27,26.44,7.48,22.13,11.32,40.94,28.4,11.78,10.69,26.36,14.59,37.9,26.73-3.65,7.24,3.38,25.85,17.23,26.18-1.54-3.14-3.42-5.48-4.86-8.61,5.46,3.32,9.33,5.21,11.45,14.54q-2.92-2.62-5.84-5.26C1660.92,662.47,1662.65,683.79,1649,683.79Z"/><path class="cls-2" d="M1775.72,682.32c-3.14-17-2.4-35.31,4.36-49.62,10.1-21.4,25.78-19.6,48.15-24.11.65,32.81-46.35-5.79-44,24.79,1.28,16.43,29.32-15.15,29.32,9-19.72,0-10.28,25.22-3,37.43-19,4.31-14.39-31-24.69-27.71-2,.64-1.92,27-4,30.21Z"/><path class="cls-2" d="M1842.46,665.16c-4.11,0-4.88-7.84-4.49-10.53,2.31.45,11,3.73,11.9,4.65A15.46,15.46,0,0,1,1842.46,665.16Z"/><path class="cls-2" d="M1736.32,665.16q-4.9-.84-1.5-6.64c-23,7.71-35.94-3.72-43-23.6-8.12-22.82-9.5-25.33,11.13-25.33-1.13-11.85,21.5-23.58,27.88-33.13a1.24,1.24,0,0,1-1.71.69c13.87.4,14.9-19.32,27.19-26.14,1.11,14.3,13.15,13.13,16.86,25.54-8.08,4.79-6.77,12.41-15.41,16.75,3.88.38,14.64,19.39,16.38,24.7-8.61,0-7.14,3.46-13.33,6.62,7.38-2.27-8.35,20-8.93,21C1747,654.12,1750.42,664.63,1736.32,665.16Z"/><path class="cls-2" d="M1873.83,662.12c-7.9,0-9.38-10.68-18.88-1.16a14.4,14.4,0,0,1-.81-9.44C1856.63,652,1890.28,662.12,1873.83,662.12Z"/><path class="cls-2" d="M1673.07,658.08c.37-2.54.74-5.09,1.1-7.63a9.46,9.46,0,0,1,7.94,4.93C1679.28,657,1675.91,656.72,1673.07,658.08Z"/><path class="cls-2" d="M1823,647.8c-2-2,11.38-13.6,17-.88-5-1.75-6.77.19-11.1.47V641.6C1827.71,643.29,1823.5,647,1823,647.8Z"/><path class="cls-2" d="M1870.82,641.92c3.23,2.12,6.7-.52,4.49,6Q1873.07,644.89,1870.82,641.92Z"/><path class="cls-2" d="M1921.33,644.91c1.87-.63,2.3-6.36,10.23,0Z"/><path class="cls-2" d="M1600.84,644.91q-4.53-2.89-3.56-8.56C1599.52,637.73,1600.84,644.92,1600.84,644.91Z"/><path class="cls-2" d="M2076.59,638.25c.94,3,4.09,3.29,0,6.33Z"/><path class="cls-2" d="M1915.36,634.81c4-1,5.07-5.49,10,0Z"/><path class="cls-2" d="M1854.62,634.81c-8,0-5.66-20.7-5.56-27.77a22,22,0,0,1,8.75,4.61,4,4,0,0,1-.68-3.14c3.36,5.3,3.43,12.15,6.95,17.47-3,1-5.89-1.66-8.59-2.34C1856.34,625.77,1855.43,634,1854.62,634.81Z"/><path class="cls-2" d="M1854.28,605.32c2-2.42,1.66-5,3.8-6.38C1858.08,625.77,1857.28,601.77,1854.28,605.32Z"/><path class="cls-2" d="M1577.57,604.5c-8.53,0-4-5.83-9.61-3.72C1575.48,596.48,1574.83,602.11,1577.57,604.5Z"/><path class="cls-2" d="M810.1,598.39c-4.31,0-3.33-4.4,0,0Z"/><path class="cls-2" d="M1434.73,570.08c-7.25-11.84-7.76-26.35-2.23-39C1445.52,539.62,1463.24,568.17,1434.73,570.08Z"/><path class="cls-2" d="M1786.45,565.1a60.3,60.3,0,0,0,6.48,1,6.66,6.66,0,0,1-.85,3.21Z"/><path class="cls-2" d="M1820.21,568.06c-5.39-6.34-6.81-9.1-3.42-15.86-8.63,1.16-7.57-2.59-15.19,3.49-8.89-17.57,21.8-15.32,27.23-31.66,8.48,8.22,12.13,25.4,9,38.61q-3.76-3.2-1.92-7.34a5,5,0,0,1-4.65-1C1821.83,568.77,1835.71,568.23,1820.21,568.06Z"/><path class="cls-2" d="M1802,564l-9.44-4.21C1802.93,554.11,1800,561.6,1802,564Z"/><path class="cls-2" d="M1756.05,542.3c0-5.58,14.29-26.16,18.5-27.73C1781.84,524.12,1761.83,540.17,1756.05,542.3Z"/><path class="cls-2" d="M1805.06,535.71c-10.63,0-3.17-16.76.07-20.43C1806.85,517.48,1814,535.71,1805.06,535.71Z"/><path class="cls-2" d="M1799,520.52c-8,0-5.43-11,3-11C1802.72,511.81,1803.34,520.52,1799,520.52Z"/><path class="cls-2" d="M1819.87,519.42l-5-4a6.43,6.43,0,0,1,5.31-2.88C1820.35,513.26,1820.84,522.29,1819.87,519.42Z"/><path class="cls-2" d="M1823.28,515.49a47.07,47.07,0,0,0-8.5-11.35c2.91-3.09,8.84-1.72,12.51-1.72C1823.27,512,1830.08,511.32,1823.28,515.49Z"/><path class="cls-2" d="M1810.13,508.4a13.55,13.55,0,0,1-5.71-3.46,14.87,14.87,0,0,0,2.17-3.08C1834.14,508.28,1809.27,507.64,1810.13,508.4Z"/><path class="cls-2" d="M1792.45,501.86c.67,1,4.93-3.11,4,4.06a35.32,35.32,0,0,0-4,1.8Z"/><path class="cls-2" d="M1787.65,504.27c-4.06-2.29-9.14-10-10.74-14C1785.77,493.24,1789.43,497.33,1787.65,504.27Z"/><path class="cls-2" d="M1811.67,500.33c-.67-1.35-3.87-3-4.6-4C1814.15,496.69,1811.35,499.68,1811.67,500.33Z"/><path class="cls-2" d="M1804.91,495.23q-1.15-3.84-2.3-7.69C1820.18,496.45,1804.75,494.56,1804.91,495.23Z"/><path class="cls-2" d="M1795.19,492.83c-8.1,0,1.55-6.6,4.82-6.6C1801.21,489.49,1800.25,492.83,1795.19,492.83Z"/><path class="cls-2" d="M1784.82,490.2c-10,0-3.51-4.75-3.51-7.55-14.17-1.41-15.56-16.62-7.63-20.68.71,0-.2-19.11-.89-21.24a104.08,104.08,0,0,1,14.56,1.33c5.79,9.17,4.86,25.87-1.11,34.81C1791.75,478.25,1796.4,490.2,1784.82,490.2Z"/><path class="cls-2" d="M1098.28,472c-7.56,0-8.58-5.71-5.46-11.78C1096.62,459.45,1098.32,472.15,1098.28,472Z"/><path class="cls-2" d="M1675.64,445.73c-5.08,0-7.73-5.64-8.08-8.1C1669.85,407.81,1705.89,445.73,1675.64,445.73Z"/><path class="cls-2" d="M1763.6,404.26c-13,0-4.34-25.63,1.28-25.6C1777.87,378.72,1774.18,404.26,1763.6,404.26Z"/><path class="cls-2" d="M1826.29,317.31c-8.9,0-8.25-10.67-6.54-15.8-3.89.47-9.1-2.52-9.1-6.94,1.19-1.84,6.21-3.64,8.33-3.39-13.12-10.39,29-30,29-16.81,1.77-6.42,3.23-11.93,3.09-20.35,5,1.77,7.79,5.19,13.21-2.2a25.56,25.56,0,0,1-6-5.45c-.32-.1,11.18,2.23,9.47,2.23,3.23-8.43-21.06-28.3-3.23-34.35,2.78,5.26,31,24.3,14.52,32.22,7.64.3,11.47,26,11.42,31.92-2.49.35-4.28-1.17-5.39-4.56-2,3.69-2.13,6.4-4,11-.08,0-7.5-5.51-8-6,.3.2-.5,5.71.91,5.07-2.19-1.79-9.38-3.31-11.29-5.07,1.16,6-.74,8,1.15,14.18-9-1.73-9.51-9.48-15-10.14-10.58-1.29-17,8.67-26.61,9.11C1828.88,294.72,1838.28,317.31,1826.29,317.31Z"/><path class="cls-2" d="M1838.45,301.13c-18.24,0-1.16-15,9.08-15.08C1845.24,290.87,1842.37,297.24,1838.45,301.13Z"/><path class="cls-2" d="M1784.34,292.49c.81,2.69,5.55,1.73.7,4.57C1783.6,296.3,1785.06,294.91,1784.34,292.49Z"/><path class="cls-2" d="M996.75,282.7a45.3,45.3,0,0,1,17.52-7.81C1016.09,281,1002.76,292.61,996.75,282.7Z"/><path class="cls-2" d="M936.49,286c-6.69,0-12.32-3-13.62-8.52,6.91-.88,16.16,3.37,22.48-.41C946.57,282.81,942.62,286,936.49,286Z"/><path class="cls-2" d="M957.24,268.14c.91,3.42,4,3.83,0,7.78Z"/><path class="cls-2" d="M853.6,267.77c-2.94,0-23.06-12.89-23.74-15.56a99.8,99.8,0,0,0,23.74-.59C854,256.65,854.77,263.68,853.6,267.77Z"/><path class="cls-2" d="M950.6,267.18c-5.77,0,3.37-2.34,5.28-2.39A6.93,6.93,0,0,1,950.6,267.18Z"/><path class="cls-2" d="M802.8,245.49c-12.65-6.31-7.86-20.26,1-26.11C813.35,225.33,807,240.92,802.8,245.49Z"/><path class="cls-2" d="M755.27,242.46,751,233.9C757.25,235.3,754.71,238.82,755.27,242.46Z"/><path class="cls-2" d="M801,218.22c-9.91,0,4.08-17.87,4.53-18.23C807.51,209.52,807.06,217.19,801,218.22Z"/><path class="cls-2" d="M1849.54,214.18c-2.07-7.48,1.86-16.23.77-19.47-1-3-10.33-16.6-10.33-18.41,10.3-5.58,28.58,23.8,36.39,8.76,4.22,2.24,11.11,8.58,13.24,11.6-6.18.67-16.13,2.3-13.32,10.8-8,.87-15.13-3.28-23.6-2.44C1861.51,213.21,1859.65,212.05,1849.54,214.18Z"/><path class="cls-2" d="M1881.42,189.42c0-8.17,1.43-2.56,0,0Z"/><path class="cls-2" d="M1888.55,179.53l7.51-4.75C1896.47,188,1889.79,179.58,1888.55,179.53Z"/><path class="cls-2" d="M1910,164.63c0-.34-.28-5.43-.28-6.52C1921.71,160.42,1910.22,163.14,1910,164.63Z"/><path class="cls-2" d="M1912.79,139.86c.69-3.41-1.17-4.68,1.5-6.51C1915.39,136.66,1913,138.73,1912.79,139.86Z"/><path class="cls-2" d="M689.3,136.85c0-10.36,10.92-9.56,17.26-12.89-2.38.61-14.22-1.62-14.22-4.29,0-2.2,2.5-9.73,2.5-9.67,3-8.48,9.25-4.07,13.76-10.85-13.82-7-11.2-9.57-11.2-21q-3.76,4.11-7.29,8.43c-8-10.55-6.15-25.78-7.87-35.19,5.55-.56,12.61,2,17.66,2,1.72,5.55-7.85,4.7-7.85,8.07.73,2.37,25.49,2.13,23,2.07-3.17,4.41-1.68,10-12.14,10,11.76,4.46,40.12,33.25,39.83,42.69C742.23,133.31,701.32,134.34,689.3,136.85Z"/><path class="cls-2" d="M1910.56,131.25a22.7,22.7,0,0,1,3.73-7C1915.79,128.52,1912.69,128.4,1910.56,131.25Z"/><path class="cls-2" d="M655.53,121.14c-.91-5.75-.52-9.21,4-9.21s-6.66-13.7-6.59-13.4c9-3.26,18.36-22,27-20.85,2.37.31,9.44,17.2,4.81,18.19C702.57,96.86,654.27,140.52,655.53,121.14Z"/><path class="cls-2" d="M812.71,91.48c-1.36-4-3.06-6.9-3.09-11.27C821.85,78.88,821.56,85.55,812.71,91.48Z"/><path class="cls-2" d="M861.6,68.92c-13.8,0,5.58-14.76,5.58-6.91A7.17,7.17,0,0,1,861.6,68.92Z"/><path class="cls-2" d="M1886.73,49.29c2.23-2.7-1.23-7,6.27-7,1.14,2.93,1.25,3.1,2,4.05C1892.15,53.84,1890.61,48.36,1886.73,49.29Z"/><path class="cls-3" d="M2037.93,1080h31.89c8.92-6,17-13.82,24.28-17.81,14.17-7.81,31.2-9.69,36.52-29.94-19.91,0-56.35,25-76.82,37.39C2050.37,1071.71,2042.1,1076.07,2037.93,1080Z"/><path class="cls-4" d="M1894.85,1059.47c-19.56-26.42,16.72-24.72,30.54-28.24C1921.32,1046.21,1907.38,1056.44,1894.85,1059.47Z"/><path class="cls-5" d="M2140.76,1038.25c-9.14,0,2.6-11.07,8.06-11.07-4.8-2.88-.89-5.69-9.21-8.16,24.72-18.34,23.93-22.85,23.93-52,14.21,3.77,2.71,25.84,8.54,25.84.67-1.75-1.11-4.31-.47-6.17,5.51,18.64,9.31,11.2,20.71,11.2C2191.4,1006.33,2151.44,1038.25,2140.76,1038.25Z"/><path class="cls-6" d="M1920.86,1010.44c-3.53.6-6.72-3.85-6.35-7-20.13,13.61-46.31.42-32-25.63-3.32,1.45-6-.94-8.28,2.56,1.41-2.47,2.29-9.93,4.15-13.41-3.61,2.15-10.74,6.52-13.7,8.6,6.43-6.82,12.85-14,17.83-22-3.5,5.13-22.94,19.93-27.89,19.93,12.52-64.53-84.69-15.29-107.08-9.09-9.89,2.74-31.81,8.64-41.2,8.43-28.23-.64-15.47-6.73-14.76-14.41,1.06-11.38,7.4-22.53,6.65-34.81-.88-14.3-6.5-30-6.9-45.2a44.25,44.25,0,0,0,5.08,8.41c-4-.64,5.12.78,4.49.78.51-15.08,5.59-25.25,5.59-42,1.11,1.05,3.35,3.19,4.87,4.69,16.17-8.2,24.65-18.6,43.38-24.7,14.19-4.62,19.62-3.72,30.7-15.85,6.82-7.48.38-12.65,11.25-19.18a22.34,22.34,0,0,0,4.17,9.39,131.64,131.64,0,0,0,3.65-13.19c2.75,2.4,2.08.45,6.61,2.72a33.77,33.77,0,0,1-.47-10.65c10-1.25,11.9-16.55,17.25-17.42,12.47-2,13.44,13.1,20.71,12.47,5.59-.49,4.29-4.05,7.54-6.18,4.08-2.67,19-16.6,22.52-19.85,10-9.2-1.24-.59,1.77-12.59,12.9-1.18,26,14.22,41.37,8.18-.38,10.36-6.34,23.74-15.37,29.74,9.44,2.78,27.11,29.56,38.13,28.43,16.26-1.67,27-61.23,29.82-73.43,5.14,21.09,13.85,36.86,18.86,59.55,3,13.87,15,61.41,33.23,61.41-1.26,12.86,2.49,15.66,10.52,28.55-.81-3.53-.1-5.13,2.11-4.83-6.83,37.45-25.12,67.66-50.51,91.88C1975,977.78,1941.53,1022.88,1920.86,1010.44Z"/><path class="cls-7" d="M1861.7,985.64c-10.75,0,1.72-6.44,6.21-4.94Q1866.53,985.5,1861.7,985.64Z"/><path class="cls-8" d="M1167.32,369.36c0-.4,0-.79-.06-1.11C1164.46,369.15,1165.18,369.44,1167.32,369.36Z"/><path class="cls-9" d="M1171.11,365.91a26.82,26.82,0,0,1,.56,3.07C1179,368.07,1188.05,365.91,1171.11,365.91Z"/><path class="cls-10" d="M1648.31,539.77a.44.44,0,0,0,.49-.44A2.7,2.7,0,0,0,1648.31,539.77Z"/><path class="cls-11" d="M796.11,9.05c-11.31,1.12-11.84,1.22-19.53,5a16.82,16.82,0,0,1,3.21,4c-5.67,1-7.85,4.54-16.33,3,3.55,7-1.5,7.52,8.64,10.47-2.88-.26-5.76-.39-8.64-.37,4,3.45,2.06,6,8.62,8.29-2,.5-10.45-.75-1.06,5.25q-3.18-.59-6.32-1.41c1.15.95,7.81,6.2,8.91,7.17-1.82.45-3.63.91-5.44,1.4,0,19.33,32.34,2.41,35.13-5.14,1.49.95,7.73,4.95,8.4,5.61-5.44,3.28,25.14,64.47,36.83,13.63a52.17,52.17,0,0,1-.48,11.17c1.83-6.67,4.84-17.38,4.38-26.43-.2-3.94,7.68-2.09,6.64-10.65-.38-3.21-10.69-4.58-11.39-12.06-1.21-13,13.67-18.82,25.55-25.9.6-.36.74-1.15.85-2.15h-68.4A116,116,0,0,1,796.11,9.05Z"/><path class="cls-12" d="M769.2,104.49c.54-.09,1.09-.17,1.64-.24C770,102.3,769.2,101.57,769.2,104.49Z"/><path class="cls-13" d="M968,3a27.05,27.05,0,0,0-3.45-3H892.35c-22,8.4-23.89,30.57-5.86,38.75,10.56,4.78,45.12-10.62,46.56,6.89-3,2.67-67.29-8.25-29.67,17.13,1.15-.39,2.31-.75,3.47-1.09-5.3,4-13.85,2-14.88,2.81,1.76-1.42-22.19,14-5.23,12.6-5.55.9-8.37,11.77-18,15.78,4.29-1.79-30.54,1.26-29.54,1.08-1.6.28-3.37,1-6.38,1.46-7.16,1-30,4.54-31.87-8.33,2.84,4,6.49,4.82,9.53,2-2.88-4.38-3-8.72-9-6.34,1-2.84,4.15-4,6.56-5.24-4.64-27.7-31.8,1.67-12.53,9.57,2.93,14.79-11.45,15.28-24.69,17.17,1.42,3.12,3.21,9.38,2.88,8.85-4.66-5.58-4.25,15-7.09-7.08-2.68,0-5.9,13.84-6.08,15.12q5.48.51,10.91,1.4c-17.58-.17-45.55,22.12-52.82,13.73,1.37,4.34-.41,9.82.62,14.3-9.73-3.31-16.74-3.26-23.9,3.47,0,2.56,20.47,14,22.27,25.28,1.26,7.86,1.83,16.92-4.59,21.76-7.86,5.91-30.47-5-38.35-4.28-17.45,1.64-27.3,15.14-3.25,18.84-13.28-1-8.05,4.08-12.39,13.4-4.89,10.5-9.21,22.93.24,33.63,4.75,5.39,8.62-3.16,13.3-1,12.41,5.85,22.1,15.82,39.44,6.06,15.11-8.51,9.86-20.53,17.33-30.82,5.73-7.91,15.59-11.42,21.69-17.84,1.56-1.65,4.52-15.1,6.51-16,10.1-4.61,13.67,3.6,21.58,1.71,6.74-1.61,15-13.42,21.52-13,11.93.71,16.58,17.94,26.94,25.81,16.09,12.23,33.36,8.71,26.83,34,13.8,4.6,13.3-12.92,10.26-22.21,4.7,1.79,7.22,1.57,11.49,4.88,5.09-5.18-27.55-25.26-33.86-31.13-13.47-12.53-15-35.84-1.19-18.3-1.47-3.74-2.7-4.7-1.83-9.37-2.25,12.18,27.62,31.45,39.49,32.75,8.85,5.53,25.15,50.57,26.38,57.55,9.43,0,4-7.1,7.61,3.71,9-7.58,8.39-27.46.93-39.56.84.59,41-4.53,46.51-8.22a74.43,74.43,0,0,1-6.61-8.19c2.06-.88,5.25-4.4,6.49-6.21-8.29-8.13-5.21-17.57,2.23-26.63,15.15-18.44,11.37-3.95,33.48-5.87-3.91.75-7.82,1.63-11.76,2.22,5.06,3.5,24.65,21.75,24.69,5.09a6.69,6.69,0,0,1,3.88,4.72c2.61-1.8,5.58-6.31,7.89-8-26-5.19-8.13-7.16,8.06-14.82-3.08,2.63-5.58,11.93-.5,7.09-5.66,22.1-4.14,9.81,17.56,25.84,9.8,7.25,22.61,11.45,10.42,22.29-10.91,9.7-30.45-.9-37.17-5.69-16.23,1.38-43,1.74-60.19,9.23a16.68,16.68,0,0,0,6.65,2c0,5.12-22,1.14-24.08,4.16-2.24,3.2.39,25.79,6.93,22.92a16.07,16.07,0,0,0-1.59,5.76c7.32,1.77,12.45,9.47,20.78,11.36,6.09,1.38,13.84-1,15.2-.87a111.06,111.06,0,0,0,42.45-3.08c-4.67,9.61,2,17.13.23,26.28-2,10.12-23.63,32.48-23.55,30.54,1.51,6.17-73.63-14.22-80.34-15.43-9.63-1.74-16.19-6-25.78,4.58-3.05,3.36,6,10.44,2,13.28-7,4.9-24.19,1.76-34.89-4.39-6-3.43-9.14-11.24-17.36-15.79-4.47-2.47-12,.53-16.36-1.92-21.39-12.08-6.59-12.68-12.55-30.66-5-15.17-15.49-9.61-35.6-6.76-21.09,3-51.3-.52-66.64,18.88-3.32,0-6.5-6.53-14.41-5A26,26,0,0,1,683.47,276l-5.61,10.09c-3.37,2-20.75,15.47-23.94,19.88-6.91,9.56-3.38,24.62-12.13,36.36-7.63,10.24-17.88,12.8-25.42,20.86-14.77,15.79-28.83,44.45-29.45,60.95-.62,16.29-2,36.49-3.48,54.18-.75,9-1.85,12.62,1.41,19.38a30.16,30.16,0,0,1,9.78-2.53c-2.38.46-15.71,5.24-11,12.45,1.54,2.33,5.91-.8,7.33-1.27-1.09.4-4.7,2.88-5.5,2.68,7.67,3.74,33.26,31.14,31.28,33.17-3,4.07,9.94,27.49,16.81,19.31,1.79,4,28.34,36.12,33.5,23.23.87,1.6-1.23,3.75.9,4.32,16.37-12.18,30.53-2,43.23-4.12,15-2.51,32.75-18.75,45.92-17.89,15.41,1,17.2,9.43,31.88,17.81,6.53,3.73,22.85,3.21,29.79,4.84-4,9.75-1.92,22.72-3.31,31-3.29,19.55-9,19.17,5.16,39.77,7,10.15,12.86,25.55,22.68,28.92-2.89.21-5.8.56-8.43.63,0,3.75,11.34,22,12.67,27.21,3.28,12.84,1.79,26.79-1.22,39.63-4.11,17.57-15.51,33.36-13.16,52,2.19,17.35,17.8,33.81,22.32,47.28,1.48,4.4,14.58,69.17,17.17,57.45,1.4,11.68,8.41,62.05,21.35,62.05,26.13,0,52.63-4.94,71.69-20,26.19-20.71,31.36-40.89,46.85-65.82,2.27-3.65,3.79-4.07,7.83-9,4.58-5.58,13.05-7.23,16.68-15.91,4.14-9.88-7.37-24.9-6.06-31.32,5.13-25.06,34.63-25.86,48.21-42.16,12.06-14.48,8.44-39.56,8.44-56.94q-2.9-1-5.17,2.13c1.37-3.24-11.18-42-10-51.68,2.56-21.58,30.86-52.54,48.92-69.33,12.3-11.44,83.81-89.34,52.36-107.92,5.69,3.37-71.69,13.82-67.55,12.28,0-.46-.11-.66-.36-.6,12.09-15-14.07-27.69-22.83-38.13-7.14-8.51-10-21.17-14.88-30.27-3.07-5.8-11.94-11.17-15.76-18.54-2.15-4.16,1.53-7.93-.1-11.38-4.31-9.18-12.34-13.9-15.38-18.72-8.5-13.45-15.36-33.41-24-51.48,3.6,6,11,1.82,12.91-7.26-2.27,20.13,26.53,44.56,36.35,60.19,13.8,22,26.35,45.85,42.65,65.9-4.9,7.94,5,29.81,7.91,40.79,12.9-7.75,79.79-28.38,76.59-47.52-.4-2.31.8,2.13.58,2.74,17.69-2.91,61.85-38.54,54.54-59.8-.9-2.61-28.32-24.89-30.48-26.82-.66-.6-2.89-10.91-3.36-12.3-.75.92-2.7,2.5-4,2.23,1.84,22.39-26.3,16.86-35.48,16.86-2.13,0-.93,2.78.19,4.75-2.24-3.67-3.34-6.3-2.89-10.82,5.14,8.4,4.18-4.42,3.28-10.74-1.65.2-3.2.34-4.35.38.08,1.77.13,4.15.22,5.67,1.44,2-42.56-43.43-30.66-44.37,16.17-8.28,28.85,26.81,45.7,31.56,5.33,1.5,18.45-.77,21.86.58.51.2,13.8,5.51,11.46,4.85-.85-.24,12.35,9.19,14.83,10.33,6.93,3.18,28.81,8.41,30.09-1.12,4.48,7.79,27.79.5,37.73,4.41,8.44,3.33,20.35,22,29,22.88-8.54,4.35.68,17.64,8.09,18.71,11.75,1.69,9.58-6.53,17-14,1.61,24.75,13,52.1,24.31,76,7.79,16.4,15.11,55.79,33.14,64.77,10.66-16.94,12.84-20.78,15.24-35.63,4.84-30-1-35,21.48-54.88,15-13.25,26.67-37.95,38.19-45.76,7.22-4.9,21.35,4.46,25.6-9.16,8.58,4.24,6.34,8.5,14.64,17.17,4.61-2.78,4.83-7.15,5.91-11.65-3.18,21.84.51,7.85,7.36,20.49,3.82,7,6.34,17,10.12,23.9,9.38,17.16-5.31,5.38,10.43,14.68,3.39,2,10.83-7.4,10.88-10.3,5,10.52,14.77,26.44,17.27,35.53,2.74,10-8.58,17.47,4.58,19.45-14.88,22.48,7.42,45,23.79,54a12.05,12.05,0,0,0-6.1-.72c6.43,19.58,2.5,44.32,35.29,47.84-3.65-16.5-5-32.78-14.85-46.4-4.44-6.15-27.85-23.41-29.85-35.51-.39-2.37,1.65-35.25,2-35.6,6.83-6.82,3.34-1,12.91,4.67,7.63,4.54,17,13.16,22.67,20.48-2.08-2.67,11.51,14.19,11.17,17.12,4.38-3.67,37.15-29.34,36.35-27.54,5.73-12.87-4.65-31.28-12.55-41.28-6.78-8.57-13.51-14.18-19.26-22.3-3.26-4.61-11.64-10.19-11.26-17s16.61-14.82,13.09-20.11c6.31,5.24,11.58,1.71,18.52,4.19-4.1,5.58,2.33,6.42,3,11.27,1.67-9.41,19.86-20.62,27.84-26.82,0,8.87,5.23,4.05,10.09,7.2,7.91-11.27,25.67-17,34.26-33.31,2-3.7-4.07-6.87-3.14-8.9,3.87-8.42,12.19-12.36,13.21-23,.53-5.58.39-10,.44-15.27-5,2.5-10.38.32-15.42-.76a20,20,0,0,0,6.74-9.34,159.14,159.14,0,0,1-16-7.36,69.68,69.68,0,0,0,16.24,3.76c0-4.41-43.85-43.81-33.83-43,5.51-2,12.69-6.07,15.3-13.06-8.89-2.19-11.67-7-20.82-6.62q.23,3.3.47,6.6c-3.67-2-26.84-11.29-26.84-15.7,0,1.88,20.77-20.78,21.77-21.74,7.69,0,8,14,11.46,21.09,19.58-18.21,14.33-8.44,31.68-.69a12.13,12.13,0,0,0-4.18,4.38s19,11.09,21.21,10.12c0,10.37,7.37,36.31,20.7,28.83,32.83-18.41-24.79-37.75-24.79-52.09.83-6.44,13.28-11.74,8.32-22.95a8.91,8.91,0,0,0,7.88,1.74c0-3.45-3-9-3.68-11.92,20.49,24.43,32-26.49,32-39.67,0-21.54-13.19-26.34-20.76-51.07,19.84,20.27,34,46.08,53.15,65.22l-.48-7.61A92.94,92.94,0,0,0,1849,167c-6-13.26-22-12.83-22.45-29.73,2.64-1.34,13.29,5.77,15.35,7.42-3.11-5.63-55.9-59.44-63.52-56.21,1.87,4.62,4.35,7.3,5.19,12.29-10.32-12.12-26.65-14.25-32.68-2.62-2.08-3.12-13.74-4.42-14.52-9.37,1.42-1.87,3.33-4.8,5-7-2.8,2.89-2.59,3.18-4.95,6a119,119,0,0,1-14.8-3.58c0-1.58,12.25-36.79,13-37.38,9.11-7.59,39.93,9.16,47.6-2.31l-2.41-2.31c9.45-2.15,16.68,3.26,23.76,3.74s10.79-.69,18.73-.69c.18.06-7.65-6.6-6.44-3.12-9.1-3.33-.59-18.77,4.29-21.19,14-6.93,14.69,9.19,24.85,11.83,2.12-8.43,4-6.07,8-11.43a25.9,25.9,0,0,1-5-7.91c0-4.51,8.94-.42,10.69.09,3.9-1.77,1.17,30.32.63,34.11-2.15,15-6.72,16.3,6,32.36,7.18,9,25.15,23.78,36.36,29.73,9,4.75,5.29,12.72,15.58,7.63,8.13-4-6.61-12.46-6.62-14.91a29.86,29.86,0,0,0,7-3.29,65.65,65.65,0,0,0-6.16-8.54,21,21,0,0,1,8.21-1.52c-6.9-13.75-7.68-16.59-16.94-25.8-3.75-3.73-16-6.19-17.24-7.82-3.63-4.6.18-13.8-7.48-16,8.43-7.16,33.34-11.66,40.66-1.67,7.37-33.33,59.92-19.58,12.81-37.88h-937C984.6,2.65,978.85,7.12,968,3Zm39.4,337.21a5,5,0,0,0,3.49.93,22.65,22.65,0,0,0,1.22,8.08C1010.57,346.11,1009,343.09,1007.37,340.18Z"/><path class="cls-14" d="M832.36,607.58c1.17,7.3,3.29,11.93-6,12.55C848,619.86,821.1,606.82,832.36,607.58Z"/><path class="cls-15" d="M1207.93,400.87c-1.71,5.92,1.65-6,2-7.38Z"/><path class="cls-16" d="M1027.49,338.05c8.21,2.1,1.5-.39,0,0Z"/><path class="cls-17" d="M1004.1,333c3.63,10.45,2.91,1.27,0,0C1004.73,334.79,1004.4,333.11,1004.1,333Z"/><path class="cls-18" d="M1692.35,911.38c.14.54,3,1,.82,4.37C1691.11,916.45,1693,913.77,1692.35,911.38Z"/><path class="cls-19" d="M1117.49,883.55c-28.1,0-5.43-60.36-4.24-69.24,3.29-24.52,5.48-20,25.38-33.83,8.31-5.77,17.93-21.72,22.58-35.65,17.24,23.78,7.34,36.83-2.3,61.74C1151.26,826.33,1142.89,883.55,1117.49,883.55Z"/><path class="cls-20" d="M2036.6,865.31c-4-1.84-5.67-5.59-4.35-8.86C2054.62,881.66,2037.2,858.83,2036.6,865.31Z"/><path class="cls-21" d="M1939.05,794.07c-.68-3.11,0-5.51,2-7.23C1941.23,789.53,1939.4,792.89,1939.05,794.07Z"/><path class="cls-22" d="M1920.31,769.27c-8.6,0-2.74-7,0-7C1920.43,762.84,1920.56,769.81,1920.31,769.27Z"/><path class="cls-23" d="M1873.83,745q-4.1-1.95-8.11-4.07c.93-4.15,9.27-7.11,12.48-3.83C1877.77,739.71,1877.85,745,1873.83,745Z"/><path class="cls-24" d="M1920.91,739.27c4.07-5.94,2-2.9,0,0Z"/><path class="cls-25" d="M1802.58,731.39c1,.51,5.24-.43,6.66-.47C1798.84,744.11,1805.24,732.7,1802.58,731.39Z"/><path class="cls-26" d="M2049.41,728.72c.92-.7,2.12-3.92,2.82-5C2053.88,733.24,2050.15,728.16,2049.41,728.72Z"/><path class="cls-27" d="M2041.62,730.86c-28.24,0-29.89-38.21-59.41-23.27,12.89,20.17-19.82,4.09-25.17,3.46-13-1.55-28.55-.34-11.45-12.49-4-28.56-27.95-20.45-41.3-37.86-5.58,6.19-7.53,14.23-9.81,23.31,1.21-9.35-6.07-32,4.2-35.57-3-.43-18.25-7.3-18.25-11.08,0-5.55,14.34-9.21,17.71-8.36,12.48,3.14,5.84,6.51,11.32,13.31,2.94,3.64-6.72,13,7.37,14.6,7.33.83,6.38-7.64,13.07-9.45,9.43-2.55,7.14-6,19.28-5,10,.81,31,11.52,40.64,16.41,16.55,8.39,21.27,22.13,35.89,32.49-12.5,6.19,11.48,33.49,21,33.49Q2047.19,730.51,2041.62,730.86Z"/><path class="cls-28" d="M1807.71,728.08c8.56-11,21-17.42,35-16.37C1833.05,719.43,1815.74,727.81,1807.71,728.08Z"/><path class="cls-29" d="M1781.79,725.8c-3.83,0-9.61-2.82-13.18-4.5,10-1.47,8.93-.68,19.43,3.48C1786,724.92,1783.79,725.8,1781.79,725.8Z"/><path class="cls-30" d="M2046.56,721.81a13.56,13.56,0,0,1-4.38-12.64C2057.61,707.46,2054,717.35,2046.56,721.81Z"/><path class="cls-31" d="M2066.6,720.59a31.58,31.58,0,0,1-3.15-7.17C2073.46,714.6,2066.57,717.62,2066.6,720.59Z"/><path class="cls-32" d="M1756.53,718.74c-1.18,0,6-11.88,0,0Z"/><path class="cls-33" d="M1786.4,713.2a7.29,7.29,0,0,1-7.74.46c3.91-10.31,12.59-3.18,14.71,2.42C1778.84,719.87,1791.07,717.85,1786.4,713.2Z"/><path class="cls-34" d="M1744.91,712.19c0-5.07,11.25-4.28,14.36-3.5C1752,716.48,1748.71,713.69,1744.91,712.19Z"/><path class="cls-35" d="M1738.11,714.63c-24.08-12-61.86-2.7-85.71-22,6.91-9.63,10.39-6.27,18.25-6.88,5.3-.41,18.31,5.68,23.56,6.7,2.71.53,6.2-3.66,10-2.53C1716.75,693.71,1742.2,705.71,1738.11,714.63Z"/><path class="cls-36" d="M1796.94,713.67c.17-.12-.46-5-.48-5.63,1.81.46,7,.79,8.81,1.71C1803.55,716.18,1801.54,711.57,1796.94,713.67Z"/><path class="cls-37" d="M1761.57,713.67c-1.21-1.81-.74-7.16-.48-9.71,3.72,1.87,10.88,6.69,13.74,9.71C1770.49,713.67,1765.87,714.12,1761.57,713.67Z"/><path class="cls-38" d="M1823,711.65c.18-1.76-1-3.6.8-5.59C1824.13,708.06,1823,711,1823,711.65Z"/><path class="cls-39" d="M1834.37,706.6c-2.43,0-3.18-5.44-2.88-7l7.1,3Z"/><path class="cls-40" d="M1878.38,705.11a16.52,16.52,0,0,1,4.94-9.17C1883.93,702.73,1880.38,702.5,1878.38,705.11Z"/><path class="cls-41" d="M1906.63,693.15q-7.39-7.59,3.16-14.59l2.8,1.94c.19,4.28-3.33,15-6,12.65C1905.1,691.79,1907,693.5,1906.63,693.15Z"/><path class="cls-42" d="M2044.7,687.39q-6.6-1.41-13.15-3c1.32-10.3,31.33-4.94,32.17-22.06.25-5.19-14.36-11.63-17.47-14.23C2064.63,637.72,2086.64,687.39,2044.7,687.39Z"/><path class="cls-43" d="M1649,683.79c-18,0-35.38-42.56-40.75-52.8-11.19-21.36-37.65-40.84-44.5-62.27,26.44,7.48,22.13,11.32,40.94,28.4,11.78,10.69,26.36,14.59,37.9,26.73-3.65,7.24,3.38,25.85,17.23,26.18-1.54-3.14-3.42-5.48-4.86-8.61,5.46,3.32,9.33,5.21,11.45,14.54q-2.92-2.62-5.84-5.26C1660.92,662.47,1662.65,683.79,1649,683.79Z"/><path class="cls-44" d="M1775.72,682.32c-3.14-17-2.4-35.31,4.36-49.62,10.1-21.4,25.78-19.6,48.15-24.11.65,32.81-46.35-5.79-44,24.79,1.28,16.43,29.32-15.15,29.32,9-19.72,0-10.28,25.22-3,37.43-19,4.31-14.39-31-24.69-27.71-2,.64-1.92,27-4,30.21Z"/><path class="cls-45" d="M1842.46,665.16c-4.11,0-4.88-7.84-4.49-10.53,2.31.45,11,3.73,11.9,4.65A15.46,15.46,0,0,1,1842.46,665.16Z"/><path class="cls-46" d="M1736.32,665.16q-4.9-.84-1.5-6.64c-23,7.71-35.94-3.72-43-23.6-8.12-22.82-9.5-25.33,11.13-25.33-1.13-11.85,21.5-23.58,27.88-33.13a1.24,1.24,0,0,1-1.71.69c13.87.4,14.9-19.32,27.19-26.14,1.11,14.3,13.15,13.13,16.86,25.54-8.08,4.79-6.77,12.41-15.41,16.75,3.88.38,14.64,19.39,16.38,24.7-8.61,0-7.14,3.46-13.33,6.62,7.38-2.27-8.35,20-8.93,21C1747,654.12,1750.42,664.63,1736.32,665.16Z"/><path class="cls-47" d="M1873.83,662.12c-7.9,0-9.38-10.68-18.88-1.16a14.4,14.4,0,0,1-.81-9.44C1856.63,652,1890.28,662.12,1873.83,662.12Z"/><path class="cls-48" d="M1673.07,658.08c.37-2.54.74-5.09,1.1-7.63a9.46,9.46,0,0,1,7.94,4.93C1679.28,657,1675.91,656.72,1673.07,658.08Z"/><path class="cls-49" d="M1823,647.8c-2-2,11.38-13.6,17-.88-5-1.75-6.77.19-11.1.47V641.6C1827.71,643.29,1823.5,647,1823,647.8Z"/><path class="cls-50" d="M1870.82,641.92c3.23,2.12,6.7-.52,4.49,6Q1873.07,644.89,1870.82,641.92Z"/><path class="cls-51" d="M1921.33,644.91c1.87-.63,2.3-6.36,10.23,0Z"/><path class="cls-52" d="M1600.84,644.91q-4.53-2.89-3.56-8.56C1599.52,637.73,1600.84,644.92,1600.84,644.91Z"/><path class="cls-53" d="M2076.59,638.25c.94,3,4.09,3.29,0,6.33Z"/><path class="cls-54" d="M1915.36,634.81c4-1,5.07-5.49,10,0Z"/><path class="cls-55" d="M1854.62,634.81c-8,0-5.66-20.7-5.56-27.77a22,22,0,0,1,8.75,4.61,4,4,0,0,1-.68-3.14c3.36,5.3,3.43,12.15,6.95,17.47-3,1-5.89-1.66-8.59-2.34C1856.34,625.77,1855.43,634,1854.62,634.81Z"/><path class="cls-56" d="M1854.28,605.32c2-2.42,1.66-5,3.8-6.38C1858.08,625.77,1857.28,601.77,1854.28,605.32Z"/><path class="cls-57" d="M1577.57,604.5c-8.53,0-4-5.83-9.61-3.72C1575.48,596.48,1574.83,602.11,1577.57,604.5Z"/><path class="cls-58" d="M810.1,598.39c-4.31,0-3.33-4.4,0,0Z"/><path class="cls-59" d="M1434.73,570.08c-7.25-11.84-7.76-26.35-2.23-39C1445.52,539.62,1463.24,568.17,1434.73,570.08Z"/><path class="cls-60" d="M1786.45,565.1a60.3,60.3,0,0,0,6.48,1,6.66,6.66,0,0,1-.85,3.21Z"/><path class="cls-61" d="M1820.21,568.06c-5.39-6.34-6.81-9.1-3.42-15.86-8.63,1.16-7.57-2.59-15.19,3.49-8.89-17.57,21.8-15.32,27.23-31.66,8.48,8.22,12.13,25.4,9,38.61q-3.76-3.2-1.92-7.34a5,5,0,0,1-4.65-1C1821.83,568.77,1835.71,568.23,1820.21,568.06Z"/><path class="cls-62" d="M1802,564l-9.44-4.21C1802.93,554.11,1800,561.6,1802,564Z"/><path class="cls-63" d="M1756.05,542.3c0-5.58,14.29-26.16,18.5-27.73C1781.84,524.12,1761.83,540.17,1756.05,542.3Z"/><path class="cls-64" d="M1805.06,535.71c-10.63,0-3.17-16.76.07-20.43C1806.85,517.48,1814,535.71,1805.06,535.71Z"/><path class="cls-65" d="M1799,520.52c-8,0-5.43-11,3-11C1802.72,511.81,1803.34,520.52,1799,520.52Z"/><path class="cls-66" d="M1819.87,519.42l-5-4a6.43,6.43,0,0,1,5.31-2.88C1820.35,513.26,1820.84,522.29,1819.87,519.42Z"/><path class="cls-67" d="M1823.28,515.49a47.07,47.07,0,0,0-8.5-11.35c2.91-3.09,8.84-1.72,12.51-1.72C1823.27,512,1830.08,511.32,1823.28,515.49Z"/><path class="cls-68" d="M1810.13,508.4a13.55,13.55,0,0,1-5.71-3.46,14.87,14.87,0,0,0,2.17-3.08C1834.14,508.28,1809.27,507.64,1810.13,508.4Z"/><path class="cls-69" d="M1792.45,501.86c.67,1,4.93-3.11,4,4.06a35.32,35.32,0,0,0-4,1.8Z"/><path class="cls-70" d="M1787.65,504.27c-4.06-2.29-9.14-10-10.74-14C1785.77,493.24,1789.43,497.33,1787.65,504.27Z"/><path class="cls-71" d="M1811.67,500.33c-.67-1.35-3.87-3-4.6-4C1814.15,496.69,1811.35,499.68,1811.67,500.33Z"/><path class="cls-72" d="M1804.91,495.23q-1.15-3.84-2.3-7.69C1820.18,496.45,1804.75,494.56,1804.91,495.23Z"/><path class="cls-73" d="M1795.19,492.83c-8.1,0,1.55-6.6,4.82-6.6C1801.21,489.49,1800.25,492.83,1795.19,492.83Z"/><path class="cls-74" d="M1784.82,490.2c-10,0-3.51-4.75-3.51-7.55-14.17-1.41-15.56-16.62-7.63-20.68.71,0-.2-19.11-.89-21.24a104.08,104.08,0,0,1,14.56,1.33c5.79,9.17,4.86,25.87-1.11,34.81C1791.75,478.25,1796.4,490.2,1784.82,490.2Z"/><path class="cls-75" d="M1098.28,472c-7.56,0-8.58-5.71-5.46-11.78C1096.62,459.45,1098.32,472.15,1098.28,472Z"/><path class="cls-76" d="M1675.64,445.73c-5.08,0-7.73-5.64-8.08-8.1C1669.85,407.81,1705.89,445.73,1675.64,445.73Z"/><path class="cls-77" d="M1763.6,404.26c-13,0-4.34-25.63,1.28-25.6C1777.87,378.72,1774.18,404.26,1763.6,404.26Z"/><path class="cls-78" d="M1826.29,317.31c-8.9,0-8.25-10.67-6.54-15.8-3.89.47-9.1-2.52-9.1-6.94,1.19-1.84,6.21-3.64,8.33-3.39-13.12-10.39,29-30,29-16.81,1.77-6.42,3.23-11.93,3.09-20.35,5,1.77,7.79,5.19,13.21-2.2a25.56,25.56,0,0,1-6-5.45c-.32-.1,11.18,2.23,9.47,2.23,3.23-8.43-21.06-28.3-3.23-34.35,2.78,5.26,31,24.3,14.52,32.22,7.64.3,11.47,26,11.42,31.92-2.49.35-4.28-1.17-5.39-4.56-2,3.69-2.13,6.4-4,11-.08,0-7.5-5.51-8-6,.3.2-.5,5.71.91,5.07-2.19-1.79-9.38-3.31-11.29-5.07,1.16,6-.74,8,1.15,14.18-9-1.73-9.51-9.48-15-10.14-10.58-1.29-17,8.67-26.61,9.11C1828.88,294.72,1838.28,317.31,1826.29,317.31Z"/><path class="cls-79" d="M1838.45,301.13c-18.24,0-1.16-15,9.08-15.08C1845.24,290.87,1842.37,297.24,1838.45,301.13Z"/><path class="cls-80" d="M1784.34,292.49c.81,2.69,5.55,1.73.7,4.57C1783.6,296.3,1785.06,294.91,1784.34,292.49Z"/><path class="cls-81" d="M996.75,282.7a45.3,45.3,0,0,1,17.52-7.81C1016.09,281,1002.76,292.61,996.75,282.7Z"/><path class="cls-82" d="M936.49,286c-6.69,0-12.32-3-13.62-8.52,6.91-.88,16.16,3.37,22.48-.41C946.57,282.81,942.62,286,936.49,286Z"/><path class="cls-83" d="M957.24,268.14c.91,3.42,4,3.83,0,7.78Z"/><path class="cls-84" d="M853.6,267.77c-2.94,0-23.06-12.89-23.74-15.56a99.8,99.8,0,0,0,23.74-.59C854,256.65,854.77,263.68,853.6,267.77Z"/><path class="cls-85" d="M950.6,267.18c-5.77,0,3.37-2.34,5.28-2.39A6.93,6.93,0,0,1,950.6,267.18Z"/><path class="cls-86" d="M802.8,245.49c-12.65-6.31-7.86-20.26,1-26.11C813.35,225.33,807,240.92,802.8,245.49Z"/><path class="cls-87" d="M755.27,242.46,751,233.9C757.25,235.3,754.71,238.82,755.27,242.46Z"/><path class="cls-88" d="M801,218.22c-9.91,0,4.08-17.87,4.53-18.23C807.51,209.52,807.06,217.19,801,218.22Z"/><path class="cls-89" d="M1849.54,214.18c-2.07-7.48,1.86-16.23.77-19.47-1-3-10.33-16.6-10.33-18.41,10.3-5.58,28.58,23.8,36.39,8.76,4.22,2.24,11.11,8.58,13.24,11.6-6.18.67-16.13,2.3-13.32,10.8-8,.87-15.13-3.28-23.6-2.44C1861.51,213.21,1859.65,212.05,1849.54,214.18Z"/><path class="cls-90" d="M1881.42,189.42c0-8.17,1.43-2.56,0,0Z"/><path class="cls-91" d="M1888.55,179.53l7.51-4.75C1896.47,188,1889.79,179.58,1888.55,179.53Z"/><path class="cls-92" d="M1910,164.63c0-.34-.28-5.43-.28-6.52C1921.71,160.42,1910.22,163.14,1910,164.63Z"/><path class="cls-93" d="M1912.79,139.86c.69-3.41-1.17-4.68,1.5-6.51C1915.39,136.66,1913,138.73,1912.79,139.86Z"/><path class="cls-94" d="M689.3,136.85c0-10.36,10.92-9.56,17.26-12.89-2.38.61-14.22-1.62-14.22-4.29,0-2.2,2.5-9.73,2.5-9.67,3-8.48,9.25-4.07,13.76-10.85-13.82-7-11.2-9.57-11.2-21q-3.76,4.11-7.29,8.43c-8-10.55-6.15-25.78-7.87-35.19,5.55-.56,12.61,2,17.66,2,1.72,5.55-7.85,4.7-7.85,8.07.73,2.37,25.49,2.13,23,2.07-3.17,4.41-1.68,10-12.14,10,11.76,4.46,40.12,33.25,39.83,42.69C742.23,133.31,701.32,134.34,689.3,136.85Z"/><path class="cls-95" d="M1910.56,131.25a22.7,22.7,0,0,1,3.73-7C1915.79,128.52,1912.69,128.4,1910.56,131.25Z"/><path class="cls-96" d="M655.53,121.14c-.91-5.75-.52-9.21,4-9.21s-6.66-13.7-6.59-13.4c9-3.26,18.36-22,27-20.85,2.37.31,9.44,17.2,4.81,18.19C702.57,96.86,654.27,140.52,655.53,121.14Z"/><path class="cls-97" d="M812.71,91.48c-1.36-4-3.06-6.9-3.09-11.27C821.85,78.88,821.56,85.55,812.71,91.48Z"/><path class="cls-98" d="M861.6,68.92c-13.8,0,5.58-14.76,5.58-6.91A7.17,7.17,0,0,1,861.6,68.92Z"/><path class="cls-99" d="M1886.73,49.29c2.23-2.7-1.23-7,6.27-7,1.14,2.93,1.25,3.1,2,4.05C1892.15,53.84,1890.61,48.36,1886.73,49.29Z"/><path class="cls-2" d="M2830.93,61.84a5,5,0,0,0-.11-.73C2830.85,61.35,2830.89,61.59,2830.93,61.84Z"/><path class="cls-2" d="M2824.92,49.51l.54-.46C2824,46.52,2824.14,47.35,2824.92,49.51Z"/><path class="cls-2" d="M2713.85,0H2220.39c-16.9,6.21-30.63-4-47.15,12.73,8,3.21,17.29,2,25.17-1.81-3.48,17.32-34.18,11.3-40.34,14.21C2146,30.82,2130.66,45,2123.94,55c6.82,1.69,14.09-2.95,20.42-4.8-1.65,2.63-14.73,10.7-14.73,15.44s29,.8,30.56,1.63c-5.23,3.15-59,26.42-48.07,30.2,20.52,7.12,50.39-30.55,70.09-28.76,0,12.33-20.66-.06-6.32,16.84a32.13,32.13,0,0,1,19.4-13.8l-.57-3.53c-2.49.49-9.43,3.86-11.44.57,13.28.62,29.36-25.12,48.51-24.54-1.18,3.22-31.57,11.56-23.82,18.84,14.21,0,24-11.35,35.49-13.5,6.38-1.19,6.13-.65,12.69-.5,14.49.34,46,8.33,48.76,24.94,5-5.87,13-4.51,14.81-7.35,1.09,16.95-13.47,58.88,3.47,59.12-19.07,17,1.3,7.32,6.65,21.75,2.85,7.68,9.37,25.51-5.12,30.35a74.77,74.77,0,0,0,2.62-12.58c-19.67-2.53-54.13,75.34-54.13,98.53.74-.7,3.23-1.65,4.21-3.24.42,8.29-4.38,25.95.64,35.45,4,7.56,16.5,8.94,21.45,17.9,3.39,6.15-.61,21.4,1.27,29.08,1.84,7.46,19.23,23.32,1.78,25.06,1.83,8.27,13.16,8.25,15.53,14.5-.2-.52,1,12.49.4,11.56,4.05,6.13,9.5,18.69,15.07,24.82,12.85-6.36-24.23-75.43-18.64-91,17.44,8.83,26.55,50.24,37.18,67.49,8.1,13.13,15.14,20.64,19.21,35.22,2.81,10.08-6.84,10.88,2.27,23.7,3.34,4.7,18.1,9.63,23,12.56,9.25,5.58,24.66,19.36,36.54,20.37,12.59,1.07,19.84-5.25,31.69-.83-6-2.22,14.15,13.15,13.6,13.2,4.74,2.24,29.82,8.51,37.26,14,14.71,10.78,9.58,26.23,21.44,33.34,0-.09-1.82-4.9-2.59-6.61,3.35,3.29,13,10.8,9,9,8,4,10.61,11.21,19.82,13.76q4.89,3.72,9.72,7.5,7.21-3.12,5.87-11.4l6.86-7a18.7,18.7,0,0,0,11.21,7.49c-4.23,13.47,3.28,9,3.9,22.5.94,20.45-2.77,22.77-13.57,38.74-4,5.92-16,20.52-17.23,27.51-3.9,21.94-2.28,9,8.56,15.74,0,14.46-16.47,22.23-10,39.21,2,5.35,16.16,16.17,20.15,22.69,5.65,9.25,9.87,20.16,14.8,29.85,10.15,20,15.44,33.77,36,47.91,20.3,14,31,13.7,34.92,40.52,5.94,40.64,5.82,85,8.37,126.08.91,14.79-6.88,32.11-5.07,45.49.82,6,4.91,25.3,7,29.47,5.78,11.43,11.12,7.83,14.93,16.94,1.86,4.45,1.83,11.07,2.13,17.63h58.27c.8-9.51,2.52-17.63-4.08-33.09,9.61,0,14.3,8.19,22.16,1.39,3.65-3.16-3.11-10.57-1.44-12-2.72,2.28,3.55-9.34,2.81-9,3.79-3.23,13.48,1.33,17.92-1,41.51-22-3.47-26.81-.22-51.94,19,46.44,52-18.49,61.71-36.16,14.54-26.43.52-44.29,31.52-61.92,14-8,26.67-8.48,35.85-18.71,12.29-13.69,16.34-40.76,17.23-58.21.85-16.57-.73-20.67,4.64-33.3,4.6-10.86,15.28-18.7,21-29.51,5.84-11,10.35-29.42,2.12-41.33-4.83-7-9.91-2.49-13.84-6.11-8.86-8.15-51.57-41.75-65.78-21-2.45-14-14.65-25-30.87-23.36-3.17.33-11.78,11.07-18.1,12.36-2.94.6-13.38-3.67-18.84-3.52,5-5.62,15.18-15.16,16.82-21.91,2.48-10.18-1.25-4.85-4-15-4.24-15.62-11.6-27.7-26.16-33.41-12.41-4.87-25.14-1.33-36.91-7.59-6.21-3.31-26.16-23.13-26.72-31.25-9.64,0-4.83-6.21-13.32-8.75-7.75-2.31-9.37,3-20.31,3.81-14.89,1.17-34.3-6.56-46.68-18-1.35,2.71-11.59,29.73-6.64,33.1-22.3,0,14.63-34.25-11.22-33.21.21,0-18.48,8.64-19.71,9.56-4.58,3.39-11.38,18.22-16,20.79-5.51,3.1-26.26,0-35.64-1.79-17.71-3.36-26.44.87-27.6-25.29-.29-6.51,11.39-33.07,6-39.82-4.33-5.4-42.05,2.68-45.16,4.83,7.79-7.84,20.27-59.86,18.35-61.48-12.91-10.88-29,12.41-33.86,16.37-12.56,10.32-4,12.63-22.6,14.24-44.44,3.85-29.89-41.92-23.44-65.64,5.16-19,.07-31.21,25.86-40,11.61-3.94,18.66-.79,27.79-4.4,0,12,16.53,4.78,21.16,3.93a77.84,77.84,0,0,1-6.06-9c0-7,35.61,1.11,37.39,1.67,15.08,4.75,12.9-.52,21.32,14.5,3.2,5.7,3.54,37,14.41,34.73,9.31-1.93,4.78-60.44,12.43-70.24,12.31-15.76,64.19-30.88,43.57-51,3.5-.35,7-.84,10.43-1.46-.7-.76-6.21-10.36-6.53-11.64.95-.64,5.76-4.16,9.31-7-.55,6,0,12.06-.7,18,6.66-7.83,6-14.7,6.54-24.22,1.25,2.61,3.36,3.53,4.56,8,9.66-6.51,7.75-16.36,15.5-21.41,13.6-8.84,25,1,30.83-12.34-.6.31-4.18,3.22-4.05,3.7-12-12.07,55.43-36.19,66.2-32.86-7.7,3.78-26.56.6-26.56,14,0,4.89,40.85-11.17,45.44-15.14-.19-1.51-.39-3-.58-4.53-20.27,4.47-22.85-4.42-18.95-18.18a105.94,105.94,0,0,0-12.38-3c9.88-.28,31.2-4.42,13-13.45-20.85-10.35-39.67,25.68-55.91,28.14,3.92-15.66,42.49-35,57.15-38.06,12.29-2.57,28.36,5.78,39.45,3,21-5.22,43.25-19.74,43.33-37.34-8.23,2.76-20.37,1.89-29.5,3.3,5.11-5.78,17.59-1.6,20.67-11.37-9.12-2.73-18.26-6.35-24.17-14.29,8.58-4.34,2.11-16.37.9-23.43.11,2.16-4.39-7.88-6-12.33-12.09,10.55-24.94,17.68-39.14,23.3,2.31-9.22,3.21-6.61,2-11.7,22.94-23.79-27.05-40.2-46-25.66-1,.73-16.33,21.93-17,24.55-1.61,6.19,4.77,14.59,3.46,17.77-7.16,17.48-19.48,12.54-30.3,22.53-7.9,7.28-11.28,25.76-21.47,36.78C2663,124,2675,114.64,2668.3,105.45a8.81,8.81,0,0,0,4.92-6.93c-10.78.44-16.24-.23-24.69-3.9-.11-.05-33.68-23.73-35.63-16.53,1-9.52,3.27-9.18-4.05-13.45,0-30,40.91-24.66,51.43-42.81a36.57,36.57,0,0,0-6.81-3.24c15.36,3.91,38.18-2,42.86-14.12-5.12,0-16,2.54-18.18-4.09C2687.07,3.13,2702.3,3,2713.85,0Z"/><path class="cls-2" d="M2478.36,499.64a4.26,4.26,0,0,1-.48-.24A1.36,1.36,0,0,0,2478.36,499.64Z"/><path class="cls-2" d="M2692.3,1070.14c-6.2,0-6-11.35-3.36-13.94C2692.9,1055.8,2697.24,1070.14,2692.3,1070.14Z"/><path class="cls-2" d="M2768.12,1067.12c-6.71,0-1.27-8.06-.42-9.78C2776.66,1063.64,2769.87,1063.71,2768.12,1067.12Z"/><path class="cls-2" d="M2841.94,655.59q-5.49-2.67-11.12-5.07c-7.35-16.15,22.83-10.63,28.31-9C2856.84,650.93,2851.36,656.2,2841.94,655.59Z"/><path class="cls-2" d="M2741.65,542.34c1.12-3.07-1.86-8.6,5.24-9C2748.63,540,2744.24,538.49,2741.65,542.34Z"/><path class="cls-2" d="M2717.45,532c-3,0-3.91-1.59-3.39-4.28a17.94,17.94,0,0,1,8.58.57C2722,529.88,2719.71,532,2717.45,532Z"/><path class="cls-2" d="M2675,521.13c2.72-.8,1.85-5.53,4.6-.68C2678.77,521.82,2677.37,520.42,2675,521.13Z"/><path class="cls-2" d="M2613.1,405.7c-4.92-4.88-5-11.27-1.22-16.67C2619.24,395.34,2615.12,398,2613.1,405.7Z"/><path class="cls-2" d="M2631.15,401.34c0-2.58.44-5,1.91-6.3C2635.78,400.49,2631.17,401.29,2631.15,401.34Z"/><path class="cls-2" d="M2627.19,396.53c-1.27-3.24-3.46-5.94-4.13-9.45C2633,392.46,2626.56,394.67,2627.19,396.53Z"/><path class="cls-2" d="M2622.07,385.29c-2.37-7.12-1.64-10.64-10.06-13.73C2622.5,371.22,2624,380.71,2622.07,385.29Z"/><path class="cls-2" d="M2607.9,379.55Z"/><path class="cls-2" d="M2682.19,239c.69-6.14,12.89-7,17.17-7C2698.91,239.89,2686.75,239.05,2682.19,239Z"/><path class="cls-2" d="M2805.54,188.21c-10.07,0-.48-4.25,3.89-5.75C2811,186.11,2810.11,188.21,2805.54,188.21Z"/><path class="cls-2" d="M2800,181.94a9.26,9.26,0,0,1,7.4-6.53C2809.25,189.59,2801.23,182.78,2800,181.94Z"/><path class="cls-2" d="M2789.36,185.44a20.63,20.63,0,0,1-13.38-4.13c1.05-3.27,5-4.58,7.63-6.15,3.57,2.11,5.82,5.27,11,7.31A4.42,4.42,0,0,1,2789.36,185.44Z"/><path class="cls-2" d="M2845.53,173c3.83-1-22.57,1.47-23.74-7.35-.7-5.31,29.05-31.44,35.37-34.26-2.92,4.31.29,10.18-8,12.43,5.68,3.39,3.36-2.86,3.36,5.76,2.88,2,14.23,4,17.7,3.77-.77,7.82-4.19,1,.46,10.19a108.43,108.43,0,0,0-22.9,16.24Z"/><path class="cls-2" d="M2865.21,178.35c-3.16.63-5.35-.54-6.55-3.5a14.18,14.18,0,0,1,12.61-7.56A10.62,10.62,0,0,1,2865.21,178.35Z"/><path class="cls-2" d="M2800.23,170.86c-9.65,0,2.76-3.44,5-3.8C2804.74,169.24,2803.07,170.51,2800.23,170.86Z"/><path class="cls-2" d="M2323.24,160.13c-8.07,0-19.69-11.88-19.69-19.69,12.62-1.21,18.53,7.92,25.13,18A12.91,12.91,0,0,1,2323.24,160.13Z"/><path class="cls-2" d="M2800.49,156.09c-5,0-9.58-3.92-12.12-8C2793.39,147.89,2811.4,156.09,2800.49,156.09Z"/><path class="cls-2" d="M2295.53,129.6c-20.55-30.92,26.08-24.09,0,0Z"/><path class="cls-2" d="M2673.09,121.71c-5.24,0-1.16-7,2-7C2682,120.77,2673.39,121,2673.09,121.71Z"/><path class="cls-2" d="M2313.13,97.48c-4.77-5.77-4-10.12,3.92-12.09C2320.27,94.73,2315.71,94.43,2313.13,97.48Z"/><path class="cls-2" d="M2696.76,91.35c5.22-3.18,2.27-6,10.7-6C2706.07,91.08,2700.31,89.41,2696.76,91.35Z"/><path class="cls-2" d="M2309.06,88.34c-1.19,0-6.76-7.66-6.5-8.67C2307.54,79.68,2315.92,88.34,2309.06,88.34Z"/><path class="cls-2" d="M2164,87.33c1.69-1.76,0-6,5.52-6C2170.59,89.2,2167.25,84,2164,87.33Z"/><path class="cls-2" d="M2313.13,81.29c1.14-3.61-2.89-5.11,2-6C2317.37,80.84,2313.54,80,2313.13,81.29Z"/><path class="cls-2" d="M2303.89,77.22c3.05-2.4,4.46-5.58,8-8l2.69,3.16C2309.85,75.49,2308.18,75.52,2303.89,77.22Z"/><path class="cls-2" d="M3035.71,0h-110.3c.46,11,8,.08,3,9,3.56,6,4.72,11.52,9.42,19.36,5.55,9.27,9.75,10,17.47,15.82-.44-.33,14.67,9.77,14,9.77,2.73,0,40-43,38-49.27C3017.7,5.83,3027,3.61,3035.71,0Z"/><path class="cls-2" d="M2726.69,36.81c2.33-2.33,1.55-7.45,7.54-5.55C2734.23,43.44,2730,33.48,2726.69,36.81Z"/><path class="cls-2" d="M2821.73,32.74c11.19,0-6.26-12.21-7.09-14.16C2853,40.52,2839.18.11,2829.28,1.91A18.9,18.9,0,0,0,2831.15,0h-42.51c-7,3.54-13.9,7.14-13.9,7C2774.74,16.15,2813.67,32.74,2821.73,32.74Z"/><path class="cls-2" d="M2845.51,0c.06,10.28,10.4,5.69,19.36,0Z"/><path class="cls-2" d="M2708.48,32.74l-5.41-2.2c1.41-5.65,11.22-8.8,15.77-5.76A12.45,12.45,0,0,1,2708.48,32.74Z"/><path class="cls-2" d="M2749.93,25.66c-2.92.55-4.76-.61-5.53-3.5C2750,17.53,2749.31,24.73,2749.93,25.66Z"/><path class="cls-2" d="M2702.41,23.65a11.81,11.81,0,0,1-9.58-5.55c13.79-19.21,22-15.39,39-3.58-.56-1.32-3.72,2.78-3.85,2.91,6,.65,4.64-.24,5.21,4.73C2720.62,18.77,2714.51,23.65,2702.41,23.65Z"/><path class="cls-2" d="M3117,2.39a75.29,75.29,0,0,1,11.6,1.71c-3.63,1.43-8.29.22-12.07.84v5.2c15.81-5.68,15.75,11.47,28.77,11.47,15.51,0,38.18-7.73,37.29-21.61h-60.65A15.23,15.23,0,0,1,3117,2.39Z"/><path class="cls-2" d="M2762.07,14.52a45.54,45.54,0,0,1-7.24-3.06q7.1-8.37,18.36-7Q2772.46,14.85,2762.07,14.52Z"/><path class="cls-100" d="M2824.92,49.51l.54-.46C2824,46.52,2824.14,47.35,2824.92,49.51Z"/><path class="cls-101" d="M2830.93,61.84a5,5,0,0,0-.11-.73C2830.85,61.35,2830.89,61.59,2830.93,61.84Z"/><path class="cls-102" d="M2478.36,499.64a4.26,4.26,0,0,1-.48-.24A1.36,1.36,0,0,0,2478.36,499.64Z"/><path class="cls-103" d="M2713.85,0H2220.39c-16.9,6.21-30.63-4-47.15,12.73,8,3.21,17.29,2,25.17-1.81-3.48,17.32-34.18,11.3-40.34,14.21C2146,30.82,2130.66,45,2123.94,55c6.82,1.69,14.09-2.95,20.42-4.8-1.65,2.63-14.73,10.7-14.73,15.44s29,.8,30.56,1.63c-5.23,3.15-59,26.42-48.07,30.2,20.52,7.12,50.39-30.55,70.09-28.76,0,12.33-20.66-.06-6.32,16.84a32.13,32.13,0,0,1,19.4-13.8l-.57-3.53c-2.49.49-9.43,3.86-11.44.57,13.28.62,29.36-25.12,48.51-24.54-1.18,3.22-31.57,11.56-23.82,18.84,14.21,0,24-11.35,35.49-13.5,6.38-1.19,6.13-.65,12.69-.5,14.49.34,46,8.33,48.76,24.94,5-5.87,13-4.51,14.81-7.35,1.09,16.95-13.47,58.88,3.47,59.12-19.07,17,1.3,7.32,6.65,21.75,2.85,7.68,9.37,25.51-5.12,30.35a74.77,74.77,0,0,0,2.62-12.58c-19.67-2.53-54.13,75.34-54.13,98.53.74-.7,3.23-1.65,4.21-3.24.42,8.29-4.38,25.95.64,35.45,4,7.56,16.5,8.94,21.45,17.9,3.39,6.15-.61,21.4,1.27,29.08,1.84,7.46,19.23,23.32,1.78,25.06,1.83,8.27,13.16,8.25,15.53,14.5-.2-.52,1,12.49.4,11.56,4.05,6.13,9.5,18.69,15.07,24.82,12.85-6.36-24.23-75.43-18.64-91,17.44,8.83,26.55,50.24,37.18,67.49,8.1,13.13,15.14,20.64,19.21,35.22,2.81,10.08-6.84,10.88,2.27,23.7,3.34,4.7,18.1,9.63,23,12.56,9.25,5.58,24.66,19.36,36.54,20.37,12.59,1.07,19.84-5.25,31.69-.83-6-2.22,14.15,13.15,13.6,13.2,4.74,2.24,29.82,8.51,37.26,14,14.71,10.78,9.58,26.23,21.44,33.34,0-.09-1.82-4.9-2.59-6.61,3.35,3.29,13,10.8,9,9,8,4,10.61,11.21,19.82,13.76q4.89,3.72,9.72,7.5,7.21-3.12,5.87-11.4l6.86-7a18.7,18.7,0,0,0,11.21,7.49c-4.23,13.47,3.28,9,3.9,22.5.94,20.45-2.77,22.77-13.57,38.74-4,5.92-16,20.52-17.23,27.51-3.9,21.94-2.28,9,8.56,15.74,0,14.46-16.47,22.23-10,39.21,2,5.35,16.16,16.17,20.15,22.69,5.65,9.25,9.87,20.16,14.8,29.85,10.15,20,15.44,33.77,36,47.91,20.3,14,31,13.7,34.92,40.52,5.94,40.64,5.82,85,8.37,126.08.91,14.79-6.88,32.11-5.07,45.49.82,6,4.91,25.3,7,29.47,5.78,11.43,11.12,7.83,14.93,16.94,1.86,4.45,1.83,11.07,2.13,17.63h58.27c.8-9.51,2.52-17.63-4.08-33.09,9.61,0,14.3,8.19,22.16,1.39,3.65-3.16-3.11-10.57-1.44-12-2.72,2.28,3.55-9.34,2.81-9,3.79-3.23,13.48,1.33,17.92-1,41.51-22-3.47-26.81-.22-51.94,19,46.44,52-18.49,61.71-36.16,14.54-26.43.52-44.29,31.52-61.92,14-8,26.67-8.48,35.85-18.71,12.29-13.69,16.34-40.76,17.23-58.21.85-16.57-.73-20.67,4.64-33.3,4.6-10.86,15.28-18.7,21-29.51,5.84-11,10.35-29.42,2.12-41.33-4.83-7-9.91-2.49-13.84-6.11-8.86-8.15-51.57-41.75-65.78-21-2.45-14-14.65-25-30.87-23.36-3.17.33-11.78,11.07-18.1,12.36-2.94.6-13.38-3.67-18.84-3.52,5-5.62,15.18-15.16,16.82-21.91,2.48-10.18-1.25-4.85-4-15-4.24-15.62-11.6-27.7-26.16-33.41-12.41-4.87-25.14-1.33-36.91-7.59-6.21-3.31-26.16-23.13-26.72-31.25-9.64,0-4.83-6.21-13.32-8.75-7.75-2.31-9.37,3-20.31,3.81-14.89,1.17-34.3-6.56-46.68-18-1.35,2.71-11.59,29.73-6.64,33.1-22.3,0,14.63-34.25-11.22-33.21.21,0-18.48,8.64-19.71,9.56-4.58,3.39-11.38,18.22-16,20.79-5.51,3.1-26.26,0-35.64-1.79-17.71-3.36-26.44.87-27.6-25.29-.29-6.51,11.39-33.07,6-39.82-4.33-5.4-42.05,2.68-45.16,4.83,7.79-7.84,20.27-59.86,18.35-61.48-12.91-10.88-29,12.41-33.86,16.37-12.56,10.32-4,12.63-22.6,14.24-44.44,3.85-29.89-41.92-23.44-65.64,5.16-19,.07-31.21,25.86-40,11.61-3.94,18.66-.79,27.79-4.4,0,12,16.53,4.78,21.16,3.93a77.84,77.84,0,0,1-6.06-9c0-7,35.61,1.11,37.39,1.67,15.08,4.75,12.9-.52,21.32,14.5,3.2,5.7,3.54,37,14.41,34.73,9.31-1.93,4.78-60.44,12.43-70.24,12.31-15.76,64.19-30.88,43.57-51,3.5-.35,7-.84,10.43-1.46-.7-.76-6.21-10.36-6.53-11.64.95-.64,5.76-4.16,9.31-7-.55,6,0,12.06-.7,18,6.66-7.83,6-14.7,6.54-24.22,1.25,2.61,3.36,3.53,4.56,8,9.66-6.51,7.75-16.36,15.5-21.41,13.6-8.84,25,1,30.83-12.34-.6.31-4.18,3.22-4.05,3.7-12-12.07,55.43-36.19,66.2-32.86-7.7,3.78-26.56.6-26.56,14,0,4.89,40.85-11.17,45.44-15.14-.19-1.51-.39-3-.58-4.53-20.27,4.47-22.85-4.42-18.95-18.18a105.94,105.94,0,0,0-12.38-3c9.88-.28,31.2-4.42,13-13.45-20.85-10.35-39.67,25.68-55.91,28.14,3.92-15.66,42.49-35,57.15-38.06,12.29-2.57,28.36,5.78,39.45,3,21-5.22,43.25-19.74,43.33-37.34-8.23,2.76-20.37,1.89-29.5,3.3,5.11-5.78,17.59-1.6,20.67-11.37-9.12-2.73-18.26-6.35-24.17-14.29,8.58-4.34,2.11-16.37.9-23.43.11,2.16-4.39-7.88-6-12.33-12.09,10.55-24.94,17.68-39.14,23.3,2.31-9.22,3.21-6.61,2-11.7,22.94-23.79-27.05-40.2-46-25.66-1,.73-16.33,21.93-17,24.55-1.61,6.19,4.77,14.59,3.46,17.77-7.16,17.48-19.48,12.54-30.3,22.53-7.9,7.28-11.28,25.76-21.47,36.78C2663,124,2675,114.64,2668.3,105.45a8.81,8.81,0,0,0,4.92-6.93c-10.78.44-16.24-.23-24.69-3.9-.11-.05-33.68-23.73-35.63-16.53,1-9.52,3.27-9.18-4.05-13.45,0-30,40.91-24.66,51.43-42.81a36.57,36.57,0,0,0-6.81-3.24c15.36,3.91,38.18-2,42.86-14.12-5.12,0-16,2.54-18.18-4.09C2687.07,3.13,2702.3,3,2713.85,0Z"/><path class="cls-104" d="M2692.3,1070.14c-6.2,0-6-11.35-3.36-13.94C2692.9,1055.8,2697.24,1070.14,2692.3,1070.14Z"/><path class="cls-105" d="M2768.12,1067.12c-6.71,0-1.27-8.06-.42-9.78C2776.66,1063.64,2769.87,1063.71,2768.12,1067.12Z"/><path class="cls-106" d="M2841.94,655.59q-5.49-2.67-11.12-5.07c-7.35-16.15,22.83-10.63,28.31-9C2856.84,650.93,2851.36,656.2,2841.94,655.59Z"/><path class="cls-107" d="M2741.65,542.34c1.12-3.07-1.86-8.6,5.24-9C2748.63,540,2744.24,538.49,2741.65,542.34Z"/><path class="cls-108" d="M2717.45,532c-3,0-3.91-1.59-3.39-4.28a17.94,17.94,0,0,1,8.58.57C2722,529.88,2719.71,532,2717.45,532Z"/><path class="cls-109" d="M2675,521.13c2.72-.8,1.85-5.53,4.6-.68C2678.77,521.82,2677.37,520.42,2675,521.13Z"/><path class="cls-110" d="M2613.1,405.7c-4.92-4.88-5-11.27-1.22-16.67C2619.24,395.34,2615.12,398,2613.1,405.7Z"/><path class="cls-111" d="M2631.15,401.34c0-2.58.44-5,1.91-6.3C2635.78,400.49,2631.17,401.29,2631.15,401.34Z"/><path class="cls-112" d="M2627.19,396.53c-1.27-3.24-3.46-5.94-4.13-9.45C2633,392.46,2626.56,394.67,2627.19,396.53Z"/><path class="cls-113" d="M2622.07,385.29c-2.37-7.12-1.64-10.64-10.06-13.73C2622.5,371.22,2624,380.71,2622.07,385.29Z"/><path class="cls-114" d="M2607.9,379.55Z"/><path class="cls-115" d="M2682.19,239c.69-6.14,12.89-7,17.17-7C2698.91,239.89,2686.75,239.05,2682.19,239Z"/><path class="cls-116" d="M2805.54,188.21c-10.07,0-.48-4.25,3.89-5.75C2811,186.11,2810.11,188.21,2805.54,188.21Z"/><path class="cls-117" d="M2800,181.94a9.26,9.26,0,0,1,7.4-6.53C2809.25,189.59,2801.23,182.78,2800,181.94Z"/><path class="cls-118" d="M2789.36,185.44a20.63,20.63,0,0,1-13.38-4.13c1.05-3.27,5-4.58,7.63-6.15,3.57,2.11,5.82,5.27,11,7.31A4.42,4.42,0,0,1,2789.36,185.44Z"/><path class="cls-119" d="M2845.53,173c3.83-1-22.57,1.47-23.74-7.35-.7-5.31,29.05-31.44,35.37-34.26-2.92,4.31.29,10.18-8,12.43,5.68,3.39,3.36-2.86,3.36,5.76,2.88,2,14.23,4,17.7,3.77-.77,7.82-4.19,1,.46,10.19a108.43,108.43,0,0,0-22.9,16.24Z"/><path class="cls-120" d="M2865.21,178.35c-3.16.63-5.35-.54-6.55-3.5a14.18,14.18,0,0,1,12.61-7.56A10.62,10.62,0,0,1,2865.21,178.35Z"/><path class="cls-121" d="M2800.23,170.86c-9.65,0,2.76-3.44,5-3.8C2804.74,169.24,2803.07,170.51,2800.23,170.86Z"/><path class="cls-122" d="M2323.24,160.13c-8.07,0-19.69-11.88-19.69-19.69,12.62-1.21,18.53,7.92,25.13,18A12.91,12.91,0,0,1,2323.24,160.13Z"/><path class="cls-123" d="M2800.49,156.09c-5,0-9.58-3.92-12.12-8C2793.39,147.89,2811.4,156.09,2800.49,156.09Z"/><path class="cls-124" d="M2295.53,129.6c-20.55-30.92,26.08-24.09,0,0Z"/><path class="cls-125" d="M2673.09,121.71c-5.24,0-1.16-7,2-7C2682,120.77,2673.39,121,2673.09,121.71Z"/><path class="cls-126" d="M2313.13,97.48c-4.77-5.77-4-10.12,3.92-12.09C2320.27,94.73,2315.71,94.43,2313.13,97.48Z"/><path class="cls-127" d="M2696.76,91.35c5.22-3.18,2.27-6,10.7-6C2706.07,91.08,2700.31,89.41,2696.76,91.35Z"/><path class="cls-128" d="M2309.06,88.34c-1.19,0-6.76-7.66-6.5-8.67C2307.54,79.68,2315.92,88.34,2309.06,88.34Z"/><path class="cls-129" d="M2164,87.33c1.69-1.76,0-6,5.52-6C2170.59,89.2,2167.25,84,2164,87.33Z"/><path class="cls-130" d="M2313.13,81.29c1.14-3.61-2.89-5.11,2-6C2317.37,80.84,2313.54,80,2313.13,81.29Z"/><path class="cls-131" d="M2303.89,77.22c3.05-2.4,4.46-5.58,8-8l2.69,3.16C2309.85,75.49,2308.18,75.52,2303.89,77.22Z"/><path class="cls-132" d="M3035.71,0h-110.3c.46,11,8,.08,3,9,3.56,6,4.72,11.52,9.42,19.36,5.55,9.27,9.75,10,17.47,15.82-.44-.33,14.67,9.77,14,9.77,2.73,0,40-43,38-49.27C3017.7,5.83,3027,3.61,3035.71,0Z"/><path class="cls-133" d="M2726.69,36.81c2.33-2.33,1.55-7.45,7.54-5.55C2734.23,43.44,2730,33.48,2726.69,36.81Z"/><path class="cls-134" d="M2821.73,32.74c11.19,0-6.26-12.21-7.09-14.16C2853,40.52,2839.18.11,2829.28,1.91A18.9,18.9,0,0,0,2831.15,0h-42.51c-7,3.54-13.9,7.14-13.9,7C2774.74,16.15,2813.67,32.74,2821.73,32.74Z"/><path class="cls-135" d="M2845.51,0c.06,10.28,10.4,5.69,19.36,0Z"/><path class="cls-136" d="M2708.48,32.74l-5.41-2.2c1.41-5.65,11.22-8.8,15.77-5.76A12.45,12.45,0,0,1,2708.48,32.74Z"/><path class="cls-137" d="M2749.93,25.66c-2.92.55-4.76-.61-5.53-3.5C2750,17.53,2749.31,24.73,2749.93,25.66Z"/><path class="cls-138" d="M2702.41,23.65a11.81,11.81,0,0,1-9.58-5.55c13.79-19.21,22-15.39,39-3.58-.56-1.32-3.72,2.78-3.85,2.91,6,.65,4.64-.24,5.21,4.73C2720.62,18.77,2714.51,23.65,2702.41,23.65Z"/><path class="cls-139" d="M2762.07,14.52a45.54,45.54,0,0,1-7.24-3.06q7.1-8.37,18.36-7Q2772.46,14.85,2762.07,14.52Z"/></svg>